<svg xmlns="http://www.w3.org/2000/svg" viewBox="0 0 120 100"><defs><style>.cls-1{fill:#eda82e;}.cls-2{fill:#18bad7;}.cls-3{fill:#fafafa;}.cls-4{fill:#f93f42;}.cls-5{fill:#44ceeb;}</style></defs><g id="图层_2" data-name="图层 2"><g id="OBJECTS"><path class="cls-1" d="M106,47.5A52.48,52.48,0,0,0,103.82,35h-1.67a50.77,50.77,0,0,0-3.8-9.25H100c-.49-.94-1-1.85-1.57-2.75H96.78a49.23,49.23,0,0,0-15-15.5h2.73a45.5,45.5,0,0,0-50,0H31.73A49.05,49.05,0,0,0,18.54,20.25h-3.2c-.63.89-1.23,1.81-1.8,2.75h3.2c-.55.9-1.07,1.81-1.57,2.75h1.46A50.77,50.77,0,0,0,12.83,35H11.37A51.78,51.78,0,0,0,9.21,48.63h2.52c0,.45,0,.91,0,1.37s0,.92,0,1.37H9.21c0,1.14.09,2.27.19,3.38H6.58a51.63,51.63,0,0,0,2.7,12.5H12.1a50.79,50.79,0,0,0,5,10.25H15c.59.94,1.21,1.86,1.86,2.75h2.09a49.23,49.23,0,0,0,10.33,10.5h7a45.56,45.56,0,0,0,55,0h-7a49.23,49.23,0,0,0,10.33-10.5h2A50.58,50.58,0,0,0,102,71h-2a51.58,51.58,0,0,0,3.87-13.5H101c.13-.91.23-1.83.31-2.75h2.82c.14-1.56.22-3.15.22-4.75,0-.84,0-1.67-.06-2.5ZM99.58,50a46.63,46.63,0,0,1-.24,4.75H96.52c-.09.93-.22,1.84-.36,2.75H99A46.15,46.15,0,0,1,94.62,71h2a45.56,45.56,0,0,1-6.19,9.25h-2A43.36,43.36,0,0,1,74.9,90.75h7a40.84,40.84,0,0,1-36.28,0h-7a43.36,43.36,0,0,1-13.54-10.5H23c-.76-.88-1.48-1.81-2.18-2.75H22.9a45.89,45.89,0,0,1-5.69-10.25H14.4a46.31,46.31,0,0,1-3-12.5h2.82c-.11-1.11-.18-2.24-.21-3.38h2.52c0-.45,0-.91,0-1.37s0-.92,0-1.37H14A47,47,0,0,1,16.39,35h1.46a45.67,45.67,0,0,1,4.32-9.25H20.72c.57-.94,1.17-1.86,1.81-2.75H19.32c.68-.95,1.4-1.86,2.14-2.75h3.21a42.94,42.94,0,0,1,18-12.75h2.74a40.73,40.73,0,0,1,28.1,0H70.81A43.21,43.21,0,0,1,91,23h1.63c.64.89,1.23,1.81,1.81,2.75H92.8A46.25,46.25,0,0,1,97.13,35h1.66a46.86,46.86,0,0,1,2.39,12.5H99.51C99.56,48.33,99.58,49.16,99.58,50Z"/><path class="cls-1" d="M95,47.5A39.77,39.77,0,0,0,92.17,35H90.5a38.83,38.83,0,0,0-5.31-9.25h1.63c-.74-1-1.52-1.87-2.34-2.75H82.85a35.28,35.28,0,0,0-49.32-2.75H32.09A36.94,36.94,0,0,0,29.24,23h1.43c-.82.88-1.6,1.79-2.34,2.75h1.41A38.83,38.83,0,0,0,24.43,35H23a39.9,39.9,0,0,0-2.86,13.63h1.9A37.55,37.55,0,0,1,25.11,35h1.4a36.68,36.68,0,0,1,5.73-9.25H30.83A37.28,37.28,0,0,1,33.41,23H32a34.23,34.23,0,0,1,3.27-2.75h1.43A33.37,33.37,0,0,1,80.11,23h1.63a35.26,35.26,0,0,1,2.58,2.75H82.69A36.65,36.65,0,0,1,88.41,35h1.67a37.85,37.85,0,0,1,3,12.5H91.4c.06.83.09,1.66.09,2.5a39.2,39.2,0,0,1-.3,4.75H89.55c-.12.93-.26,1.85-.44,2.75h1.64A37.19,37.19,0,0,1,85.14,71h2a35.88,35.88,0,0,1-9,9.25h-2a33.3,33.3,0,0,1-38.84,0H35.25a35.59,35.59,0,0,1-3.38-2.75H34a36.51,36.51,0,0,1-7.8-10.25H24.71a37.24,37.24,0,0,1-3.83-12.5h1.45c-.14-1.11-.23-2.24-.27-3.38h-1.9c0,1.14.12,2.27.25,3.38H19a39.67,39.67,0,0,0,3.61,12.5H24A38.82,38.82,0,0,0,31.15,77.5H29.07a36.9,36.9,0,0,0,3,2.75h2.09a35.13,35.13,0,0,0,45.24,0h2A38.05,38.05,0,0,0,89.47,71h-2a39.12,39.12,0,0,0,5.25-13.5H91.05c.17-.91.31-1.82.42-2.75h1.64A41.35,41.35,0,0,0,93.4,50c0-.84,0-1.67-.09-2.5Z"/><path class="cls-1" d="M22.67,48.63c0,.45,0,.91,0,1.37s0,.92,0,1.37h1.91c0-.45,0-.91,0-1.37s0-.92,0-1.37Z"/><path class="cls-2" d="M109.83,47.5A51.5,51.5,0,0,0,107.7,35H106a51.49,51.49,0,0,0-3.8-9.25h1.63c-.5-.94-1-1.85-1.58-2.75h-1.63a49.12,49.12,0,0,0-15-15.5h2.74a45.5,45.5,0,0,0-50,0H35.62A49.05,49.05,0,0,0,22.43,20.25H19.22c-.63.89-1.22,1.81-1.8,2.75h3.21c-.55.9-1.08,1.81-1.57,2.75h1.45A50.77,50.77,0,0,0,16.71,35H15.26A51.78,51.78,0,0,0,13.1,48.63h2.51c0,.45,0,.91,0,1.37s0,.92,0,1.37H13.1c0,1.14.08,2.27.19,3.38H10.47a51.63,51.63,0,0,0,2.7,12.5H16a50.26,50.26,0,0,0,5,10.25H18.85c.59.94,1.21,1.86,1.85,2.75h2.09a49.27,49.27,0,0,0,10.34,10.5h7a45.56,45.56,0,0,0,55,0h-7A49.46,49.46,0,0,0,98.5,80.25h2A51.17,51.17,0,0,0,105.84,71h-2a51.22,51.22,0,0,0,3.88-13.5h-2.82c.13-.91.23-1.83.32-2.75H108c.14-1.56.22-3.15.22-4.75,0-.84,0-1.67-.06-2.5ZM103.47,50a46.63,46.63,0,0,1-.24,4.75h-2.82c-.09.93-.22,1.84-.37,2.75h2.82A46.15,46.15,0,0,1,98.5,71h2a45.51,45.51,0,0,1-6.18,9.25h-2a43.2,43.2,0,0,1-13.53,10.5h7a40.86,40.86,0,0,1-36.29,0h-7A43.24,43.24,0,0,1,29,80.25H26.88c-.76-.88-1.49-1.81-2.18-2.75h2.08A45.86,45.86,0,0,1,21.1,67.25H18.28a46.68,46.68,0,0,1-3-12.5h2.82c-.11-1.11-.17-2.24-.2-3.38h2.51c0-.45,0-.91,0-1.37s0-.92,0-1.37H17.86A46.36,46.36,0,0,1,20.28,35h1.46a45.67,45.67,0,0,1,4.32-9.25H24.6c.58-.94,1.17-1.86,1.81-2.75H23.2c.68-.95,1.4-1.86,2.15-2.75h3.21A42.82,42.82,0,0,1,46.6,7.5h2.73a40.73,40.73,0,0,1,28.1,0H74.7A43.23,43.23,0,0,1,94.88,23h1.63c.64.89,1.24,1.81,1.81,2.75H96.69A45.67,45.67,0,0,1,101,35h1.67a46.86,46.86,0,0,1,2.39,12.5H103.4C103.44,48.33,103.47,49.16,103.47,50Z"/><path class="cls-2" d="M98.86,47.5A39.77,39.77,0,0,0,96.05,35H94.39a39.52,39.52,0,0,0-5.31-9.25h1.63c-.74-1-1.52-1.87-2.35-2.75H86.73a35.27,35.27,0,0,0-49.31-2.75H36A37.07,37.07,0,0,0,33.12,23h1.44c-.82.88-1.6,1.79-2.34,2.75h1.4A39.17,39.17,0,0,0,28.31,35H26.9A39.9,39.9,0,0,0,24,48.63H26A37.75,37.75,0,0,1,29,35H30.4a36.93,36.93,0,0,1,5.72-9.25h-1.4A35.26,35.26,0,0,1,37.3,23H35.86a34.11,34.11,0,0,1,3.26-2.75h1.44A33.37,33.37,0,0,1,84,23h1.63c.9.87,1.76,1.79,2.58,2.75H86.58A36.93,36.93,0,0,1,92.3,35H94a37.62,37.62,0,0,1,3,12.5H95.29c0,.83.09,1.66.09,2.5a39.2,39.2,0,0,1-.3,4.75H93.43c-.11.93-.25,1.85-.43,2.75h1.64A37.36,37.36,0,0,1,89,71h2a36,36,0,0,1-9,9.25h-2a33.28,33.28,0,0,1-38.83,0H39.14a35.59,35.59,0,0,1-3.38-2.75h2.09a36.32,36.32,0,0,1-7.8-10.25H28.59a37.46,37.46,0,0,1-3.82-12.5h1.45c-.14-1.11-.23-2.24-.27-3.38H24c0,1.14.13,2.27.26,3.38H22.85a39.41,39.41,0,0,0,3.61,12.5h1.45A38.82,38.82,0,0,0,35,77.5H33a38.66,38.66,0,0,0,3,2.75H38a35.15,35.15,0,0,0,45.25,0h2A38.27,38.27,0,0,0,93.36,71h-2a39.32,39.32,0,0,0,5.25-13.5H94.94c.17-.91.3-1.82.41-2.75H97A39.21,39.21,0,0,0,97.28,50c0-.84,0-1.67-.08-2.5Z"/><path class="cls-2" d="M26.56,48.63c0,.45,0,.91,0,1.37s0,.92,0,1.37h1.9c0-.45,0-.91,0-1.37s0-.92,0-1.37Z"/><path class="cls-3" d="M108,47.5A52.48,52.48,0,0,0,105.88,35h-1.67a50.77,50.77,0,0,0-3.8-9.25h1.64c-.5-.94-1-1.85-1.58-2.75H98.84a49.23,49.23,0,0,0-15-15.5h2.73a45.5,45.5,0,0,0-50,0H33.8A48.76,48.76,0,0,0,20.61,20.25H17.4c-.63.89-1.23,1.81-1.8,2.75h3.21c-.55.9-1.08,1.81-1.58,2.75h1.46A50.77,50.77,0,0,0,14.89,35H13.43a52.62,52.62,0,0,0-2.16,13.63h2.52c0,.45,0,.91,0,1.37s0,.92,0,1.37H11.27c0,1.14.09,2.27.19,3.38H8.64a52.11,52.11,0,0,0,2.7,12.5h2.82A51.32,51.32,0,0,0,19.11,77.5H17c.59.94,1.21,1.86,1.86,2.75H21A49.46,49.46,0,0,0,31.3,90.75h7a45.56,45.56,0,0,0,55,0h-7a49,49,0,0,0,10.33-10.5h2A50.58,50.58,0,0,0,104,71h-2a52,52,0,0,0,3.88-13.5h-2.82c.13-.91.23-1.83.31-2.75h2.82c.14-1.56.22-3.15.22-4.75,0-.84,0-1.67-.06-2.5ZM101.65,50a46.62,46.62,0,0,1-.25,4.75H98.59c-.1.93-.22,1.84-.37,2.75H101A46.15,46.15,0,0,1,96.68,71h2a45.93,45.93,0,0,1-6.18,9.25h-2A43.36,43.36,0,0,1,77,90.75h7a40.84,40.84,0,0,1-36.28,0h-7a43.36,43.36,0,0,1-13.54-10.5H25.06c-.77-.88-1.49-1.81-2.19-2.75H25a45.46,45.46,0,0,1-5.68-10.25H16.46a46.31,46.31,0,0,1-3-12.5h2.82c-.11-1.11-.18-2.24-.21-3.38h2.52c0-.45,0-.91,0-1.37s0-.92,0-1.37H16A47,47,0,0,1,18.45,35h1.46a46.22,46.22,0,0,1,4.32-9.25H22.78c.57-.94,1.17-1.86,1.81-2.75H21.38c.68-.95,1.4-1.86,2.14-2.75h3.21a42.94,42.94,0,0,1,18-12.75h2.74a40.73,40.73,0,0,1,28.1,0H72.87A43.21,43.21,0,0,1,93.06,23h1.63c.64.89,1.24,1.81,1.81,2.75H94.87A46.22,46.22,0,0,1,99.19,35h1.67a46.85,46.85,0,0,1,2.38,12.5h-1.66C101.62,48.33,101.65,49.16,101.65,50Z"/><path class="cls-3" d="M97,47.5A39.77,39.77,0,0,0,94.23,35H92.56a38.83,38.83,0,0,0-5.31-9.25h1.63c-.74-1-1.52-1.87-2.34-2.75H84.91a35.28,35.28,0,0,0-49.32-2.75H34.16A37.07,37.07,0,0,0,31.3,23h1.44c-.83.88-1.61,1.79-2.35,2.75H31.8A38.83,38.83,0,0,0,26.49,35H25.08a39.9,39.9,0,0,0-2.86,13.63h1.9A37.75,37.75,0,0,1,27.17,35h1.41a36.65,36.65,0,0,1,5.72-9.25H32.89c.82-1,1.68-1.88,2.58-2.75H34a34.11,34.11,0,0,1,3.26-2.75h1.44A33.35,33.35,0,0,1,82.17,23H83.8a35.26,35.26,0,0,1,2.58,2.75H84.75A37,37,0,0,1,90.48,35h1.66a37.85,37.85,0,0,1,3,12.5H93.47c0,.83.09,1.66.09,2.5a37.27,37.27,0,0,1-.31,4.75H91.61c-.11.93-.26,1.85-.44,2.75h1.65A37.36,37.36,0,0,1,87.21,71h2a36,36,0,0,1-9,9.25h-2a33.28,33.28,0,0,1-38.83,0H37.32a35.71,35.71,0,0,1-3.39-2.75H36a36.51,36.51,0,0,1-7.8-10.25H26.77a37.7,37.7,0,0,1-3.83-12.5h1.45c-.14-1.11-.23-2.24-.27-3.38h-1.9c0,1.14.12,2.27.25,3.38H21a39.94,39.94,0,0,0,3.61,12.5h1.45A38.85,38.85,0,0,0,33.22,77.5H31.13a36.9,36.9,0,0,0,3,2.75H36.2a35.13,35.13,0,0,0,45.24,0h2A38.05,38.05,0,0,0,91.53,71h-2a39.53,39.53,0,0,0,5.25-13.5H93.11c.18-.91.31-1.82.42-2.75h1.64A41.35,41.35,0,0,0,95.46,50c0-.84,0-1.67-.09-2.5Z"/><path class="cls-3" d="M24.73,48.63c0,.45,0,.91,0,1.37s0,.92,0,1.37h1.91c0-.45,0-.91,0-1.37s0-.92,0-1.37Z"/><rect class="cls-4" x="2.71" y="27.63" width="8.56" height="0.75"/><rect class="cls-4" x="95.88" y="10.75" width="4.77" height="0.75"/><rect class="cls-4" x="114.55" y="45.37" width="4.77" height="0.75"/><rect class="cls-4" x="1.65" y="70.21" width="5.58" height="0.54"/><rect class="cls-4" x="13.81" y="82.04" width="3.04" height="1"/><rect class="cls-4" x="32.6" y="94.5" width="3.04" height="1"/><rect class="cls-4" x="107.15" y="72.75" width="3.04" height="1"/><rect class="cls-4" x="3.88" y="50.46" width="1.01" height="0.75"/><rect class="cls-4" x="111.66" y="59" width="1.01" height="0.75"/><rect class="cls-4" x="6.72" y="30.75" width="1.01" height="0.75"/><rect class="cls-4" x="109.23" y="22.37" width="1.01" height="0.75"/><rect class="cls-4" x="9.78" y="74.75" width="1.01" height="0.75"/><rect class="cls-4" x="112.17" y="67.63" width="1.01" height="0.75"/><rect class="cls-4" x="104.28" y="81.29" width="1.01" height="0.75"/><rect class="cls-4" x="95.88" y="95.12" width="1.01" height="0.75"/><rect class="cls-4" x="18.85" y="88.12" width="1.01" height="0.75"/><rect class="cls-4" x="99.58" y="87.75" width="1.01" height="0.75"/><rect class="cls-4" y="55.37" width="1.01" height="0.75"/><rect class="cls-4" x="5.42" y="39.25" width="1.01" height="1.75"/><rect class="cls-4" x="2.36" y="62.71" width="1.01" height="1.75"/><rect class="cls-4" x="6.98" y="21" width="1.01" height="1.75"/><rect class="cls-4" x="20.97" y="8.25" width="1.01" height="1.75"/><rect class="cls-4" x="103.23" y="16.29" width="1.01" height="1.75"/><rect class="cls-4" x="88.77" y="3" width="1.01" height="1.75"/><rect class="cls-4" x="114.05" y="38.37" width="1.01" height="1.75"/><rect class="cls-4" x="111.15" y="51.37" width="1.01" height="1.75"/><rect class="cls-4" x="109.73" y="30.75" width="0.51" height="0.87"/><rect class="cls-5" x="3.38" y="27.63" width="8.56" height="0.75"/><rect class="cls-5" x="96.55" y="10.75" width="4.77" height="0.75"/><rect class="cls-5" x="115.23" y="45.37" width="4.77" height="0.75"/><rect class="cls-5" x="2.32" y="70.21" width="5.58" height="0.54"/><rect class="cls-5" x="14.48" y="82.04" width="3.04" height="1"/><rect class="cls-5" x="33.28" y="94.5" width="3.04" height="1"/><rect class="cls-5" x="107.83" y="72.75" width="3.04" height="1"/><rect class="cls-5" x="4.55" y="50.46" width="1.01" height="0.75"/><rect class="cls-5" x="112.33" y="59" width="1.01" height="0.75"/><rect class="cls-5" x="7.39" y="30.75" width="1.01" height="0.75"/><rect class="cls-5" x="109.9" y="22.37" width="1.01" height="0.75"/><rect class="cls-5" x="10.46" y="74.75" width="1.01" height="0.75"/><rect class="cls-5" x="112.84" y="67.63" width="1.01" height="0.75"/><rect class="cls-5" x="104.96" y="81.29" width="1.01" height="0.75"/><rect class="cls-5" x="96.55" y="95.12" width="1.01" height="0.75"/><rect class="cls-5" x="19.53" y="88.12" width="1.01" height="0.75"/><rect class="cls-5" x="100.26" y="87.75" width="1.01" height="0.75"/><rect class="cls-5" x="0.67" y="55.37" width="1.01" height="0.75"/><rect class="cls-5" x="6.1" y="39.25" width="1.01" height="1.75"/><rect class="cls-5" x="3.03" y="62.71" width="1.01" height="1.75"/><rect class="cls-5" x="7.65" y="21" width="1.01" height="1.75"/><rect class="cls-5" x="21.65" y="8.25" width="1.01" height="1.75"/><rect class="cls-5" x="103.91" y="16.29" width="1.01" height="1.75"/><rect class="cls-5" x="89.44" y="3" width="1.01" height="1.75"/><rect class="cls-5" x="114.72" y="38.37" width="1.01" height="1.75"/><rect class="cls-5" x="111.83" y="51.37" width="1.01" height="1.75"/><rect class="cls-5" x="110.41" y="30.75" width="0.51" height="0.87"/><rect class="cls-3" x="3.02" y="27.63" width="8.56" height="0.75"/><rect class="cls-3" x="96.2" y="10.75" width="4.77" height="0.75"/><rect class="cls-3" x="114.87" y="45.37" width="4.77" height="0.75"/><rect class="cls-3" x="1.96" y="70.21" width="5.58" height="0.54"/><rect class="cls-3" x="14.13" y="82.04" width="3.04" height="1"/><rect class="cls-3" x="32.92" y="94.5" width="3.04" height="1"/><rect class="cls-3" x="107.47" y="72.75" width="3.04" height="1"/><rect class="cls-3" x="4.19" y="50.46" width="1.01" height="0.75"/><rect class="cls-3" x="111.98" y="59" width="1.01" height="0.75"/><rect class="cls-3" x="7.04" y="30.75" width="1.01" height="0.75"/><rect class="cls-3" x="109.55" y="22.37" width="1.01" height="0.75"/><rect class="cls-3" x="10.1" y="74.75" width="1.01" height="0.75"/><rect class="cls-3" x="112.48" y="67.63" width="1.01" height="0.75"/><rect class="cls-3" x="104.6" y="81.29" width="1.01" height="0.75"/><rect class="cls-3" x="96.2" y="95.12" width="1.01" height="0.75"/><rect class="cls-3" x="19.17" y="88.12" width="1.01" height="0.75"/><rect class="cls-3" x="99.9" y="87.75" width="1.01" height="0.75"/><rect class="cls-3" x="0.32" y="55.37" width="1.01" height="0.75"/><rect class="cls-3" x="5.74" y="39.25" width="1.01" height="1.75"/><rect class="cls-3" x="2.68" y="62.71" width="1.01" height="1.75"/><rect class="cls-3" x="7.29" y="21" width="1.01" height="1.75"/><rect class="cls-3" x="21.29" y="8.25" width="1.01" height="1.75"/><rect class="cls-3" x="103.55" y="16.29" width="1.01" height="1.75"/><rect class="cls-3" x="89.09" y="3" width="1.01" height="1.75"/><rect class="cls-3" x="114.36" y="38.37" width="1.01" height="1.75"/><rect class="cls-3" x="111.47" y="51.37" width="1.01" height="1.75"/><rect class="cls-3" x="110.05" y="30.75" width="0.51" height="0.87"/></g></g></svg>