<svg id="图层_1" data-name="图层 1" xmlns="http://www.w3.org/2000/svg" viewBox="0 0 18 18"><defs><style>.cls-1{fill:#fff;}</style></defs><path class="cls-1" d="M15.31,8.24a.74.74,0,0,0-.84.64,6.55,6.55,0,0,1-3.38,4.84,6.54,6.54,0,0,1-8.84-2.65A6.48,6.48,0,0,1,4.91,2.28a6.55,6.55,0,0,1,7.74,1.16l-.82-.17a.74.74,0,0,0-.89.58.75.75,0,0,0,.58.89l2.74.57h.19l.09,0,.18,0,0,0,0,0,.06,0,.06-.07L15,5l.06-.12a.75.75,0,0,0,.05-.16s0,0,0-.06l.28-2.77a.75.75,0,0,0-.67-.83.75.75,0,0,0-.82.67l-.09.82A8,8,0,0,0,4.2,1a8,8,0,0,0,1.48,14.7A8.11,8.11,0,0,0,8,16a7.93,7.93,0,0,0,3.79-1,8,8,0,0,0,4.16-6A.75.75,0,0,0,15.31,8.24Z"/></svg>