<svg xmlns="http://www.w3.org/2000/svg" viewBox="0 0 120 106"><defs><style>.cls-1{fill:#ff2f14;}.cls-2{fill:#18bad7;}.cls-3{fill:#fafafa;}.cls-4{fill:#f93f42;}.cls-5{fill:#44ceeb;}</style></defs><g id="图层_2" data-name="图层 2"><g id="OBJECTS"><path class="cls-1" d="M111.72,91.43h-2.26L97.82,71.19h1.85L97,66.52H95.14l-4.28-7.45h3.9l-2.31-4h-3.9l-2.5-4.35h3.54L82.65,38.63H79.11L68,19.32h3.23l-2.31-4H65.69L56.9,0,48.11,15.29h3.24l-2.31,4H45.8l-6.62,11.5H37.27l-3.89,6.77H35.3L31.55,44.1h1.71l-3.14,5.48H28.41L20.17,63.9h4.09L16.49,77.42H12.4L0,99H17.24v2.74H48V99h15.1v2.42H78.18V99h37.89ZM78.18,98.67H63.11V96.26H78.18ZM96,94.16H48V96.9H17.24V94.16H8.33L18,77.42H22L29.81,63.9H25.72L34,49.58h1.71l3.14-5.48H37.1l3.75-6.51H38.93l3.89-6.77h1.92l6.61-11.5h3.24l2.31-4H53.66L56.9,9.66l3.24,5.63h3.24l2.31,4H62.45L73.56,38.63H77.1L84,50.7H80.5L83,55.05h3.9l2.31,4h-3.9l4.28,7.45h1.84l2.68,4.67H92.27l11.64,20.24h2.26l1.58,2.73Z"/><polygon class="cls-1" points="85.06 71.19 86.9 71.19 84.22 66.52 82.37 66.52 78.09 59.07 79.36 59.07 77.05 55.05 75.78 55.05 73.28 50.7 71.06 50.7 73.56 55.05 74.83 55.05 77.14 59.07 75.87 59.07 80.15 66.52 81.99 66.52 84.68 71.19 82.83 71.19 91.32 85.95 75.89 85.95 75.89 87.89 94.66 87.89 85.06 71.19"/><polygon class="cls-1" points="22.48 85.95 27.39 77.42 29.36 77.42 37.13 63.9 35.16 63.9 43.39 49.58 45.11 49.58 48.25 44.1 46.54 44.1 50.29 37.59 48.37 37.59 52.26 30.82 54.17 30.82 56.9 26.08 64.12 38.63 66.34 38.63 56.9 22.21 51.95 30.82 50.03 30.82 46.15 37.59 48.07 37.59 44.32 44.1 46.03 44.1 42.89 49.58 41.17 49.58 32.94 63.9 34.91 63.9 27.14 77.42 25.17 77.42 19.15 87.89 45.12 87.89 45.12 85.95 22.48 85.95"/><rect class="cls-1" x="45.12" y="87.89" width="30.77" height="1.93"/><polygon class="cls-1" points="75.64 50.7 68.7 38.63 66.48 38.63 73.42 50.7 75.64 50.7"/><path class="cls-2" d="M115.65,91.43h-2.27L101.75,71.19h1.84l-2.68-4.67H99.07l-4.28-7.45h3.9l-2.31-4H92.47L90,50.7h3.53L86.58,38.63H83L71.93,19.32h3.24l-2.31-4H69.62L60.83,0,52,15.29h3.24l-2.32,4H49.73l-6.62,11.5H41.19l-3.88,6.77h1.91L35.48,44.1h1.71L34,49.58H32.33L24.1,63.9h4.08L20.41,77.42H16.32L3.93,99H21.17v2.74H51.94V99H67v2.42H82.1V99H120ZM82.1,98.67H67V96.26H82.1Zm17.83-4.51h-48V96.9H21.17V94.16H12.25l9.63-16.74H26L33.74,63.9H29.65l8.23-14.32H39.6l3.14-5.48H41l3.75-6.51H42.86l3.88-6.77h1.92l6.62-11.5h3.24l2.31-4H57.59l3.24-5.63,3.24,5.63h3.24l2.31,4H66.38l11.1,19.31H81L88,50.7H84.42l2.5,4.35h3.9l2.32,4h-3.9l4.27,7.45h1.85L98,71.19H96.2l11.63,20.24h2.27l1.57,2.73Z"/><polygon class="cls-2" points="88.98 71.19 90.82 71.19 88.14 66.52 86.3 66.52 82.02 59.07 83.29 59.07 80.98 55.05 79.7 55.05 77.21 50.7 74.99 50.7 77.48 55.05 78.76 55.05 81.07 59.07 79.8 59.07 84.08 66.52 85.92 66.52 88.6 71.19 86.76 71.19 95.25 85.95 79.82 85.95 79.82 87.89 98.58 87.89 88.98 71.19"/><polygon class="cls-2" points="26.41 85.95 31.31 77.42 33.29 77.42 41.06 63.9 39.09 63.9 47.32 49.58 49.03 49.58 52.18 44.1 50.47 44.1 54.21 37.59 52.3 37.59 56.18 30.82 58.1 30.82 60.83 26.08 68.05 38.63 70.27 38.63 60.83 22.21 55.88 30.82 53.96 30.82 50.08 37.59 51.99 37.59 48.25 44.1 49.96 44.1 46.81 49.58 45.1 49.58 36.87 63.9 38.84 63.9 31.07 77.42 29.09 77.42 23.08 87.89 49.05 87.89 49.05 85.95 26.41 85.95"/><rect class="cls-2" x="49.05" y="87.89" width="30.77" height="1.93"/><polygon class="cls-2" points="79.57 50.7 72.63 38.63 70.41 38.63 77.35 50.7 79.57 50.7"/><path class="cls-3" d="M113.81,91.43h-2.27L99.91,71.19h1.84l-2.68-4.67H97.22l-4.28-7.45h3.91l-2.32-4h-3.9l-2.5-4.35h3.54L84.73,38.63H81.19L70.09,19.32h3.24l-2.31-4H67.78L59,0,50.2,15.29h3.24l-2.32,4H47.88l-6.61,11.5H39.35l-3.89,6.77h1.92L33.63,44.1h1.72L32.2,49.58H30.49L22.25,63.9h4.09L18.57,77.42H14.48L2.08,99H19.32v2.74H50.09V99H65.2v2.42H80.26V99h37.9ZM80.26,98.67H65.2V96.26H80.26Zm17.83-4.51h-48V96.9H19.32V94.16H10.41L20,77.42h4.09L31.89,63.9H27.81L36,49.58h1.71L40.9,44.1H39.19l3.74-6.51H41l3.89-6.77h1.92l6.62-11.5h3.23l2.32-4H55.75L59,9.66l3.24,5.63h3.23l2.32,4H64.54l11.1,19.31h3.54L86.12,50.7H82.58l2.5,4.35H89l2.31,4h-3.9l4.28,7.45h1.84l2.69,4.67H94.36L106,91.43h2.27l1.57,2.73Z"/><polygon class="cls-3" points="87.14 71.19 88.98 71.19 86.3 66.52 84.45 66.52 80.18 59.07 81.45 59.07 79.14 55.05 77.86 55.05 75.36 50.7 73.14 50.7 75.64 55.05 76.91 55.05 79.23 59.07 77.95 59.07 82.23 66.52 84.08 66.52 86.76 71.19 84.92 71.19 93.41 85.95 77.98 85.95 77.98 87.89 96.74 87.89 87.14 71.19"/><polygon class="cls-3" points="24.57 85.95 29.47 77.42 31.45 77.42 39.22 63.9 37.24 63.9 45.48 49.58 47.19 49.58 50.34 44.1 48.62 44.1 52.37 37.59 50.45 37.59 54.34 30.82 56.26 30.82 58.99 26.08 66.2 38.63 68.42 38.63 58.99 22.21 54.04 30.82 52.12 30.82 48.23 37.59 50.15 37.59 46.4 44.1 48.12 44.1 44.97 49.58 43.26 49.58 35.02 63.9 37 63.9 29.23 77.42 27.25 77.42 21.24 87.89 47.21 87.89 47.21 85.95 24.57 85.95"/><rect class="cls-3" x="47.21" y="87.89" width="30.77" height="1.93"/><polygon class="cls-3" points="77.72 50.7 70.78 38.63 68.56 38.63 75.5 50.7 77.72 50.7"/><rect class="cls-4" x="21.24" y="40.4" width="7.78" height="0.8"/><rect class="cls-4" x="99.18" y="61.01" width="7.78" height="0.8"/><rect class="cls-4" x="88.35" y="102.7" width="7.78" height="0.8"/><rect class="cls-4" x="18.16" y="55.12" width="2.85" height="1.47"/><rect class="cls-4" x="56.62" y="103.98" width="7.78" height="0.8"/><rect class="cls-4" x="31.18" y="92.24" width="7.78" height="0.8"/><rect class="cls-4" x="84.26" y="34.04" width="1.37" height="0.8"/><rect class="cls-4" x="94.24" y="45.55" width="1.37" height="0.8"/><rect class="cls-4" x="114.7" y="85.31" width="1.37" height="0.8"/><rect class="cls-4" x="12.1" y="65.47" width="7.78" height="0.8"/><rect class="cls-4" x="5.97" y="100.92" width="7.78" height="0.8"/><rect class="cls-4" x="33.86" y="27.24" width="1.21" height="1.21"/><rect class="cls-4" x="94.93" y="51.79" width="1.21" height="1.21"/><rect class="cls-4" x="107.62" y="66.96" width="1.21" height="1.21"/><rect class="cls-4" x="105.06" y="104.18" width="1.21" height="1.21"/><rect class="cls-4" x="110.35" y="77.58" width="1.21" height="1.21"/><rect class="cls-4" x="24.52" y="47.44" width="1.21" height="1.21"/><rect class="cls-4" x="97.98" y="91.03" width="1.21" height="1.21"/><rect class="cls-4" x="45.12" y="104.79" width="1.21" height="1.21"/><rect class="cls-4" x="77.37" y="21.61" width="1.21" height="1.21"/><rect class="cls-4" x="8.02" y="75.57" width="1.21" height="1.21"/><rect class="cls-4" x="43.62" y="17.5" width="1.03" height="0.61"/><rect class="cls-4" x="48.55" y="7.73" width="1.03" height="0.61"/><rect class="cls-4" x="70.55" y="11.47" width="1.03" height="0.61"/><rect class="cls-5" x="22.62" y="40.4" width="7.78" height="0.8"/><rect class="cls-5" x="100.57" y="61.01" width="7.78" height="0.8"/><rect class="cls-5" x="89.74" y="102.7" width="7.78" height="0.8"/><rect class="cls-5" x="19.54" y="55.12" width="2.85" height="1.47"/><rect class="cls-5" x="58" y="103.98" width="7.78" height="0.8"/><rect class="cls-5" x="32.56" y="92.24" width="7.78" height="0.8"/><rect class="cls-5" x="85.64" y="34.04" width="1.37" height="0.8"/><rect class="cls-5" x="95.63" y="45.55" width="1.37" height="0.8"/><rect class="cls-5" x="116.09" y="85.31" width="1.37" height="0.8"/><rect class="cls-5" x="13.48" y="65.47" width="7.78" height="0.8"/><rect class="cls-5" x="7.35" y="100.92" width="7.78" height="0.8"/><rect class="cls-5" x="35.24" y="27.24" width="1.21" height="1.21"/><rect class="cls-5" x="96.31" y="51.79" width="1.21" height="1.21"/><rect class="cls-5" x="109" y="66.96" width="1.21" height="1.21"/><rect class="cls-5" x="106.44" y="104.18" width="1.21" height="1.21"/><rect class="cls-5" x="111.73" y="77.58" width="1.21" height="1.21"/><rect class="cls-5" x="25.91" y="47.44" width="1.21" height="1.21"/><rect class="cls-5" x="99.36" y="91.03" width="1.21" height="1.21"/><rect class="cls-5" x="46.51" y="104.79" width="1.21" height="1.21"/><rect class="cls-5" x="78.76" y="21.61" width="1.21" height="1.21"/><rect class="cls-5" x="9.41" y="75.57" width="1.21" height="1.21"/><rect class="cls-5" x="45.01" y="17.5" width="1.03" height="0.61"/><rect class="cls-5" x="49.93" y="7.73" width="1.03" height="0.61"/><rect class="cls-5" x="71.93" y="11.47" width="1.03" height="0.61"/><rect class="cls-3" x="21.81" y="40.4" width="7.78" height="0.8"/><rect class="cls-3" x="99.76" y="61.01" width="7.78" height="0.8"/><rect class="cls-3" x="88.92" y="102.7" width="7.78" height="0.8"/><rect class="cls-3" x="18.73" y="55.12" width="2.85" height="1.47"/><rect class="cls-3" x="57.19" y="103.98" width="7.78" height="0.8"/><rect class="cls-3" x="31.75" y="92.24" width="7.78" height="0.8"/><rect class="cls-3" x="84.83" y="34.04" width="1.37" height="0.8"/><rect class="cls-3" x="94.81" y="45.55" width="1.37" height="0.8"/><rect class="cls-3" x="115.27" y="85.31" width="1.37" height="0.8"/><rect class="cls-3" x="12.67" y="65.47" width="7.78" height="0.8"/><rect class="cls-3" x="6.54" y="100.92" width="7.78" height="0.8"/><rect class="cls-3" x="34.43" y="27.24" width="1.21" height="1.21"/><rect class="cls-3" x="95.5" y="51.79" width="1.21" height="1.21"/><rect class="cls-3" x="108.19" y="66.96" width="1.21" height="1.21"/><rect class="cls-3" x="105.63" y="104.18" width="1.21" height="1.21"/><rect class="cls-3" x="110.92" y="77.58" width="1.21" height="1.21"/><rect class="cls-3" x="25.09" y="47.44" width="1.21" height="1.21"/><rect class="cls-3" x="98.55" y="91.03" width="1.21" height="1.21"/><rect class="cls-3" x="45.7" y="104.79" width="1.21" height="1.21"/><rect class="cls-3" x="77.95" y="21.61" width="1.21" height="1.21"/><rect class="cls-3" x="8.6" y="75.57" width="1.21" height="1.21"/><rect class="cls-3" x="44.19" y="17.5" width="1.03" height="0.61"/><rect class="cls-3" x="49.12" y="7.73" width="1.03" height="0.61"/><rect class="cls-3" x="71.12" y="11.47" width="1.03" height="0.61"/></g></g></svg>