<?xml version="1.0" encoding="utf-8"?>
<!-- Generator: Adobe Illustrator 25.2.3, SVG Export Plug-In . SVG Version: 6.00 Build 0)  -->
<svg version="1.1" id="图层_1" xmlns="http://www.w3.org/2000/svg" xmlns:xlink="http://www.w3.org/1999/xlink" x="0px" y="0px"
	 viewBox="0 0 40 26" style="enable-background:new 0 0 40 26;" xml:space="preserve">
<style type="text/css">
	.st0{fill:#FFFFFF;}
</style>
<g>
	<path class="st0" d="M34.3,18.3c-0.1,0-0.1,0.1-0.2,0.1c-0.5,0.5-1.1,1-1.6,1.5c-2,1.7-4.4,3-6.8,3.9c-2.4,0.9-4.8,1.5-7.3,1.9
		c-0.7,0.1-1.4,0.2-2.1,0.3c0.8,0,1.6,0,2.4,0c0,0,0.1,0,0.1,0c1.6,0,3.2-0.2,4.7-0.5c2.7-0.5,5.2-1.2,7.6-2.5
		c2.1-1.1,4-2.5,5.5-4.3c0.1-0.1,0.2-0.2,0.3-0.4C36.1,18.3,35.2,18.3,34.3,18.3z"/>
	<path class="st0" d="M33.2,1.8c1.6,0.9,2.9,2.1,3.8,3.7c0.3,0.6,0.5,1.2,0.8,1.8c0.7,0,1.4,0,2.2,0c0-0.1,0-0.1,0-0.1
		c-0.2-0.5-0.4-1.1-0.7-1.6c-0.9-1.6-2.1-2.7-3.6-3.6c-2-1.2-4.2-1.8-6.5-2c-0.3,0-0.6-0.1-0.8-0.1c-0.3,0-0.6,0-0.9,0
		c0.2,0,0.5,0.1,0.7,0.1C29.9,0.4,31.6,0.9,33.2,1.8z"/>
	<path class="st0" d="M5,15.9c2.4-1.3,4.8-2.6,7.2-3.9c0.3-0.2,0.6-0.4,0.9-0.6c0.2-0.2,0.3-0.4,0.3-0.6c0-0.7,0-1.3,0-2
		c0-0.1,0-0.1,0-0.2c-4.2,0-8.4,0-12.6,0c0,0.5,0,0.9,0,1.4c2.8,0,5.7,0,8.5,0C9.1,10,9,10,9,10.1c-2.4,1.3-4.8,2.6-7.2,3.9
		c-0.3,0.2-0.6,0.4-0.8,0.6c-0.1,0.1-0.3,0.3-0.3,0.5c0,0.8,0,1.6,0,2.3c12.9,0,25.8,0,38.8,0c0-0.5,0-0.9,0-1.4
		c-11.6,0-23.1,0-34.6,0C4.8,16,4.9,15.9,5,15.9z"/>
	<path class="st0" d="M26.1,22.5c2-1,3.8-2.3,5.5-3.8c0.2-0.1,0.3-0.3,0.5-0.5c-0.1,0-0.1,0-0.1,0c-1.6,0-3.1,0-4.7,0
		c-0.1,0-0.1,0-0.2,0.1c-0.4,0.3-0.7,0.6-1,0.8c-4.7,3.3-9.9,4.8-15.6,4.4c-1.6-0.1-3.2-0.5-4.7-1.1c-2-0.9-3.6-2.1-4.6-4.1
		c0,0-0.1-0.1-0.1-0.1c-0.3,0-0.7,0-1.1,0c0.2,0.5,0.4,0.9,0.6,1.4c0.9,1.7,2.2,2.9,3.9,3.9c1.9,1.1,4,1.7,6.1,2
		c2.5,0.3,5,0.2,7.5-0.2C20.9,24.7,23.5,23.9,26.1,22.5z"/>
	<path class="st0" d="M6.1,7.4c0.1,0,0.2-0.1,0.3-0.1C6.7,7,7,6.8,7.3,6.6c4-3,8.5-4.5,13.5-4.6c1,0,2.1,0.1,3.1,0.3
		C25.5,2.5,27,3,28.3,3.8c1.4,0.8,2.5,1.9,3.2,3.5c0,0.1,0.1,0.1,0.2,0.1c1.4,0,2.8,0,4.1,0c0.1,0,0.1,0,0.1,0c0,0,0,0,0,0
		c0-0.1,0-0.1,0-0.1c-0.4-1.3-1.2-2.5-2.2-3.4c-1.3-1.2-2.9-2.1-4.6-2.6c-2.7-0.9-5.5-1-8.3-0.7c-2.3,0.2-4.5,0.7-6.7,1.5
		c-3,1.1-5.8,2.7-8.1,4.9C5.8,7,5.7,7.2,5.5,7.4C5.7,7.4,5.9,7.4,6.1,7.4z"/>
	<path class="st0" d="M29.8,9.6c0.9,0,1.8,0,2.7,0c0,0.1,0,0.2,0,0.3c0,1.3,0,2.6,0,3.9c0,0.5,0.2,0.8,0.6,1.1
		c0.2,0.1,0.4,0.2,0.6,0.3c0.7,0.2,1.5,0.3,2.3,0.3c0-1.9,0-3.8,0-5.8c1.2,0,2.3,0,3.5,0c0-0.3,0-0.7,0-1c-3.2,0-6.4,0-9.6,0
		C29.8,8.9,29.8,9.2,29.8,9.6z"/>
	<path class="st0" d="M18.1,8.6c-1.2,0-2.4,0-3.6,0c-0.1,0-0.1,0-0.2,0c0.7,2.3,1.3,4.5,2,6.8c0.9,0,1.7,0,2.5,0
		c0.4,0,0.8-0.1,1.2-0.3c0.1-0.1,0.1-0.1,0.1-0.2c-0.6-2-1.2-4-1.7-6C18.3,8.6,18.2,8.6,18.1,8.6z"/>
	<path class="st0" d="M24.7,8.6c-2,0-4,0-6,0c0.6,2,1.1,3.9,1.7,5.9C21.9,12.5,23.3,10.6,24.7,8.6z"/>
	<path class="st0" d="M25.5,13.7c0,0.1,0,0.3,0.1,0.4c0.1,0.5,0.5,0.8,0.9,0.9c0.5,0.1,1,0.2,1.5,0.3c0.3,0,0.6,0,0.9,0.1
		c0-1.5,0-3,0-4.5c-1.2,0-2.3,0-3.5,0c0,0,0,0.1,0,0.1C25.5,11.9,25.5,12.8,25.5,13.7z"/>
	<path class="st0" d="M29,8.6c-1.2,0-2.3,0-3.5,0c0,0.6,0,1.2,0,1.8c1.2,0,2.3,0,3.5,0C29,9.8,29,9.2,29,8.6z"/>
</g>
</svg>
