<svg id="_лой_1" data-name="‘лой_1" xmlns="http://www.w3.org/2000/svg" viewBox="0 0 270 180"><defs><style>.cls-1{fill:#ebf3fa;opacity:0.1;}.cls-2{opacity:0.8;}.cls-3{fill:#d7e5ff;}.cls-4{fill:#aec3ff;}.cls-5{fill:#a8d29f;}.cls-6{fill:#ffb27d;}.cls-7{fill:#739af0;}.cls-8{fill:#1c3154;}.cls-9{fill:#2a4e96;}.cls-10{fill:#233862;}.cls-11{fill:#6385db;}.cls-12{fill:#ed985f;}.cls-13{fill:#2c3a64;}.cls-14{fill:#f99746;}.cls-15{fill:#ed7d2b;}.cls-16{fill:#7599ea;}.cls-17{fill:#90aff4;}.cls-18,.cls-19{fill:#5888dd;}.cls-19{opacity:0.4;}.cls-20{fill:#607cf4;}.cls-21{fill:#e9f3fe;}.cls-22{fill:#e6efff;}.cls-23{fill:#f77d48;}.cls-24{fill:#113c68;}.cls-25{fill:#15447c;}.cls-26{fill:#fca56b;}.cls-27{fill:#163560;}.cls-28{fill:#1f4d84;}.cls-29{opacity:0.5;}.cls-30{fill:#b3cff9;}.cls-31{fill:#ed975d;}.cls-32{fill:#fff;}.cls-33{fill:#1f447f;}.cls-34{fill:#b5453c;}.cls-35{fill:#e8945b;}</style></defs><path class="cls-1" d="M258.35,178.57c-17,0-247.29-.46-247.29-.48-.09-.21-29.23-33.08,7.46-67.45,18.18-17-16.7-39.09,0-58C47.11,20.16,75.41,38.43,99,29.31a38,38,0,0,0,12.52-8.19,46.69,46.69,0,0,1,7.7-5.88l1.29-.76a54.56,54.56,0,0,1,5.13-2.57c1.19-.51,2.4-1,3.63-1.43h0q2.94-1,6-1.8a74.7,74.7,0,0,1,9-1.62c1.33-.16,2.68-.28,4-.38,26.34-1.82,56,8.43,71.27,23.42,3.08,3,17.09,18.63,6.05,40.09-7,13.54,22.22,26.48,32.6,42C284.56,151.48,258.59,178.06,258.35,178.57Z"/><g class="cls-2"><path class="cls-3" d="M198.76,80.22a33.48,33.48,0,0,1-64.87-9.16,32.19,32.19,0,0,1,0-5.1,33.36,33.36,0,0,1,1.9-8.61A34,34,0,0,1,139,50.91l0-.06a33.52,33.52,0,0,1,19.09-14.26c.81-.23,1.64-.44,2.48-.61a33.37,33.37,0,0,1,18.14,1.34c.8.29,1.59.61,2.35,1a32.68,32.68,0,0,1,3.12,1.6,33.43,33.43,0,0,1,10.45,9.6h0a33.37,33.37,0,0,1,4.06,7.73A32.4,32.4,0,0,1,200,61.63c.21.94.38,1.88.5,2.84a33.13,33.13,0,0,1-1.74,15.75Z"/><path class="cls-4" d="M161.73,50.82c-2,1.53-1.46,5.63-4.88,3.32s-5.58-3.57-6.55-1.55,2.07,3.12,1.27,5.31-2.43,2.43-4.14.63-1.76-3.54-4.54-3.48-4-1.09-3.82-3.17a3.27,3.27,0,0,0-.09-1l0-.06a33.52,33.52,0,0,1,19.09-14.26c.81-.23,1.64-.44,2.48-.61a4.43,4.43,0,0,1,2.55,2.79c1.21,3.52,3.17,2.7,1.51,5.65s-1,3.67.83,4.21,3.91,1.3,3.63,2.74S163.7,49.28,161.73,50.82Z"/><path class="cls-4" d="M198.76,80.22A33.29,33.29,0,0,1,186.84,96a3.83,3.83,0,0,1-2.5-1c-3.35-3,1.1-6.18,3.44-7.73s-2-2.06-4.2-5.07,2.94-7.11-.36-7.33-7.3-.44-8-4,2.79-2.8,2.19-5.77,2.26-3.54,5.32-2.69,3.45-1.41,7.25-.38,2,5.7,6.21,6.87,3.67,2,3.67,2a2.05,2.05,0,0,1,.79.49A33.75,33.75,0,0,1,198.76,80.22Z"/><path class="cls-4" d="M200.5,64.47c-4,.41-3.72-4.57-7.11-4.28s-2-2.13-3.65-4.64-7.4-1.15-6.24-3.69,4.34-.55,5.84-2.38S194,49.4,194,49.4a2.13,2.13,0,0,1,.66.08h0a33.37,33.37,0,0,1,4.06,7.73A32.4,32.4,0,0,1,200,61.63C200.21,62.57,200.38,63.51,200.5,64.47Z"/><path class="cls-4" d="M175.19,45.05s2.72-1.92.17-3.7-2.86-.78-5-1.81-3.6.35-2.63,2.81,1,6.51,3.2,5.15S173.37,44.6,175.19,45.05Z"/></g><path class="cls-5" d="M18.67,179.14H30.34c.63-.53-.43-1.73-1.54-1.82a7,7,0,0,0-1.78.22c-.16-2.14-1.08-11.73-4.54-11.35-3.88.43,0,4.23,1.1,6.47a51.77,51.77,0,0,1,2.07,5.18l-1,.2c-.51-1.59-2.43-6.91-4.87-6.6-2.86.36-1.71,2.5.32,3.76,1.49.94,3.32,2.26,4.18,2.9a12.18,12.18,0,0,1-2.28.18A4.91,4.91,0,0,0,18.67,179.14Z"/><path class="cls-5" d="M204.49,179.14H193.65c-.58-.49.4-1.61,1.43-1.69a6.28,6.28,0,0,1,1.65.2c.15-2,1-10.89,4.22-10.54,3.61.41,0,3.93-1,6a48.65,48.65,0,0,0-1.92,4.81c.29.06.6.13.91.18.47-1.47,2.26-6.41,4.52-6.12,2.66.34,1.59,2.32-.29,3.49-1.39.87-3.09,2.1-3.89,2.69a10.53,10.53,0,0,0,2.12.17A4.59,4.59,0,0,1,204.49,179.14Z"/><path class="cls-6" d="M212.24,108.05s.26-2.57-1.08-2.48-1.7.7-1.55,1.2a14.13,14.13,0,0,0,1.45,2.12Z"/><path class="cls-7" d="M233.16,113.19a21.89,21.89,0,0,1-4.68,3.76c-.3.2-.62.39-1,.58a34.24,34.24,0,0,1-4.37,2.16l-.65.24a31.36,31.36,0,0,1-7.62,1.77h-.54c-3.33-.14-3.73-13-3.73-13a1.64,1.64,0,0,1,2.08-1s2.59,7.29,3.52,7.89,5.57-6.67,9.65-7.17C228.61,108.07,233.16,113.19,233.16,113.19Z"/><path class="cls-8" d="M224.23,176.11s.25,2.84-.35,3.13h-7.69s0-.89,1.24-1.09,3.4-.92,3.77-2.52S224.23,176.11,224.23,176.11Z"/><path class="cls-9" d="M218.59,141.73c0,1.86.13,3.78.3,5.5.83,8.17,1.12,18,1.24,19.94.21,3.3.86,8.58.86,8.58a4.22,4.22,0,0,0,3.82.64,86,86,0,0,0,2.56-15.6c0-.13,0-.26,0-.4.05-1,.11-2.26.17-3.57.38-8.74.8-21.72.8-21.72l-9.64-2.26S218.5,137.1,218.59,141.73Z"/><path class="cls-10" d="M218.59,141.73c2.44,4.22,7.1,12,9,15.09.38-8.74.8-21.72.8-21.72l-9.64-2.26S218.5,137.1,218.59,141.73Z"/><path class="cls-11" d="M222.5,119.93a31.36,31.36,0,0,1-7.62,1.77c.33-.07,2.76-.55,3.66-1.63s2.59-4.34,3.89-3C223,117.63,222.86,118.83,222.5,119.93Z"/><path class="cls-6" d="M238.7,140.36a14.86,14.86,0,0,1,.5,2.87,10.21,10.21,0,0,1-1,2.73c-.36.43-.38-1.91-.62-2.28s-.11.88-.3,1-.52-.94-.67-1.31.52-1.66.58-2.58S238.7,140.36,238.7,140.36Z"/><path class="cls-8" d="M243.37,172.88s1.37,1.25,1.1,2.13-1.5,1.48-1.67,2.57-.83,1.67-1.43,1.67h-2.86s-.45-.76.62-1,1.47-1.5,1.4-2.69a22.25,22.25,0,0,1,.1-2.76l2.27-.52Z"/><path class="cls-9" d="M220.24,135.3s9,19.31,13.82,27.78,6.31,10.84,6.31,10.84,2.75-1.08,3-1.82c0,0-1.84-16.36-5.05-20.35-1.82-2.25-4-9-4.06-11.38s-2.2-8-2.2-8Z"/><path class="cls-7" d="M218.55,134.29a15.6,15.6,0,0,0,7.94,4.12c2.19.42,6.64.83,7.74-.73a2.79,2.79,0,0,0,.2-1.76c-.14-2.2-.7-6.45,1.8-15a14.77,14.77,0,0,0,.48-2.28c.55-4.38.49-7.68-3.31-9.44-5.68-2.65-8-.47-8-.47a9.54,9.54,0,0,0-4.41,5.53C218.21,122.49,218.55,134.29,218.55,134.29Z"/><path class="cls-6" d="M230,108.46a4.23,4.23,0,0,1-4.25.28,5,5,0,0,1-.08-1.75c0-.82.11-1.62.11-1.62l2-1.33,1.93-1.27C229.49,107.13,230.42,108.15,230,108.46Z"/><path class="cls-12" d="M229.39,104.57a6.26,6.26,0,0,1-3.73,2.42c0-.82.12-1.72.12-1.72l2-1.23Z"/><path class="cls-6" d="M224,104.86s4.9,1.82,6-1.19,2.46-4.81-.62-6.11-4.11-.36-4.72.56S222.71,104.3,224,104.86Z"/><path class="cls-13" d="M233,97.9a.64.64,0,0,1,.41,0,.87.87,0,0,0-.41-.21,1.24,1.24,0,0,0-.58-1.21.72.72,0,0,1,.24.58c-.52-.8-1.83-1.56-5.76-2-5.19-.61-4.16,3-3.57,3.51s2.46-.21,3.67.13,1.1,2.17,1.47,2.49.29-.14.91-.28.48.81.2,1.38.33,1.54.33,1.54l.95-.69c1-.69,2.41-4.13,2.2-5Z"/><path class="cls-11" d="M234.43,135.92c-.14-2.2-.7-6.45,1.8-15a14.77,14.77,0,0,0,.48-2.28h0c-1.85-.62-5.24.75-5.24.75S230.68,130.68,234.43,135.92Z"/><path class="cls-7" d="M234.43,109.76s2.28.83,3.74,6.88c1,4,2.74,9.87,2.94,11.72s-2,12.66-2,12.66a1.42,1.42,0,0,1-1.08.07,1.8,1.8,0,0,1-1.08-.64s-.54-7.21-.4-10.61c.06-1.41-6.54-10.35-10.1-11.5C225,117.88,234.43,109.76,234.43,109.76Z"/><path class="cls-4" d="M202.46,101.93a76,76,0,0,1,14.23,1.21l.8-2,.87-2.19s-7.65-3.3-12.25-7.89Z"/><path class="cls-14" d="M206.21,91l-3.79,11.19h0a1,1,0,0,1-.66-1.3l3.33-9.41a.83.83,0,0,1,1.12-.48Z"/><path class="cls-14" d="M209.83,110.26h0a1.38,1.38,0,0,0,1.61-1.08l1.31-6.53a1.38,1.38,0,0,0-1.08-1.61h0a1.37,1.37,0,0,0-1.6,1.08l-1.31,6.53A1.37,1.37,0,0,0,209.83,110.26Z"/><path class="cls-7" d="M202.46,101.93a76,76,0,0,1,14.23,1.21l.8-2C210.32,99.67,202.46,101.93,202.46,101.93Z"/><path class="cls-14" d="M214.58,102.74l2.07.36a2.27,2.27,0,0,0,2.55-1.35,1.15,1.15,0,0,0,.12-.37c.5-2.15-.68-2.55-.68-2.55l-2.66-1-.84,3h0Z"/><path class="cls-15" d="M214.58,102.74l2.07.36a2.27,2.27,0,0,0,2.55-1.35c-1.17-.85-4.06-1-4.06-1h0Z"/><path class="cls-6" d="M210,103.93s1,.4.82.85-1.47,1-1.67.7S209.37,103.56,210,103.93Z"/><path class="cls-6" d="M212.26,107.64a13.85,13.85,0,0,0,.2-1.5c0-.48.07-.87,0-.88s-.19.08-.24.23-.22,1.1-.22,1.1l.09.91Z"/><path class="cls-16" d="M112.39,107l-5.72,68s-.59,4.12,2.47,4.13h25.1s-3.8-.86-3.75-2.79c0-2.28,6.69-70,6.69-70Z"/><path class="cls-17" d="M136.13,177.91c-1,0-20.41,0-25.32,0-2.14,0-2.52-1.9-2.53-3.12a6.29,6.29,0,0,1,.06-1l.15-1.77.38-4.5.33-4,.43-5.12.37-4.31,4.06-48.33,24.78-.65s-2.79,28.34-4.77,49c-.22,2.29-.43,4.5-.62,6.56q-.09,1-.18,1.92c-.19,1.95-.35,3.74-.5,5.33-.08.83-.15,1.61-.21,2.32-.25,2.78-.4,4.55-.4,4.89a2.39,2.39,0,0,0,.05.55C132.61,177.81,135.76,177.91,136.13,177.91Z"/><polygon class="cls-4" points="52.21 69.96 66.14 125.93 68.05 133.59 74.54 159.66 195.11 159.66 171.19 69.96 52.21 69.96"/><polygon class="cls-17" points="52.21 69.96 50.28 70.6 71.97 161.61 74.54 159.66 52.21 69.96"/><polygon class="cls-16" points="71.97 161.61 191.8 161.61 195.11 159.66 74.54 159.66 71.97 161.61"/><rect class="cls-4" x="114.05" y="177.91" width="25.94" height="1.23" transform="translate(254.05 357.05) rotate(180)"/><polygon class="cls-18" points="133.4 161.61 133.27 162.55 108.87 167.48 109.2 163.5 109.36 161.61 133.4 161.61"/><path class="cls-19" d="M136.13,177.91c-1,0-20.41,0-25.32,0-2.14,0-2.52-1.9-2.53-3.12l24.28-4.56c-.25,2.78-.4,4.55-.4,4.89a2.39,2.39,0,0,0,.05.55C132.61,177.81,135.76,177.91,136.13,177.91Z"/><polygon class="cls-4" points="52.21 69.96 171.19 69.96 190.49 142.05 70.16 142.05 52.21 69.96"/><polygon class="cls-7" points="184.88 138.93 73.48 138.93 69.5 123.07 67.96 116.93 67.33 114.43 63.24 98.13 63.03 97.28 60.87 88.67 59.9 84.82 59.07 81.53 57.14 73.82 166.93 73.82 169.06 81.53 169.96 84.82 171.03 88.67 178.03 114.06 178.03 114.06 178.62 116.22 178.9 117.21 183.73 134.75 184.88 138.93"/><polygon class="cls-20" points="169.06 81.53 59.07 81.53 57.14 73.82 166.93 73.82 169.06 81.53"/><path class="cls-21" d="M61.68,77.3a.73.73,0,0,1,.72-1,1.31,1.31,0,0,1,1.21,1,.73.73,0,0,1-.72,1A1.31,1.31,0,0,1,61.68,77.3Z"/><path class="cls-21" d="M64.88,77.3a.73.73,0,0,1,.73-1,1.31,1.31,0,0,1,1.2,1,.73.73,0,0,1-.72,1A1.32,1.32,0,0,1,64.88,77.3Z"/><path class="cls-21" d="M68.33,77.3a.73.73,0,0,1,.72-1,1.32,1.32,0,0,1,1.21,1,.73.73,0,0,1-.73,1A1.31,1.31,0,0,1,68.33,77.3Z"/><path class="cls-4" d="M105,61.21c1-5.2,1.66-14.85,2.73-20.21a1.32,1.32,0,0,0-1.94-1.4l-5.65,3.18-1.46-15a.54.54,0,0,0-1.07,0l-3.18,24.5a.82.82,0,0,0,1.3.76l6-4.39,2.08,12.6A.63.63,0,0,0,105,61.21Z"/><path class="cls-22" d="M189.75,140.46,93,148.62A9.69,9.69,0,0,1,83.29,135l41-91.78a9.69,9.69,0,0,1,16.91-1.43L197,125.43A9.68,9.68,0,0,1,189.75,140.46Z"/><path class="cls-23" d="M190.06,144.12l-96.8,8.16a13.36,13.36,0,0,1-13.32-18.77l41-91.78a13.36,13.36,0,0,1,23.31-2l55.79,83.62a13.36,13.36,0,0,1-10,20.73ZM132.64,41.19a5.94,5.94,0,0,0-5,3.54l-41,91.78a6,6,0,0,0,6,8.44l96.8-8.15a6,6,0,0,0,4.5-9.33L138.15,43.84A5.92,5.92,0,0,0,132.64,41.19Z"/><path class="cls-23" d="M132.11,122.46a6.7,6.7,0,0,1,.28-2.66,6.28,6.28,0,0,1,1.25-2.19,6.41,6.41,0,0,1,2.1-1.56,8.13,8.13,0,0,1,2.87-.73,8.26,8.26,0,0,1,3,.24,6.42,6.42,0,0,1,2.35,1.18,6.11,6.11,0,0,1,1.6,2,6.91,6.91,0,0,1,.44,5.2,6.28,6.28,0,0,1-1.25,2.17,6.49,6.49,0,0,1-2.12,1.56,8.41,8.41,0,0,1-2.9.74,8.12,8.12,0,0,1-3-.25,6.45,6.45,0,0,1-2.32-1.18,6.12,6.12,0,0,1-1.6-1.94A6.36,6.36,0,0,1,132.11,122.46Zm11.29-13.22-10.52.89-4.52-35.82,13.5-1.14Z"/><path class="cls-6" d="M70.27,111.82s.3-.68.5-1,1-1.27,1.18-1,.71,1.66.41,2.06,0,1.11-1.49,1.53Z"/><path class="cls-15" d="M53.48,107.51s7.73,6.45,10.75,5.86c2.35-.47,6.08-1.65,6.08-1.65a2.35,2.35,0,0,1,.71,2s-4.75,4.47-8.13,4.5c-5.29,0-7.79-2.62-7.79-2.62Z"/><path class="cls-24" d="M39.92,175.6s.22,3.62.92,3.67h3.55l4.42,0A1.44,1.44,0,0,0,47.49,178c-1.29-.22-3.45-1.13-4.23-2.84S39.92,175.6,39.92,175.6Z"/><path class="cls-9" d="M39.66,175.85a9.16,9.16,0,0,0,2.39.45,8.71,8.71,0,0,0,2.23-.32,62.59,62.59,0,0,1,1.65-7.83c.73-2.82,1.77-6.46,3.25-11a149.16,149.16,0,0,0,5.46-20.45.12.12,0,0,1,0,0h0L42,131.14s1.55,17.18-.43,23.78a26.62,26.62,0,0,0-.72,3.16C39.63,165.24,39.66,175.85,39.66,175.85Z"/><path class="cls-10" d="M45.93,168.15c.73-2.82,1.77-6.46,3.25-11a149.16,149.16,0,0,0,5.46-20.45.13.13,0,0,0,0-.06L42,131.14s1.55,17.18-.43,23.78C41.33,155.84,45.93,168.15,45.93,168.15Z"/><path class="cls-25" d="M49.75,175.6s.23,3.62.93,3.67h3.55l4.42,0A1.44,1.44,0,0,0,57.33,178c-1.29-.22-3.45-1.13-4.23-2.84S49.75,175.6,49.75,175.6Z"/><path class="cls-9" d="M56.9,131.55a179.35,179.35,0,0,1-1.77,24.8c-1.92,13.67-1.27,19.48-1.27,19.48a12.57,12.57,0,0,1-1.86.47,8.39,8.39,0,0,1-2.75-.32s-2.76-13.68-2-20.52S43.5,132,43.5,132Z"/><path class="cls-6" d="M48,105.49l2.46,1.61,2.24-.63a5.41,5.41,0,0,0,.53-2.69c0-1-.09-1.79-.09-1.79l-3.32-1.46L48.54,100s.1,1,.11,1.17A8.48,8.48,0,0,1,48,105.49Z"/><path class="cls-14" d="M57,134.64c-3.06,3-14.64,2.46-15.35-.8s.77-27.71,6-29.25c1.09-.32,6.89,1.56,6.89,1.56a36.29,36.29,0,0,1,1.5,5.41c.12.59.46,6.84.71,12.69.12,2.73.22,5.38.27,7.32A19.58,19.58,0,0,1,57,134.64Z"/><path class="cls-26" d="M48.9,101.19c.67,1.14,3,2.14,4.29,2.59,0-1-.09-1.79-.09-1.79l-3.32-1.46C49.05,100.52,48.6,100.68,48.9,101.19Z"/><path class="cls-6" d="M54.35,101.79S49,103.46,48,100.12s-2.34-5.39,1-6.59,4.41-.13,5,.91S55.71,101.27,54.35,101.79Z"/><path class="cls-27" d="M53.85,94.11s-.34,3.9-1.14,3.73-1.7-.53-1.58.64-.78,3.19-1.94,3.18c-2.49,0-5.19-6.4-4.51-7.61C46.64,90.56,56.69,89.85,53.85,94.11Z"/><path class="cls-15" d="M53.07,104.68c-.07,0-4-1.79-4.44-1.64s-1,1.55-1,1.55l6.89,1.56A3.48,3.48,0,0,0,53.07,104.68Z"/><path class="cls-28" d="M77.41,123.62,55.49,144.26c-.43.4-1,.53-1.2.28l-.74-.78c-.24-.25-.08-.78.35-1.19l21.92-20.64c.43-.4,1-.53,1.21-.28l.74.78C78,122.68,77.84,123.21,77.41,123.62Z"/><path class="cls-7" d="M65.11,135.2l-9.62,9.06c-.43.4-1,.53-1.2.28l-.74-.78c-.24-.25-.08-.78.35-1.19l9.62-9Z"/><path class="cls-28" d="M72.37,115.83a17.18,17.18,0,1,0,28.48-17.27l-.27-.26a17.18,17.18,0,0,0-28.21,17.53ZM77.28,100A15.83,15.83,0,1,1,78,122.34,15.84,15.84,0,0,1,77.28,100Z"/><g class="cls-29"><path class="cls-30" d="M100.33,121.66a15.83,15.83,0,1,1-.68-22.37A15.73,15.73,0,0,1,100.33,121.66Z"/></g><path class="cls-15" d="M57,131.57C44.89,123,45.9,111.48,45.9,111.48c4.41,2.49,8.79,8,10.8,12.77C56.82,127,56.92,129.63,57,131.57Z"/><path class="cls-6" d="M68.89,127.65a3.35,3.35,0,0,0,1.54-1s.37,0-.06.8c0,.06-.11.23-.17.34a.08.08,0,0,0,.06.11,8.68,8.68,0,0,1,1.94,0c.13,0,.16.34.16.48a1.17,1.17,0,0,1-.26.82,4.11,4.11,0,0,1-1.52.8,4.48,4.48,0,0,1-2.36-.3l-.78-.35.24-1.44.2,0C68.19,128.1,68.57,127.73,68.89,127.65Z"/><path class="cls-14" d="M49.64,106.15s-10.85,2.06,3.2,17.78c2.24,2.51,14.38,5.79,14.38,5.79s1.23-1.05.61-1.9c0,0-8.36-6.07-10.19-7-.83-.44-3.21-9.69-4.56-11.92A6.1,6.1,0,0,0,49.64,106.15Z"/><path class="cls-6" d="M70.56,112a5,5,0,0,0,.42-1,5.89,5.89,0,0,1,.7-1.58c.08-.08.32,0,.35.34a1.86,1.86,0,0,1-.17.68,6.74,6.74,0,0,0-.23,1.37C71.46,112.32,70.56,112,70.56,112Z"/><path class="cls-6" d="M74.88,85.08a.65.65,0,0,0-.12.7h0a4.42,4.42,0,0,0,1.38,1.51l.22.18,0,0,0,0c.6.56.37.68,1.46,1.81,1.24,1.29,2.09,1.32,2.33,1.2S80,89.79,79.57,89l-.07-.11-.18-.31c-.54-.93-.4-1.36-.28-2.74.11-1.11,1.74-6.24,1.74-6.24l-2.37-.41s-.71,4.08-1.5,4.71c-.42.34-.89.34-1.3.59l-.08,0A3.3,3.3,0,0,0,74.88,85.08Z"/><path class="cls-10" d="M74.88,85.08a.65.65,0,0,0-.12.7h0a5.13,5.13,0,0,0,1.38,1.5l.22.19,0,0,0,0c.6.56.37.68,1.46,1.81,1.24,1.29,2.09,1.32,2.33,1.2S80,89.79,79.57,89a5.38,5.38,0,0,1-2.21-1.63c-.72-.92-1.2-2.08-1.69-2.8l-.14,0A3.3,3.3,0,0,0,74.88,85.08Z"/><path class="cls-6" d="M94,83.61c.15.73,1.19.61,2.36.33s.88,0,2.54-.13,2.17-.81,2.22-1-.78-.3-1.66-.4l-.33,0A7.37,7.37,0,0,1,96.52,81a10.43,10.43,0,0,1-2.13-2.53l-2.28.18s1.2,1.81,1.66,2.6A2.71,2.71,0,0,1,94,82.83,2.91,2.91,0,0,0,94,83.61Z"/><path class="cls-10" d="M96.37,83.94c1.16-.29.88,0,2.54-.13s2.17-.81,2.22-1-.78-.3-1.66-.4v0a4.71,4.71,0,0,1-2.38.73c-1.13,0-2.32-.29-3.1-.28a2.91,2.91,0,0,0,0,.78C94.16,84.34,95.2,84.22,96.37,83.94Z"/><path class="cls-10" d="M85.29,69.05l-2.13,5.73-2.78,7.47a4.7,4.7,0,0,1-1.48-.13,6.68,6.68,0,0,1-1.42-.7s.77-8,2.21-12.63a8.31,8.31,0,0,1,1.24-2.68C83.16,63.47,85.29,69.05,85.29,69.05Z"/><path class="cls-9" d="M83.13,60c-1.21-.39-4.37,0-7.8.61a2.32,2.32,0,0,1-2.4-1.09h0l-8.63-.67S61.45,65.12,63,69.14a1.53,1.53,0,0,0,1.51,1H71.4c4.29,0,9.08-2.94,9.7-3.06,1-.21,1.42,1.82,2.43,4s9.53,9.44,9.53,9.44a7.64,7.64,0,0,0,1.85-.19,1.92,1.92,0,0,0,.8-.5S86.27,61,83.13,60Z"/><path class="cls-10" d="M72,34.15a3.07,3.07,0,0,0-1.64-.43,4.25,4.25,0,0,1-.8,0c-3.29-.48-5.28,4.3-5.39,5.74-.22,2.66-1.62,3.06-3.6,4.72-4,3.33-2.8,7.2-.63,8.64,1.29.87,3.59,0,3.59,0s6.26-3.49,9.33-5.18C77.49,47,73.87,35.25,72,34.15Z"/><path class="cls-6" d="M70.31,46.16a4.06,4.06,0,0,1-2.53.08,4.49,4.49,0,0,1-1.67-2c.43,0,.91-.41,1.28-2.91l.19.07,3.12,1.12s-.22,1-.37,2S70.14,46.05,70.31,46.16Z"/><path class="cls-31" d="M70.7,42.52s-.12.54-.3,1.55a3.51,3.51,0,0,1-2.82-2.67Z"/><path class="cls-6" d="M71.17,43.52s-4.28-.58-3.88-3.23.12-4.52,2.86-4.27,3.13,1.35,3.21,2.27S72.29,43.6,71.17,43.52Z"/><path class="cls-10" d="M73.2,36.83s-2.73,2.36-4.59,2.55A3.55,3.55,0,0,1,66,39a7.24,7.24,0,0,0,1.76-2.38,1.3,1.3,0,0,1,1.08-.77C70.21,35.71,72.73,35.65,73.2,36.83Z"/><path class="cls-10" d="M71.49,36.62a6.89,6.89,0,0,1,1.21,1.54,5.17,5.17,0,0,1,.14,2.75s1.42-2.77.62-4.12A1.15,1.15,0,0,0,71.49,36.62Z"/><path class="cls-14" d="M73.91,52.46c-.14,8.65,0,6.85-1,7.67a3.8,3.8,0,0,1-1.71.37c-2.65.17-7.32-.27-7.5-.76-.61-1.69-.17-2.22-.68-4.82-.06-.27-.12-.57-.2-.9-.43-1.78-.84-2.39.67-5.26a22.68,22.68,0,0,1,2.92-4.62c3.62,2.14,3.91.34,3.91.34S74,48.24,73.91,52.46Z"/><path class="cls-9" d="M83.16,74.78l-2.78,7.47a4.7,4.7,0,0,1-1.48-.13,6.68,6.68,0,0,1-1.42-.7s.77-8,2.21-12.63Z"/><path class="cls-14" d="M70.33,44.48s3.72.63,4.15,2.23S76.35,58,76.35,58s-1,1-1.92.15-2.74-9.09-2.74-9.09Z"/><path class="cls-15" d="M71.21,60.5c-2.65.17-7.32-.27-7.5-.76-.61-1.69-.17-2.22-.68-4.82l1.28-3.6s-.22,4,1,5.07,4.84,2,5.42,2.92A3.28,3.28,0,0,1,71.21,60.5Z"/><path class="cls-6" d="M68.17,58.81s2.62-.58,3-.35a6.21,6.21,0,0,1,1.58,1.37c.13.3-.94-.22-1.28-.32a3.13,3.13,0,0,0-1.12.25,3.71,3.71,0,0,1-2,.2Z"/><path class="cls-14" d="M66.42,44.13s-3.51.22-4.73,1.92C60,48.44,56.57,58.62,58.52,60c2.19,1.53,10,.41,10,.41a3.17,3.17,0,0,0-.1-1.8c-.36-.59-6.22-1.53-6.49-1.81s3.38-5.27,3.38-6.08S66.42,44.13,66.42,44.13Z"/><path class="cls-6" d="M71.34,59.19a4.75,4.75,0,0,0,.72.79.58.58,0,0,0,.3.06L72,59.38Z"/><path class="cls-6" d="M71.21,58.46l1.59.77a.28.28,0,0,1-.26.11,3.77,3.77,0,0,1-.69-.19Z"/><polygon class="cls-10" points="84.83 60.28 68.17 60.28 68.17 60.65 84.68 60.65 84.83 60.28"/><polygon class="cls-10" points="72.06 60.65 84.68 60.65 88.48 51.22 75.88 51.21 72.06 60.65"/><path class="cls-32" d="M81.5,55.93a.44.44,0,0,0-.43-.6.88.88,0,0,0-.78.6.44.44,0,0,0,.43.6A.88.88,0,0,0,81.5,55.93Z"/><path class="cls-27" d="M166.87,96.23a3.65,3.65,0,0,0-2.88.15c-4.89.2-5.07,5.22-4.5,7.08.81,2.62-2.05,4.69,1.12,5.75,3.67,1.23,6.75-.23,6.54.41C178.77,110.53,170.73,97.51,166.87,96.23Z"/><path class="cls-14" d="M161.79,120.62a12.42,12.42,0,0,1-1.31,2c-1,1.28-6.35-1.75-5.89-2s3.14-8,3.78-8.92,2.81-1.47,2.81-1.47Z"/><path class="cls-33" d="M179.79,172.71s1.48,1.34,1.19,2.3-1.62,1.59-1.8,2.76-.89,1.8-1.54,1.8h-3.08s-.48-.82.67-1.07,1.58-1.62,1.51-2.89a22.63,22.63,0,0,1,.11-3l2.44-.57Z"/><path class="cls-8" d="M167.33,173.28s.53,5.69-.11,6h-8.28s0-1,1.33-1.17,3.66-1,4.06-2.72S167.33,173.28,167.33,173.28Z"/><path class="cls-14" d="M173.7,116.78a34,34,0,0,1,0,3.83c-.09,1.38-1.48,3.23-1.68,3.69-.5,1.15-1.06,1.34-1.06,1.34l-4.35,1.06-1.52.37-4.82-1.43s-2.19-6.13-1.31-9.57a26.55,26.55,0,0,1,2.22-5.84,34.27,34.27,0,0,1,9-.33Z"/><path class="cls-15" d="M174.11,120.66c-.08,1.38-1.89,3.18-2.09,3.64-.5,1.15-1.06,1.34-1.06,1.34l-4.35,1.06-.78-2.25s6.35-1.66,5.33-7.54Z"/><path class="cls-10" d="M160.58,126.57s-2.39,7.42-2.54,10,4.56,35.9,4.75,37.07,1.54,1.8,1.54,1.8a2,2,0,0,0,1.52.11,3.83,3.83,0,0,0,1.64-.77s1.85-23.8.7-32.31A133.94,133.94,0,0,1,167,126.57Z"/><path class="cls-9" d="M170.68,126.34s3.64,4.89,4,8.19.53,14.89,1.25,18.1,3.38,9.41,3.38,19.44a2,2,0,0,1-1.13.89c-.27.09-.63.19-1,.27a1.55,1.55,0,0,1-1.74-.83c-1.8-3.61-7.51-15.27-7.81-17.69-.21-1.71-2-13-6-19.69-.94-1.6.58-8,.58-8Z"/><path class="cls-10" d="M160.2,125.42a5,5,0,0,0,2.86.8c2.27,0,7.9-.58,7.9-.58a4.58,4.58,0,0,1,.24,1.43s-6.88,1.74-10.86.26A2.49,2.49,0,0,1,160.2,125.42Z"/><path class="cls-32" d="M162.51,128.17a1.18,1.18,0,1,1,1-1.17A1.11,1.11,0,0,1,162.51,128.17Zm0-2a.84.84,0,1,0,.69.83A.77.77,0,0,0,162.51,126.17Z"/><polygon class="cls-34" points="167.48 130.31 157.14 130.4 152.06 118.45 162.39 118.36 167.48 130.31"/><path class="cls-6" d="M166.13,124.91l-.76-.93a2.64,2.64,0,0,0-.89-.54c-.37-.08-1.15-.53-1.23-.4s.6,1,.6,1h0c-.78.59-2.75.07-3,.31s.4.92.78,1.27a2.76,2.76,0,0,0,2.29.68c.61-.19,1.57-.39,1.57-.39Z"/><path class="cls-6" d="M152.84,120.56s.65-.74,1.06-.39-.11,2.1-.5,1.92S152.61,120.77,152.84,120.56Z"/><path class="cls-14" d="M170.23,109.9s3,.33,5.08,4.18c1.68,3,4.54,8.65,3.46,10.24-.47.69-5,3.17-13.78,1.75a2.63,2.63,0,0,1,.84-1.62s7.38-2.37,7.36-2.84c0-.89-1-1.66-5.11-5.78C167,114.71,170.23,109.9,170.23,109.9Z"/><path class="cls-6" d="M168,110.06c.1-.14,0-.57-.2-1.38a16.15,16.15,0,0,1-.39-3.15l-.22,0-3.66.62s.08,1,.08,1.9v0c0,.81-.21,2,.06,2.18C165,111.1,167.56,110.58,168,110.06Z"/><path class="cls-35" d="M163.49,106.19s.07,1.38.07,2.3c2.05,0,3.15-2,3.59-2.92Z"/><path class="cls-6" d="M163.27,107.84s4.8-.69,4.33-3.68-.17-5.08-3.26-4.77-3.5,1.54-3.59,2.58S162,107.94,163.27,107.84Z"/><path class="cls-27" d="M162.15,99.66s1.87,3.3,4,3.49,2.89-.48,2.89-.48a5.76,5.76,0,0,1-2.4-3.07S162.87,97.84,162.15,99.66Z"/><path class="cls-27" d="M162.52,99.9a3,3,0,0,0-1.21,1.29,4.94,4.94,0,0,0-.21,2.84s-1.37-2.22-.47-3.75S162.52,99.9,162.52,99.9Z"/><rect class="cls-10" x="1.64" y="179.14" width="267.11" height="0.86" rx="0.43"/><path class="cls-23" d="M142.86,28.49c3-3.48,7.53-10.46,10.6-14a1.13,1.13,0,0,0-.87-1.87H147L152.28.66a.47.47,0,0,0-.81-.47L138.72,17.26a.7.7,0,0,0,.65,1.12l6.33-.78L141.94,28A.54.54,0,0,0,142.86,28.49Z"/></svg>