<svg id="_лой_1" data-name="‘лой_1" xmlns="http://www.w3.org/2000/svg" viewBox="0 0 270 180"><defs><style>.cls-1,.cls-19{fill:#ebf3fa;}.cls-1{opacity:0.1;}.cls-2{opacity:0.8;}.cls-3{fill:#d7e5ff;}.cls-4{fill:#aec3ff;}.cls-5{fill:#7599ea;}.cls-13,.cls-6{fill:#90aff4;}.cls-7,.cls-8{fill:#5888dd;}.cls-8{opacity:0.4;}.cls-9{fill:#c2d5ff;}.cls-10{fill:#739af0;}.cls-11{fill:#607cf4;}.cls-12{fill:#e9f3fe;}.cls-13{opacity:0.5;}.cls-14{fill:#f99746;}.cls-15{fill:#f78248;}.cls-16{fill:#ffdaa4;}.cls-17{fill:#d5e5fb;}.cls-18{fill:#c6dcf7;}.cls-20{fill:#2c3a64;}.cls-21{fill:#ffb27d;}.cls-22{fill:#2f539b;}.cls-23{fill:#233862;}.cls-24{fill:#5a7de0;}.cls-25{fill:#ed985f;}.cls-26{fill:#ed7d2b;}.cls-27{fill:#163560;}.cls-28{fill:#2a4e96;}.cls-29{fill:#f4a269;}.cls-30{fill:#193b72;}.cls-31{fill:#ef8035;}.cls-32{fill:#fff;}.cls-33{fill:#0e2644;}.cls-34{fill:#1c468a;}.cls-35{fill:#fca56b;}</style></defs><path class="cls-1" d="M256.62,179.8c-15.61,0-243,.06-243.13-.37l0-.05a.29.29,0,0,1,0-.08c-.09-.22-35-60.62,19.29-102.67C54,60.17,31.41,49.31,48.32,31,67.74,10,89,33.23,110.55,23.69A34.89,34.89,0,0,0,122,15.13,43.56,43.56,0,0,1,129.08,9l1.18-.79A45.66,45.66,0,0,1,135,5.5c1.09-.54,2.19-1,3.32-1.5h0a53.36,53.36,0,0,1,5.51-1.88A59,59,0,0,1,152,.42c1.23-.17,2.46-.3,3.7-.39C179.86-1.88,207,8.84,221,24.51c2.82,3.16,15.66,19.49,5.54,41.93-6.39,14.17,20.37,27.71,29.88,43.89C280.63,151.47,256.84,179.27,256.62,179.8Z"/><g class="cls-2"><path class="cls-3" d="M118.87,77.49A33.87,33.87,0,0,1,54,91.2a32.34,32.34,0,0,1-1.73-4.87,34,34,0,0,1-.4-16s0-.06,0-.08A33.93,33.93,0,0,1,65.15,50.06c.69-.5,1.41-1,2.15-1.43a33.66,33.66,0,0,1,17.71-5c.86,0,1.71,0,2.56.1a31.63,31.63,0,0,1,3.52.44,33.66,33.66,0,0,1,13.25,5.52h0a34.13,34.13,0,0,1,6.53,5.94,36.17,36.17,0,0,1,2.76,3.75c.51.82,1,1.66,1.45,2.53a33.44,33.44,0,0,1,2.58,6.58A33.88,33.88,0,0,1,118.87,77.49Z"/><path class="cls-4" d="M73.5,62.33c-1.35,2.14.57,5.86-3.49,4.85s-6.53-1.47-6.75.78,3,2.26,3,4.62-1.47,3.15-3.72,2-2.9-2.75-5.52-1.74-4.14.34-4.73-1.69a2.88,2.88,0,0,0-.42-.88s0-.06,0-.08A33.93,33.93,0,0,1,65.15,50.06c.69-.5,1.41-1,2.15-1.43a4.47,4.47,0,0,1,3.39,1.77c2.36,2.93,3.94,1.46,3.38,4.84s.33,3.83,2.25,3.72,4.17-.12,4.39,1.35S74.85,60.19,73.5,62.33Z"/><path class="cls-4" d="M73.74,78s-2,2.38-3.81,1-1.22-2.22-3.8-1.36-3.72-.56-5,.51-.25,1.21-1.16,3.49-2.81,2.64-1.35,4.92,4.18,1.1,5.61,2.3,1,2.38,2.75,2.87,3.5-1.25,3.53.91-.65,4.27,1.57,6.27,1.8,2.46,4.09,3.44,5,.1,4.66-1.28-3.29-1.65-3.34-3.19,1.5-1.42.87-3.42,1.13-3.06.54-4.35-4-1.73-3.58-3,3.45-.2,3.62-2.94-1.69-3.72-1.42-6.4S74.05,76.33,73.74,78Z"/><path class="cls-4" d="M118.87,77.49A33.79,33.79,0,0,1,113,96.58a3.89,3.89,0,0,1-2.71-.07c-4.22-1.69-1.1-6.25.59-8.53s-2.62-1.27-5.74-3.38.33-7.77-2.87-6.84-7.1,2.11-9-1,1.69-3.64.09-6.25.93-4.14,4.14-4.4,2.78-2.53,6.75-2.87,3.89,4.73,8.28,4.4,4.19.67,4.19.67a2.08,2.08,0,0,1,.92.19A33.88,33.88,0,0,1,118.87,77.49Z"/><path class="cls-4" d="M115.08,61.91c-3.65,1.78-5.12-3.06-8.24-1.6s-2.6-1.35-5.07-3.16-7.43,1.47-7.21-1.35,3.94-2,4.73-4.28,4.39-1.69,4.39-1.69a2.76,2.76,0,0,1,.66-.14h0a34.13,34.13,0,0,1,6.53,5.94,36.17,36.17,0,0,1,2.76,3.75C114.14,60.2,114.63,61,115.08,61.91Z"/><path class="cls-4" d="M84.31,52.2s1.92-2.76-1.12-3.58-3,.25-5.35,0-3.3,1.58-1.52,3.58S79.53,58,81.13,56,82.43,52.4,84.31,52.2Z"/></g><path class="cls-5" d="M125.75,114l-5.18,61.67s-.55,3.73,2.23,3.74c4.58,0,22.76,0,22.76,0s-3.44-.78-3.4-2.53c.05-2.06,6.06-63.46,6.06-63.46Z"/><path class="cls-6" d="M147.27,178.3c-.9,0-18.5,0-23,0-1.94,0-2.29-1.72-2.3-2.82a5.21,5.21,0,0,1,.06-.92l.13-1.6.35-4.09.3-3.61.39-4.64.33-3.91,3.68-43.82,22.47-.58s-2.53,25.69-4.32,44.4l-.57,5.95c-.05.59-.11,1.17-.16,1.74-.17,1.77-.32,3.4-.45,4.83-.07.76-.14,1.46-.19,2.1-.23,2.53-.37,4.14-.37,4.44a2.57,2.57,0,0,0,.05.5C144.08,178.21,146.93,178.3,147.27,178.3Z"/><polygon class="cls-4" points="71.19 80.42 83.82 131.17 85.55 138.12 91.43 161.75 200.75 161.75 179.06 80.42 71.19 80.42"/><polygon class="cls-6" points="71.19 80.42 69.44 81.01 89.11 163.52 91.43 161.75 71.19 80.42"/><polygon class="cls-5" points="89.11 163.52 197.75 163.52 200.75 161.75 91.43 161.75 89.11 163.52"/><rect class="cls-4" x="127.26" y="178.3" width="23.52" height="1.12" transform="translate(278.04 357.71) rotate(180)"/><polygon class="cls-7" points="144.8 163.52 144.68 164.37 122.56 168.84 122.86 165.23 123 163.52 144.8 163.52"/><path class="cls-8" d="M147.27,178.3c-.9,0-18.5,0-23,0-1.94,0-2.29-1.72-2.3-2.82l22-4.15c-.23,2.53-.37,4.14-.37,4.44a2.57,2.57,0,0,0,.05.5C144.08,178.21,146.93,178.3,147.27,178.3Z"/><polygon class="cls-9" points="71.19 80.42 179.06 80.42 196.56 145.79 87.46 145.79 71.19 80.42"/><polygon class="cls-10" points="191.47 142.95 90.47 142.95 86.86 128.57 85.47 123.01 84.9 120.74 81.19 105.97 81 105.2 79.03 97.39 78.16 93.89 77.41 90.91 75.65 83.92 175.2 83.92 177.13 90.91 177.95 93.89 178.91 97.39 185.26 120.41 185.26 120.41 185.8 122.36 186.05 123.27 190.43 139.16 191.47 142.95"/><polygon class="cls-11" points="177.13 90.91 77.41 90.91 75.66 83.92 175.2 83.92 177.13 90.91"/><path class="cls-12" d="M79.77,87.08a.66.66,0,0,1,.66-.87,1.19,1.19,0,0,1,1.09.87.67.67,0,0,1-.66.88A1.2,1.2,0,0,1,79.77,87.08Z"/><path class="cls-12" d="M82.68,87.08a.66.66,0,0,1,.65-.87,1.19,1.19,0,0,1,1.09.87.66.66,0,0,1-.65.88A1.19,1.19,0,0,1,82.68,87.08Z"/><path class="cls-12" d="M85.8,87.08a.66.66,0,0,1,.66-.87,1.19,1.19,0,0,1,1.09.87.67.67,0,0,1-.66.88A1.2,1.2,0,0,1,85.8,87.08Z"/><polygon class="cls-13" points="128.44 145.79 91.47 161.94 87.46 145.79 128.44 145.79"/><path class="cls-14" d="M96.29,63.49a4.28,4.28,0,0,0-2.93,3.91v37.69a23.76,23.76,0,0,0,9.8,19.34l22.14,14.19a4.7,4.7,0,0,0,5,0l22.15-14.19a23.79,23.79,0,0,0,9.8-19.34V67.5a4.31,4.31,0,0,0-3.08-4c-26.9-9.21-37.68-9.46-62.83,0Z"/><path class="cls-15" d="M159.12,63.54c-13.1-4.48-22.37-6.84-31.34-7v82.77a4.6,4.6,0,0,0,2.47-.7l22.15-14.19a23.79,23.79,0,0,0,9.8-19.34V67.5a4.31,4.31,0,0,0-3.08-4Z"/><path class="cls-16" d="M130,91.52h-5a8.2,8.2,0,0,1-8.19-8.2v-1A8.2,8.2,0,0,1,125,74.15h5a8.21,8.21,0,0,1,8.2,8.19v1A8.21,8.21,0,0,1,130,91.52Zm-5-14.09a4.92,4.92,0,0,0-4.92,4.91v1A4.92,4.92,0,0,0,125,88.24h5A4.92,4.92,0,0,0,135,83.32v-1A4.91,4.91,0,0,0,130,77.43Z"/><path class="cls-16" d="M114.67,84.76h25.12a5,5,0,0,1,5,5v8.09a16.51,16.51,0,0,1-16.51,16.51h0a17.58,17.58,0,0,1-17.58-17.58V88.69a3.93,3.93,0,0,1,3.93-3.93Z"/><circle class="cls-15" cx="127.78" cy="93.65" r="4.45" transform="translate(-23.8 47.57) rotate(-19.33)"/><path class="cls-15" d="M127.78,95.73h0a1,1,0,0,1,1,1v7.41a1,1,0,0,1-1,1h0a1,1,0,0,1-1-1V96.69A1,1,0,0,1,127.78,95.73Z"/><path class="cls-4" d="M178.32,40.87a1.16,1.16,0,0,0-.8,1.07V52.25a6.5,6.5,0,0,0,2.68,5.29l6.06,3.89a1.27,1.27,0,0,0,1.35,0l6.06-3.89a6.5,6.5,0,0,0,2.69-5.29V42a1.17,1.17,0,0,0-.85-1.08c-7.36-2.52-10.31-2.59-17.19,0Z"/><path class="cls-8" d="M195.51,40.88A27.86,27.86,0,0,0,186.94,39V61.62a1.24,1.24,0,0,0,.67-.19l6.06-3.89a6.5,6.5,0,0,0,2.69-5.29V42a1.17,1.17,0,0,0-.85-1.08Z"/><path class="cls-17" d="M39.83,106.47a.21.21,0,0,1,0,.31.23.23,0,0,1-.32,0,.24.24,0,0,1,0-.32A.22.22,0,0,1,39.83,106.47Z"/><path class="cls-17" d="M39.1,107.21a.21.21,0,0,1,0,.31.22.22,0,0,1-.32,0,.21.21,0,0,1,0-.31A.22.22,0,0,1,39.1,107.21Z"/><path class="cls-17" d="M38,108a.22.22,0,1,1,.32.31.22.22,0,0,1-.32,0A.21.21,0,0,1,38,108Z"/><path class="cls-17" d="M37.61,108.7a.23.23,0,0,1,0,.32.23.23,0,1,1-.32-.32A.23.23,0,0,1,37.61,108.7Z"/><path class="cls-17" d="M36.88,109.44a.22.22,0,0,1,0,.32.21.21,0,0,1-.31,0,.22.22,0,1,1,.31-.32Z"/><path class="cls-17" d="M35.82,110.19a.23.23,0,1,1,0,.32A.23.23,0,0,1,35.82,110.19Z"/><path class="cls-17" d="M35.43,110.91a.23.23,0,1,1-.32,0A.22.22,0,0,1,35.43,110.91Z"/><path class="cls-17" d="M34.7,111.65a.24.24,0,0,1,0,.32.23.23,0,1,1,0-.32Z"/><path class="cls-17" d="M33.64,112.4a.21.21,0,0,1,.31,0,.22.22,0,0,1,0,.32.22.22,0,0,1-.31,0A.22.22,0,0,1,33.64,112.4Z"/><path class="cls-17" d="M33.21,113.15a.22.22,0,0,1,0,.32.23.23,0,1,1-.32-.32A.22.22,0,0,1,33.21,113.15Z"/><path class="cls-17" d="M32.48,113.89a.21.21,0,0,1,0,.31.23.23,0,0,1-.32,0,.23.23,0,1,1,.32-.32Z"/><path class="cls-17" d="M31.42,114.64a.22.22,0,0,1,.32,0,.21.21,0,0,1,0,.31.23.23,0,0,1-.32,0A.22.22,0,0,1,31.42,114.64Z"/><circle class="cls-18" cx="45.11" cy="101.5" r="4.9" transform="translate(-62.37 129.51) rotate(-80.64)"/><path class="cls-19" d="M43.54,99.53a1.58,1.58,0,1,1,1.57,1.57A1.57,1.57,0,0,1,43.54,99.53Z"/><path class="cls-19" d="M45.11,101.1a2.76,2.76,0,0,0-2.75,2.76h5.51A2.76,2.76,0,0,0,45.11,101.1Z"/><path class="cls-18" d="M27.36,116.63l-.18-.45a1.3,1.3,0,0,0-1.19-.8H22.64v11.21H36.51v-9.08H28.66A1.4,1.4,0,0,1,27.36,116.63Z"/><path class="cls-19" d="M31.65,120.5h-.46a1.79,1.79,0,0,0,0-.23v-.16a1.34,1.34,0,0,0-1.33-1.33h-.81a1.34,1.34,0,0,0-1.33,1.33v.16a1.79,1.79,0,0,0,0,.23h-.51a.49.49,0,0,0-.49.49v2.12a2.18,2.18,0,0,0,2.18,2.18h1.29a2,2,0,0,0,2-2v-2.13A.62.62,0,0,0,31.65,120.5Zm-2,2.14v1a.15.15,0,0,1-.15.15.16.16,0,0,1-.16-.15v-1a.73.73,0,1,1,.31,0Zm1-2.37a.59.59,0,0,1,0,.23H28.31a.85.85,0,0,1,0-.23v-.16a.8.8,0,0,1,.8-.8h.81a.8.8,0,0,1,.8.8Z"/><path class="cls-20" d="M68,115.76a2.62,2.62,0,0,0-2.93-2.85,3.75,3.75,0,0,1,1.46.78,3.77,3.77,0,0,0-4.24.64c-2.22,1.84-.84,6.44-1.51,7.31s-3.3,1-3,3.87,8.32,6.37,7.81,8.7c0,0,3.13-4.6.89-6.71a4.16,4.16,0,0,1,1.2,2.26s.3-2.39-1.22-3.16A5.59,5.59,0,0,1,64.15,123C64.27,122.57,68,115.76,68,115.76Z"/><path class="cls-21" d="M64.86,129.46s2.38,9.86,4.72,11.83c1.4,1.18,5.58,3.9,5.58,3.9l-1.74.63s-5.79-2-7.09-3.48-4.85-9.18-4.85-9.18Z"/><path class="cls-14" d="M78.61,148.79l-.56-1.39a3.94,3.94,0,0,0-3.65-2.46H64.08v34.53H106.8v-28H82.62A4.32,4.32,0,0,1,78.61,148.79Z"/><path class="cls-22" d="M42.47,146.77l.06.12c.52.91,1.72,3.13,3,5.56.62,1.15,1.27,2.35,1.89,3.48,1.07,1.95,2,3.68,2.6,4.6s1,1.59,1.17,1.85h0a.41.41,0,0,1,0,.27,14.17,14.17,0,0,0,0,2.44,18.71,18.71,0,0,0,6.12,12.14l1.59.24s-2.24-8.31-2.9-13A8.48,8.48,0,0,1,56,162.6a19.35,19.35,0,0,0-.51-5.08,112.27,112.27,0,0,0-3.24-11.77c-.07-.23-2.3-8.29-2.3-8.29-1.87,1.63-8.69,2.31-8.69,2.31S40.11,142.58,42.47,146.77Z"/><path class="cls-23" d="M62.36,179.47H55.75a3.58,3.58,0,0,1,.19-1.77c.33-.73.8-.76.06-1.91a4,4,0,0,0,2.72.48A8.28,8.28,0,0,0,59.87,178C60.3,178.33,62.23,178.22,62.36,179.47Z"/><path class="cls-23" d="M42.47,146.77l.06.12c.52.91,3.34,6.11,4.66,8.54a35.07,35.07,0,0,1-.46-12.56Z"/><path class="cls-20" d="M67.09,115.36a26,26,0,0,0-4,1.94c-1.79,2-1.28,4.58-.25,4.61.65,0,.53,1.11.53,1.11l7.32-3.1S69.84,114.77,67.09,115.36Z"/><path class="cls-10" d="M64.63,128a9.37,9.37,0,0,1,1,4,7,7,0,0,1-4.83,2.65S63.77,128,64.63,128Z"/><path class="cls-22" d="M47.62,140.26l0-1.24c-2.47.31-8.5-2.94-8.5-2.94s-2.58,1.71-2.93,6.61c-.18,2.39-1.27,12.5-1.39,15.52,0,1.09,0,1.87-.06,2.19h0a.46.46,0,0,1-.1.25,14.14,14.14,0,0,0-1.34,2c-3.76,7-1.79,16.51-1.79,16.51l.87-.23s3.18-9.85,5.26-14.12a8.9,8.9,0,0,1,.94-1.61,19.81,19.81,0,0,0,2.42-4.5C42.56,155.09,47.62,140.26,47.62,140.26Z"/><path class="cls-23" d="M36.8,179.47H30.18a3.58,3.58,0,0,1,.19-1.77c.33-.73.85-1.07.72-2a2.37,2.37,0,0,0,2.07.79A7,7,0,0,0,34.3,178C34.74,178.33,36.66,178.22,36.8,179.47Z"/><path class="cls-10" d="M60.33,136.09c-.89.16.15.86-1.08,1a22.43,22.43,0,0,0-4.47.69,1.05,1.05,0,0,0-.65.52c-.4,1.23-3,3.33-3,3.33C39.63,141.11,38.89,136,38.89,136c7.47-7.26,13.83-11.22,19.08-11.71a9.38,9.38,0,0,1,3.82.4c1.83.82,2.84,3.31,2.84,3.31S63.71,135.52,60.33,136.09Z"/><path class="cls-24" d="M59.25,137.09a22.43,22.43,0,0,0-4.47.69,18.3,18.3,0,0,1,2.32-10.06S58.87,134.91,59.25,137.09Z"/><path class="cls-21" d="M60.75,126.74s-4.37-.24-5.15,2.51,1.46,13.71,1.94,14.84c.88,2.06,5.3,8.19,5.3,8.19l1.42-.73s-2.85-9-3.48-9.87C59.78,140.28,62.06,127.94,60.75,126.74Z"/><path class="cls-21" d="M64.26,151.55a6.53,6.53,0,0,1,.66.67c.29.36,0,.49.88,2.12,0,0,0,.23-.23.19s-.82-.68-1.15-.63c0,0-.23.19-.26.83a13.81,13.81,0,0,1-.13,2.16c-.1.25-.86-1-1.23-2a12.58,12.58,0,0,1,0-3.56Z"/><path class="cls-10" d="M54.74,132.92c0,.07,4.14.76,6.72-.55,0,0,2.16-6.75-.92-6.43s-4.91,1.29-5,2.77A28.8,28.8,0,0,1,54.74,132.92Z"/><path class="cls-21" d="M61.69,125.15a2.71,2.71,0,0,0,.83,1.92c.55.56,1.34,1,1.89.45a6.49,6.49,0,0,0,.87-1c.48-.83,1-1.67,1-1.67l-2.48-2.17-.14-.13a6.25,6.25,0,0,1-1.85,2.09A.58.58,0,0,0,61.69,125.15Z"/><path class="cls-25" d="M66.33,124.81s-.57.84-1,1.67c-1.54-1-1.54-2.85-1.43-3.84Z"/><path class="cls-21" d="M66.4,125.9s-3.74-2.08-2.41-4.39,1.75-4.13,4.19-2.9,2.39,2.38,2.13,3.25S67.4,126.38,66.4,125.9Z"/><path class="cls-20" d="M70.94,120.52c-.17-1-.69-1.12-1-1a3,3,0,0,0-3.63-1.4,5.06,5.06,0,0,1-3,1.77,3.56,3.56,0,0,0,2.22,1.31,3.07,3.07,0,0,0,1.76-.14,9.75,9.75,0,0,1-2.53.95c2.35.22,4.59-1.93,4.82-2.16a3.37,3.37,0,0,1,.19,1.54c-.15.69-.77,2-.39,2.11C69.38,123.45,71.2,122.05,70.94,120.52Z"/><path class="cls-21" d="M75.84,145.19s-1,.78-.25,1.3,2.19.64,2.19.31C77.8,145.67,77.24,144.87,75.84,145.19Z"/><path class="cls-16" d="M91.59,160.66H90.24a3.71,3.71,0,0,0,.06-.67v-.46a3.85,3.85,0,0,0-3.85-3.85H84.09a3.86,3.86,0,0,0-3.85,3.85V160a3.71,3.71,0,0,0,.06.67H78.8a1.42,1.42,0,0,0-1.41,1.42v6.18a6.33,6.33,0,0,0,6.33,6.33h3.73a6,6,0,0,0,6-6v-6.16A1.82,1.82,0,0,0,91.59,160.66Zm-5.74,6.22v2.87a.46.46,0,0,1-.91,0v-2.87a2.09,2.09,0,1,1,.91,0ZM88.76,160a2.13,2.13,0,0,1-.1.67H81.88a2.13,2.13,0,0,1-.1-.67v-.46a2.31,2.31,0,0,1,2.31-2.31h2.36a2.31,2.31,0,0,1,2.31,2.31Z"/><path class="cls-14" d="M249.67,179.53H197.81c-7.23-8.31-6.93-18.42,2.94-27.6a18.58,18.58,0,0,1,7.35-4,67.83,67.83,0,0,1,9.86-1.38s5.8-.81,7.45-2.81c5.12-6.24,6.44-7.13,6.44-7.13,5.23-1,9.68-1.32,13,.53h0c3.06,1.71,5.14,5.27,5.91,11.81.15,1.24.25,2.58.3,4a111.16,111.16,0,0,0,1.85,14h0C253.79,172.78,254.42,177.19,249.67,179.53Z"/><path class="cls-26" d="M242.25,143.75c-3.17,1.73-3.52,7.41-8.49,8.88s-13.38,1.34-18.15,6.52c-4.61,5-9.69-7.72-7.51-11.3a66.36,66.36,0,0,1,9.86-1.36s7.08,0,8.73-2c5.12-6.2,5.16-7.86,5.16-7.86,5.23-1,9.68-1.32,13,.52h0C248.47,140.87,245.42,142,242.25,143.75Z"/><path class="cls-26" d="M252.89,166.85c-7.27-9.08-22.22,3.3-26.09,3-3.55-.32,6.94-12.73,19.95-14.58,5.25-.75,4-6.18,4-6.35q.22,1.84.3,4A110.35,110.35,0,0,0,252.89,166.85Z"/><path class="cls-21" d="M212.32,171.79a15.61,15.61,0,0,0-.78,3.4,9,9,0,0,1-3,2.59c-.58-.27,0-1.28.33-2a.59.59,0,0,1,0-.08c.35-.75,0-2.42.23-3.29a9.59,9.59,0,0,0-.69-3.18l1.47-1.86s1,2,1.78,2.33a1.69,1.69,0,0,1,.36.23A1.43,1.43,0,0,1,212.32,171.79Z"/><path class="cls-27" d="M232.06,122.32a6.23,6.23,0,0,0-3.78,1.74,8.15,8.15,0,0,0-1.82,2.49c-1,2.22-.63,4.8-1.19,6.22s-.89,1.66,0,2.3,1,1.25,0,1.93-1.85,2.8,1.11,3,8.71-.89,9.45-1.44,2.75-1.36,3.72-2.83c1.93-2.93.39-4.9-1.1-5.39C236.16,129.56,237,121.9,232.06,122.32Z"/><path class="cls-10" d="M228.17,134.59s-2.94,6.63-3.55,7.21-3.48,1.7-3.22,2.67,2.41,1.9,3.31,1.68S227.9,142,227.9,142Z"/><path class="cls-24" d="M221.64,145.05s.15-1.14,2.94-1.51c1.54-.2,4.13-4.51,4.13-4.51l-2.59,6.79-2.5,1.09Z"/><path class="cls-23" d="M222.77,147.19s-14.5-1-16.49,1.29c-1.57,1.83,1.3,21.77,1.3,21.77s3.94.12,4.25-.93c0,0-.73-9.68-.12-11.36a9.26,9.26,0,0,0,.23-4s7.72,1.16,10.17.57S222.77,147.19,222.77,147.19Z"/><path class="cls-21" d="M207.14,177.54a15,15,0,0,0-2.78,2.09,9,9,0,0,1-4,0c-.28-.6.9-1,1.65-1.37h0c.75-.37,1.58-1.8,2.26-2.34a9.46,9.46,0,0,0,1.53-2.88l2.32-.47a7.43,7.43,0,0,0-.14,2.93,1.8,1.8,0,0,1,.08.21A1.44,1.44,0,0,1,207.14,177.54Z"/><path class="cls-28" d="M229.14,147.9s-15.82,1.61-17.21,3.22-6.85,22.61-6.85,22.61a3.39,3.39,0,0,0,3.08.06s4.18-7.12,6-9.35,2.51-8.08,3.5-8.71c.27-.17,9.57.88,13-1.74S229.14,147.9,229.14,147.9Z"/><path class="cls-10" d="M236,147.93a18.94,18.94,0,0,1-1.32,2.17,7.26,7.26,0,0,1-4,3.15c-2.16.45-9.4-3.75-9-6.07.2-1.26,4.22-3.53,4.87-4.44s1-5.5,1.38-7.37c.26-1.4,1.12-1.54,2.2-1.91a10.69,10.69,0,0,1,7.85.09C240.05,134.73,238.88,142.49,236,147.93Z"/><path class="cls-27" d="M235.82,128.78a21.24,21.24,0,0,0,.34-2.33c.07-.86-1.23-3.65-3.25-3.53a4.21,4.21,0,0,0-1.71.83c-.64.53-1.53,1.61-.17,4.24l.37.89Z"/><path class="cls-21" d="M231.72,133.29c.06.48.49.76,1.44.69s2.33-.64,2.21-1.08a13.13,13.13,0,0,1-.7-3.63l-.17,0-2.94.83s.14.93.21,1.82S231.68,133.05,231.72,133.29Z"/><path class="cls-29" d="M231.56,130.15s.14.93.21,1.82c1.67-.18,2.43-1.77,2.73-2.65Z"/><path class="cls-21" d="M231.49,131.51s3.85-1,3.21-3.35-.57-4.12-3-3.6-2.72,1.55-2.7,2.4S230.48,131.7,231.49,131.51Z"/><path class="cls-27" d="M229.89,125a5.38,5.38,0,0,0,3.72,2.72,2.14,2.14,0,0,1,1.82,1.1,22.26,22.26,0,0,0-1.15-4.33S230.32,123.42,229.89,125Z"/><path class="cls-27" d="M230.33,125.29a6.61,6.61,0,0,0-1.11,1.47c-.38.89.37,2.78.68,3.19,0,0-1.79-3-1.19-4.35A.91.91,0,0,1,230.33,125.29Z"/><path class="cls-21" d="M218.6,147.43s-.77.81-.86.86a5.65,5.65,0,0,1-1.45.17c-.31.08-.26-.11,0-.27s.79-.09.56-.15a6,6,0,0,0-1.94-.16,1.78,1.78,0,0,1-1.36-.11,6.06,6.06,0,0,1,2.18-.9c.49,0,1.91,0,1.91,0Z"/><path class="cls-21" d="M239.25,135s.46,11.28-.87,12.86-6.77.49-9.14,0a.65.65,0,0,0-.53.15c-.19.17-.27-1.13-.27-1.13s7.16-1,7.64-1.18c.7-.2.21-8,.21-8Z"/><path class="cls-21" d="M229,147.73s-.64.65-.89,1a3.84,3.84,0,0,1-2,.76c0-.18.77-.72.84-.92a3.57,3.57,0,0,1,1.48-1.34C229,147.1,229,147.73,229,147.73Z"/><path class="cls-21" d="M228.44,146.9s-2.63.61-3.08.79-1.39,1.53-1,1.73,1.28-.42,1.81-.54,2,.15,2.7-1.2C228.93,147.53,228.44,146.9,228.44,146.9Z"/><path class="cls-28" d="M207.14,177.54a15,15,0,0,0-2.78,2.09,9,9,0,0,1-4,0c-.28-.6.9-1,1.65-1.37h0l.11,0a4.16,4.16,0,0,0,2.67,0c.94-.41,2.34-1.91,3.27-2.52A1.44,1.44,0,0,1,207.14,177.54Z"/><path class="cls-30" d="M212.32,171.79a15.61,15.61,0,0,0-.78,3.4,9,9,0,0,1-3,2.59c-.58-.27,0-1.28.33-2a1.56,1.56,0,0,0,.81-.3,5.86,5.86,0,0,0,1.9-3.11c.08-.8,0-2,.48-2.44A1.43,1.43,0,0,1,212.32,171.79Z"/><polygon class="cls-31" points="225.05 149.76 213.59 149.76 210.14 141.19 221.58 141.19 225.05 149.76"/><polygon class="cls-26" points="213.45 149.43 228.59 149.43 228.59 149.76 213.59 149.76 213.45 149.43"/><path class="cls-32" d="M216.48,145.47a.39.39,0,0,1,.39-.54.78.78,0,0,1,.7.54.4.4,0,0,1-.39.55A.79.79,0,0,1,216.48,145.47Z"/><path class="cls-24" d="M236,147.93a18.94,18.94,0,0,1-1.32,2.17c-3.68-.14-4.56-1.62-4.56-1.62Z"/><path class="cls-24" d="M230.33,146.53s4.19-1,4.71-1.87,1.25-6.9,1.25-6.9L238,140l-.35,5.28a19.59,19.59,0,0,1-2.13,1.9C235.44,147.11,230.33,146.53,230.33,146.53Z"/><path class="cls-10" d="M238,133.55a3.76,3.76,0,0,1,1.38,1.2c.73,1.33,1.51,11.66-.57,13.36s-8.08,1.37-8.79.16a3.54,3.54,0,0,1,.36-1.74s5.41-.72,5.65-1.06-.17-7.65.08-8.32S238,133.55,238,133.55Z"/><path class="cls-14" d="M238.85,148s-1.56,1.46-8.1,1.67c-5.11.17-10.5,2.23-13,5.77a10.19,10.19,0,0,0-1.37,3.71c-.34,2,12.41,5.14,12.62,4.85s8.4-7.34,8.4-7.34Z"/><path class="cls-26" d="M179.72,107.62s6.36,6.6,6.66,9.08-3,6.35-3,6.35Z"/><path class="cls-33" d="M176.85,176s-.22,3.5-.9,3.55h-3.43l-4.27,0a1.39,1.39,0,0,1,1.28-1.24c1.25-.21,3.34-1.09,4.1-2.73S176.85,176,176.85,176Z"/><path class="cls-33" d="M186.35,176s-.22,3.5-.9,3.55H182l-4.27,0a1.39,1.39,0,0,1,1.28-1.24c1.25-.21,3.34-1.09,4.1-2.73S186.35,176,186.35,176Z"/><path class="cls-27" d="M172.21,138.35a141.14,141.14,0,0,0,5.23,19.82c4.14,12.68,4.69,18.16,4.69,18.16l4.47-.11s.07-13.85-1.84-20.22-.36-23-.36-23Z"/><path class="cls-34" d="M170.05,133.39a171.65,171.65,0,0,0,1.65,24c1.83,13.21,1.19,18.81,1.19,18.81l4.45.16s2.69-13.2,1.94-19.81,3.7-22.67,3.7-22.67Z"/><path class="cls-21" d="M178.73,108.24l-2.38,1.55-3.43-.64c.05-.28.28-1.43.49-2.47l0-.18c.18-.88.34-1.64.34-1.64l3.2-1.41,1.2-.52s-.1,1-.11,1.12A8.13,8.13,0,0,0,178.73,108.24Z"/><path class="cls-26" d="M173.8,107.45a29.45,29.45,0,0,1,4.58-1.08c.44.15.7,1,.7,1l-6.65,1.49A3.24,3.24,0,0,1,173.8,107.45Z"/><path class="cls-14" d="M184.69,134.75c-.69,3.14-12.17,3.49-15.12.63-.33-.33-.34-1.84-.21-3.88.25-4,1.06-10,1.1-13a24.76,24.76,0,0,1,.5-4.37,34.57,34.57,0,0,1,1.47-5.22s5.6-1.8,6.65-1.49C184.13,108.87,185.39,131.61,184.69,134.75Z"/><path class="cls-26" d="M169.36,131.5c.25-4,1.06-10,1.1-13a24.76,24.76,0,0,1,.5-4.37l3.37-.59S177.6,127,169.36,131.5Z"/><path class="cls-21" d="M171.19,126a.78.78,0,0,1-.25.91,1.56,1.56,0,0,0-.69,1.41c.11.43,1.17,1.15,1.53,1s1.12-.68,1-.92.51-2-.39-2.71A.72.72,0,0,0,171.19,126Z"/><path class="cls-14" d="M175,108.06a10.19,10.19,0,0,0-5.91,4.47c-2.63,3.85-4.36,6.71-3.88,8.11s4.87,6.22,5.62,6.22a2,2,0,0,0,2.06-1.78s-3.09-4.65-2.48-5.34c.26-.3,4-3.34,4.56-2C175.86,120.06,175,108.06,175,108.06Z"/><path class="cls-35" d="M177.83,104.09c-.71,1.19-3.33,2.22-4.42,2.59l0-.18c.18-.88.34-1.64.34-1.64l3.2-1.41C177.69,103.44,178.12,103.6,177.83,104.09Z"/><path class="cls-21" d="M172.57,104.66s5.16,1.62,6.12-1.61,2.27-5.19-1-6.36-4.27-.13-4.85.87S171.25,104.15,172.57,104.66Z"/><path class="cls-27" d="M173.07,97.24s.32,3.76,1.09,3.6,1.49-.28,1.37.86-1.2,2.43,1.2,2.64,5.85-6,5.2-7.14C180,93.82,170.33,93.12,173.07,97.24Z"/><path class="cls-17" d="M214.69,87.48a.25.25,0,0,0,0,.35.25.25,0,1,0,0-.35Z"/><path class="cls-17" d="M215.49,88.29a.24.24,0,1,0,.34,0A.23.23,0,0,0,215.49,88.29Z"/><path class="cls-17" d="M216.64,89.1a.25.25,0,0,0-.34,0,.25.25,0,0,0,0,.35.26.26,0,0,0,.35,0A.24.24,0,0,0,216.64,89.1Z"/><path class="cls-17" d="M217.1,89.92a.25.25,0,0,0,0,.34.24.24,0,1,0,.35-.34A.24.24,0,0,0,217.1,89.92Z"/><path class="cls-17" d="M217.9,90.72a.25.25,0,1,0,.35.35.25.25,0,0,0-.35-.35Z"/><path class="cls-17" d="M219.06,91.54a.24.24,0,0,0-.35,0,.23.23,0,0,0,0,.34.24.24,0,0,0,.34,0A.25.25,0,0,0,219.06,91.54Z"/><path class="cls-17" d="M219.48,92.32a.25.25,0,1,0,.35.35.24.24,0,0,0,0-.35A.26.26,0,0,0,219.48,92.32Z"/><path class="cls-17" d="M220.28,93.12a.26.26,0,0,0,0,.35.24.24,0,0,0,.35,0,.25.25,0,0,0,0-.34A.25.25,0,0,0,220.28,93.12Z"/><path class="cls-17" d="M221.44,93.94a.26.26,0,0,0-.35,0,.24.24,0,0,0,0,.35.25.25,0,0,0,.34,0A.25.25,0,0,0,221.44,93.94Z"/><path class="cls-17" d="M221.9,94.76a.24.24,0,1,0,.34,0A.23.23,0,0,0,221.9,94.76Z"/><path class="cls-17" d="M222.69,95.56a.25.25,0,0,0,.35.35.24.24,0,0,0,0-.35A.26.26,0,0,0,222.69,95.56Z"/><path class="cls-17" d="M223.85,96.38a.24.24,0,0,0-.35,0,.25.25,0,0,0,0,.34.24.24,0,0,0,.35,0A.25.25,0,0,0,223.85,96.38Z"/><path class="cls-17" d="M205,90a.24.24,0,1,0,.18.29A.24.24,0,0,0,205,90Z"/><path class="cls-17" d="M204.74,91.07a.25.25,0,1,0-.11.48.25.25,0,0,0,.11-.48Z"/><path class="cls-17" d="M204.66,92.48a.24.24,0,0,0-.47-.11.25.25,0,0,0,.18.3A.25.25,0,0,0,204.66,92.48Z"/><path class="cls-17" d="M204.22,93.31a.24.24,0,0,0-.11.47.26.26,0,0,0,.3-.18A.25.25,0,0,0,204.22,93.31Z"/><path class="cls-17" d="M204,94.41a.25.25,0,1,0-.11.48.25.25,0,0,0,.11-.48Z"/><path class="cls-17" d="M203.89,95.82a.24.24,0,1,0-.47-.11.24.24,0,1,0,.47.11Z"/><path class="cls-17" d="M203.46,96.6a.25.25,0,0,0-.29.19.24.24,0,0,0,.18.29.25.25,0,0,0,.3-.18A.26.26,0,0,0,203.46,96.6Z"/><path class="cls-17" d="M203.21,97.71a.24.24,0,0,0-.29.18.23.23,0,0,0,.18.29.24.24,0,1,0,.11-.47Z"/><path class="cls-17" d="M203.13,99.12a.23.23,0,0,0-.18-.29.24.24,0,1,0,.18.29Z"/><path class="cls-17" d="M202.69,99.94a.25.25,0,0,0-.29.19.24.24,0,0,0,.18.29.25.25,0,0,0,.3-.18A.25.25,0,0,0,202.69,99.94Z"/><path class="cls-17" d="M202.44,101.05a.24.24,0,0,0-.29.18.25.25,0,0,0,.18.3.25.25,0,0,0,.29-.19A.24.24,0,0,0,202.44,101.05Z"/><path class="cls-17" d="M202.37,102.46a.25.25,0,0,0-.19-.29.24.24,0,0,0-.11.47A.25.25,0,0,0,202.37,102.46Z"/><path class="cls-18" d="M214.28,82.07a5.34,5.34,0,1,0-5.34,5.34A5.34,5.34,0,0,0,214.28,82.07Z"/><path class="cls-19" d="M210.65,79.93a1.72,1.72,0,1,0-1.71,1.71A1.71,1.71,0,0,0,210.65,79.93Z"/><path class="cls-19" d="M208.94,81.64a3,3,0,0,1,3,3h-6A3,3,0,0,1,208.94,81.64Z"/><path class="cls-18" d="M222,98.55l-.2-.49a1.38,1.38,0,0,0-1.29-.87h-3.65v12.2h15.1V99.5h-8.54A1.51,1.51,0,0,1,222,98.55Z"/><path class="cls-19" d="M226.62,102.76h-.5a2.11,2.11,0,0,0,0-.25v-.17a1.45,1.45,0,0,0-1.44-1.45h-.89a1.44,1.44,0,0,0-1.44,1.45v.17a2.11,2.11,0,0,0,0,.25h-.56a.53.53,0,0,0-.53.53v2.32a2.37,2.37,0,0,0,2.37,2.37h1.4a2.23,2.23,0,0,0,2.23-2.23v-2.31A.67.67,0,0,0,226.62,102.76Zm-2.15,2.33v1.08a.17.17,0,0,1-.34,0v-1.08a.78.78,0,1,1,.34,0Zm1.09-2.58a.69.69,0,0,1,0,.25H223a1,1,0,0,1,0-.25v-.17a.87.87,0,0,1,.87-.87h.89a.87.87,0,0,1,.86.87Z"/><path class="cls-18" d="M196.42,110c0,2.73,4.61,7.7,4.61,7.7s4.62-5,4.62-7.7a4.63,4.63,0,1,0-9.23,0Zm1.93-.5a2.68,2.68,0,1,1,2.68,2.68A2.68,2.68,0,0,1,198.35,109.54Z"/><rect class="cls-23" y="179.42" width="270" height="0.78" rx="0.39"/><path class="cls-14" d="M89.75,108.1c-.11-.47.09-.84.53-.84a1,1,0,0,1,.93.84c.11.47-.09.84-.53.84A1,1,0,0,1,89.75,108.1Zm1.09,0c-.07-.3-.27-.52-.49-.52s-.3.22-.23.52.27.51.49.51S90.91,108.4,90.84,108.1Z"/><path class="cls-22" d="M83.45,95.89l-.27.07L83,95.67l.44-.14h.24l.4,1.64h-.36Z"/><path class="cls-22" d="M84.73,96.35c-.12-.47.09-.84.52-.84a1,1,0,0,1,.93.84c.12.47-.09.84-.52.84A1,1,0,0,1,84.73,96.35Zm1.08,0c-.07-.29-.27-.52-.48-.52s-.31.22-.23.52.26.52.48.52S85.89,96.65,85.81,96.35Z"/><path class="cls-22" d="M92.41,119c-.11-.47.1-.84.53-.84a1,1,0,0,1,.93.84c.12.47-.09.84-.53.84A1,1,0,0,1,92.41,119Zm1.09,0c-.07-.3-.27-.52-.48-.52s-.31.22-.23.52.26.52.48.52S93.58,119.25,93.5,119Z"/><path class="cls-22" d="M85.3,103.54l-.27.07-.15-.3.44-.14h.24l.4,1.64H85.6Z"/><path class="cls-22" d="M86.58,104c-.12-.48.09-.85.52-.85A1,1,0,0,1,88,104c.12.47-.09.84-.52.84A1,1,0,0,1,86.58,104Zm1.08,0c-.07-.29-.27-.51-.48-.51s-.31.21-.23.51.26.52.48.52S87.74,104.29,87.66,104Z"/><path class="cls-14" d="M86.36,99.69l-.27.07L86,99.47l.43-.14h.25L87,101h-.36Z"/><path class="cls-14" d="M87.64,100.15c-.11-.47.09-.84.53-.84a1,1,0,0,1,.93.84c.11.47-.09.84-.53.84A1,1,0,0,1,87.64,100.15Zm1.09,0c-.07-.3-.27-.52-.49-.52s-.3.22-.23.52.27.52.49.52S88.8,100.45,88.73,100.15Z"/><path class="cls-22" d="M86.29,107.64l-.27.07-.14-.29.43-.14h.25l.4,1.64H86.6Z"/><path class="cls-22" d="M87.57,108.1c-.11-.47.09-.84.53-.84a1,1,0,0,1,.93.84c.11.47-.09.84-.53.84A1,1,0,0,1,87.57,108.1Zm1.09,0c-.07-.29-.27-.52-.49-.52s-.3.22-.23.52.27.52.49.52S88.73,108.4,88.66,108.1Z"/><path class="cls-14" d="M90.91,96.35c-.11-.47.1-.84.53-.84a1,1,0,0,1,.93.84c.12.47-.09.84-.53.84A1,1,0,0,1,90.91,96.35Zm1.09,0c-.07-.3-.27-.52-.48-.52s-.31.22-.24.52.27.52.49.52S92.07,96.65,92,96.35Z"/><path class="cls-22" d="M87.45,95.9l-.27.07-.14-.3.43-.14h.25l.4,1.64h-.36Z"/><path class="cls-22" d="M88.73,96.35c-.11-.47.09-.84.53-.84a1,1,0,0,1,.93.84c.12.47-.09.84-.53.84A1,1,0,0,1,88.73,96.35Zm1.09,0c-.07-.29-.27-.51-.49-.51s-.3.21-.23.51.27.52.49.52S89.89,96.65,89.82,96.35Z"/><path class="cls-14" d="M91.65,116c-.11-.47.09-.84.53-.84a1,1,0,0,1,.93.84c.11.47-.09.84-.53.84A1,1,0,0,1,91.65,116Zm1.09,0c-.07-.3-.27-.52-.49-.52s-.3.22-.23.52.27.52.49.52S92.81,116.33,92.74,116Z"/><path class="cls-22" d="M87.2,111.47l-.27.07-.15-.29.44-.14h.24l.4,1.63H87.5Z"/><path class="cls-22" d="M88.48,111.93c-.12-.47.09-.84.52-.84a1,1,0,0,1,.93.84c.12.47-.09.84-.52.84A1,1,0,0,1,88.48,111.93Zm1.08,0c-.07-.3-.27-.52-.48-.52s-.31.22-.23.52.26.51.48.51S89.64,112.23,89.56,111.93Z"/><path class="cls-22" d="M90.66,111.92c-.12-.47.09-.84.53-.84a1,1,0,0,1,.93.84c.11.47-.09.84-.53.84A1,1,0,0,1,90.66,111.92Zm1.09,0c-.08-.29-.28-.51-.49-.51s-.31.21-.23.51.27.52.48.52S91.82,112.22,91.75,111.92Z"/><path class="cls-22" d="M93,111.46l-.27.07-.15-.29.44-.14h.24l.4,1.63h-.36Z"/><path class="cls-22" d="M88.19,115.58l-.27.07-.15-.3.44-.14h.25l.39,1.64H88.5Z"/><path class="cls-22" d="M89.47,116c-.11-.47.09-.84.53-.84a1,1,0,0,1,.93.84c.11.47-.09.84-.53.84A1,1,0,0,1,89.47,116Zm1.09,0c-.07-.29-.27-.51-.49-.51s-.3.21-.23.51.27.52.49.52S90.63,116.33,90.56,116Z"/><path class="cls-22" d="M93.58,125.14c-.11-.47.09-.84.53-.84a1,1,0,0,1,.93.83c.11.48-.09.84-.53.85A1,1,0,0,1,93.58,125.14Zm1.09,0c-.07-.3-.27-.52-.49-.52s-.3.21-.23.52.27.51.49.51S94.74,125.43,94.67,125.14Z"/><path class="cls-22" d="M95.93,124.67l-.27.07-.15-.29.44-.14h.25l.39,1.63h-.35Z"/><path class="cls-22" d="M90.12,124.68l-.27.07-.15-.29.44-.14h.25l.39,1.63h-.35Z"/><path class="cls-22" d="M91.4,125.14c-.12-.47.09-.84.53-.84a1,1,0,0,1,.93.84c.11.47-.09.84-.53.84A1,1,0,0,1,91.4,125.14Zm1.09,0c-.07-.3-.27-.52-.49-.52s-.3.22-.23.52.27.52.49.52S92.56,125.44,92.49,125.14Z"/><path class="cls-14" d="M97.21,125.13c-.11-.47.09-.84.53-.84a1,1,0,0,1,.93.84c.11.47-.09.84-.53.84A1,1,0,0,1,97.21,125.13Zm1.09,0c-.07-.3-.27-.52-.49-.52s-.3.22-.23.52.27.52.49.52S98.37,125.43,98.3,125.13Z"/><path class="cls-14" d="M99.39,125.13c-.11-.47.09-.84.53-.84a1,1,0,0,1,.93.83c.11.48-.09.85-.53.85A1,1,0,0,1,99.39,125.13Zm1.09,0c-.07-.3-.27-.52-.49-.52s-.3.21-.23.52.27.51.49.51S100.55,125.42,100.48,125.13Z"/><path class="cls-22" d="M90.88,128.07c-.11-.47.1-.84.53-.84a1,1,0,0,1,.93.83c.12.47-.09.84-.52.84A1,1,0,0,1,90.88,128.07Zm1.09,0c-.07-.29-.27-.51-.48-.51s-.31.21-.23.52.26.51.48.51S92.05,128.36,92,128.06Z"/><path class="cls-22" d="M93.23,127.6l-.27.07-.14-.29.44-.14h.24l.4,1.63h-.36Z"/><path class="cls-22" d="M94.51,128.06c-.11-.47.1-.84.53-.84a1,1,0,0,1,.93.84c.12.47-.09.84-.53.84A1,1,0,0,1,94.51,128.06Zm1.09,0c-.07-.3-.27-.52-.48-.52s-.31.22-.24.52.27.52.49.52S95.67,128.36,95.6,128.06Z"/><path class="cls-22" d="M96.7,128.06c-.12-.47.09-.84.52-.84a1,1,0,0,1,.93.83c.12.47-.09.84-.52.84A1,1,0,0,1,96.7,128.06Zm1.08,0c-.07-.29-.27-.51-.48-.51s-.31.21-.23.52.26.51.48.51S97.86,128.35,97.78,128.05Z"/><path class="cls-22" d="M159.58,125.14c-.12-.47.09-.84.52-.84a1,1,0,0,1,.93.83c.12.48-.09.84-.52.85A1,1,0,0,1,159.58,125.14Zm1.08,0c-.07-.3-.27-.52-.48-.52s-.31.21-.23.52.26.51.48.51S160.74,125.43,160.66,125.14Z"/><path class="cls-22" d="M161.92,124.67l-.27.07-.14-.29.44-.14h.24l.4,1.63h-.36Z"/><path class="cls-22" d="M156.11,124.68l-.27.07-.14-.29.44-.14h.24l.4,1.63h-.36Z"/><path class="cls-22" d="M157.39,125.14c-.11-.47.1-.84.53-.84a1,1,0,0,1,.93.84c.12.47-.09.84-.53.84A1,1,0,0,1,157.39,125.14Zm1.09,0c-.07-.3-.27-.52-.48-.52s-.31.22-.24.52.27.52.49.52S158.55,125.44,158.48,125.14Z"/><path class="cls-14" d="M163.2,125.13c-.11-.47.1-.84.53-.84a1,1,0,0,1,.93.84c.12.47-.09.84-.53.84A1,1,0,0,1,163.2,125.13Zm1.09,0c-.07-.3-.27-.52-.48-.52s-.31.22-.24.52.27.52.49.52S164.36,125.43,164.29,125.13Z"/><path class="cls-14" d="M165.39,125.13c-.12-.47.09-.84.52-.84a1,1,0,0,1,.93.83c.12.48-.09.85-.52.85A1,1,0,0,1,165.39,125.13Zm1.08,0c-.07-.3-.27-.52-.48-.52s-.31.21-.23.52.26.51.48.51S166.55,125.42,166.47,125.13Z"/><path class="cls-22" d="M150.85,128.07c-.11-.47.09-.84.53-.84a1,1,0,0,1,.93.83c.11.47-.09.84-.53.84A1,1,0,0,1,150.85,128.07Zm1.09,0c-.07-.29-.27-.51-.49-.51s-.3.21-.23.52.27.51.49.51S152,128.36,151.94,128.06Z"/><path class="cls-22" d="M153.2,127.6l-.27.07-.15-.29.44-.14h.25l.39,1.63h-.35Z"/><path class="cls-22" d="M154.48,128.06c-.11-.47.09-.84.53-.84a1,1,0,0,1,.93.84c.11.47-.09.84-.53.84A1,1,0,0,1,154.48,128.06Zm1.09,0c-.07-.3-.27-.52-.49-.52s-.3.22-.23.52.27.52.49.52S155.64,128.36,155.57,128.06Z"/><path class="cls-22" d="M156.66,128.06c-.11-.47.09-.84.53-.84a1,1,0,0,1,.93.83c.11.47-.09.84-.53.84A1,1,0,0,1,156.66,128.06Zm1.09,0c-.07-.29-.27-.51-.49-.51s-.3.21-.23.52.27.51.49.51S157.82,128.35,157.75,128.05Z"/><path class="cls-14" d="M96.35,135.73c-.11-.47.09-.84.53-.84a1,1,0,0,1,.93.84c.11.47-.09.84-.53.84A1,1,0,0,1,96.35,135.73Zm1.09,0c-.07-.29-.27-.52-.49-.52s-.3.22-.23.52.27.52.49.52S97.51,136,97.44,135.73Z"/><path class="cls-14" d="M98.7,135.27l-.27.07-.15-.3.44-.14H99l.39,1.64H99Z"/><path class="cls-22" d="M91.9,131.17l-.27.07-.15-.29.44-.14h.24l.4,1.63H92.2Z"/><path class="cls-22" d="M93.18,131.63c-.12-.47.09-.84.52-.84a1,1,0,0,1,.93.84c.12.47-.09.84-.52.84A1,1,0,0,1,93.18,131.63Zm1.08,0c-.07-.3-.27-.52-.48-.52s-.31.22-.23.52.26.52.48.52S94.34,131.93,94.26,131.63Z"/><path class="cls-22" d="M95.36,131.63c-.12-.48.09-.84.52-.85a1,1,0,0,1,.94.84c.11.47-.09.84-.53.84A1,1,0,0,1,95.36,131.63Zm1.08,0c-.07-.29-.27-.51-.48-.51s-.31.21-.23.51.27.52.48.52S96.52,131.92,96.44,131.62Z"/><path class="cls-22" d="M97.71,131.16l-.27.07-.15-.29.44-.14H98l.4,1.63H98Z"/><path class="cls-22" d="M155.75,131.17l-.27.07-.14-.29.43-.14H156l.4,1.63h-.36Z"/><path class="cls-22" d="M157,131.63c-.11-.47.09-.84.53-.84a1,1,0,0,1,.93.84c.12.47-.09.84-.53.84A1,1,0,0,1,157,131.63Zm1.09,0c-.07-.3-.27-.52-.49-.52s-.3.22-.23.52.27.52.49.52S158.19,131.93,158.12,131.63Z"/><path class="cls-22" d="M159.21,131.63c-.11-.48.1-.84.53-.85a1,1,0,0,1,.93.84c.12.47-.09.84-.53.84A1,1,0,0,1,159.21,131.63Zm1.09,0c-.07-.29-.27-.51-.48-.51s-.31.21-.24.51.27.52.49.52S160.37,131.92,160.3,131.62Z"/><path class="cls-22" d="M161.56,131.16l-.27.07-.14-.29.43-.14h.25l.4,1.63h-.36Z"/><path class="cls-22" d="M92.89,135.28l-.27.07-.15-.3.44-.14h.25l.39,1.64H93.2Z"/><path class="cls-22" d="M94.17,135.74c-.11-.48.09-.84.53-.85a1,1,0,0,1,.93.84c.11.47-.09.84-.53.84A1,1,0,0,1,94.17,135.74Zm1.09,0c-.07-.29-.27-.51-.49-.51s-.3.21-.23.52.27.51.49.51S95.33,136,95.26,135.73Z"/><path class="cls-22" d="M100,135.73c-.11-.47.09-.84.53-.84a1,1,0,0,1,.93.83c.11.47-.09.84-.53.84A1,1,0,0,1,100,135.73Zm1.09,0c-.07-.29-.27-.51-.49-.51s-.3.21-.23.52.27.51.49.51S101.14,136,101.07,135.72Z"/><path class="cls-22" d="M102.16,135.72c-.11-.47.09-.84.53-.84a1,1,0,0,1,.93.84c.11.47-.09.84-.53.84A1,1,0,0,1,102.16,135.72Zm1.09,0c-.07-.29-.27-.52-.49-.52s-.3.22-.23.52.27.52.49.52S103.32,136,103.25,135.72Z"/><path class="cls-14" d="M97.19,138.63c-.11-.47.09-.84.53-.84a1,1,0,0,1,.93.84c.11.47-.09.84-.53.84A1,1,0,0,1,97.19,138.63Zm1.09,0c-.07-.29-.27-.52-.49-.52s-.3.22-.23.52.27.52.49.52S98.35,138.93,98.28,138.63Z"/><path class="cls-14" d="M99.54,138.17l-.27.07-.14-.3.43-.14h.25l.4,1.64h-.36Z"/><path class="cls-22" d="M95,138.64c-.11-.48.09-.84.53-.85a1,1,0,0,1,.93.84c.11.47-.09.84-.53.84A1,1,0,0,1,95,138.64Zm1.09,0c-.07-.29-.27-.51-.49-.51s-.3.21-.23.51.27.52.49.52S96.17,138.93,96.1,138.63Z"/><path class="cls-22" d="M100.82,138.63c-.11-.48.09-.84.53-.85a1,1,0,0,1,.93.84c.11.47-.09.84-.53.84A1,1,0,0,1,100.82,138.63Zm1.09,0c-.07-.29-.27-.51-.49-.51s-.3.21-.23.52.27.51.49.51S102,138.92,101.91,138.62Z"/><path class="cls-22" d="M103,138.62c-.11-.47.09-.84.53-.84a1,1,0,0,1,.93.84c.12.47-.09.84-.53.84A1,1,0,0,1,103,138.62Zm1.09,0c-.07-.29-.27-.52-.49-.52s-.3.22-.23.52.27.52.49.52S104.16,138.92,104.09,138.62Z"/><path class="cls-14" d="M110.51,138.63c-.12-.47.09-.84.53-.84a1,1,0,0,1,.93.84c.11.47-.09.84-.53.84A1,1,0,0,1,110.51,138.63Zm1.09,0c-.07-.29-.27-.52-.49-.52s-.3.22-.23.52.27.52.49.52S111.67,138.93,111.6,138.63Z"/><path class="cls-14" d="M112.86,138.17l-.27.07-.15-.3.44-.14h.25l.39,1.64h-.35Z"/><path class="cls-22" d="M108.33,138.64c-.12-.48.09-.84.53-.85a1,1,0,0,1,.93.84c.11.47-.09.84-.53.84A1,1,0,0,1,108.33,138.64Zm1.08,0c-.07-.29-.27-.51-.48-.51s-.31.21-.23.51.27.52.48.52S109.49,138.93,109.41,138.63Z"/><path class="cls-22" d="M114.14,138.63c-.12-.48.09-.84.53-.85a1,1,0,0,1,.93.84c.11.47-.09.84-.53.84A1,1,0,0,1,114.14,138.63Zm1.09,0c-.08-.29-.28-.51-.49-.51s-.31.21-.23.52.27.51.48.51S115.3,138.92,115.23,138.62Z"/><path class="cls-22" d="M116.32,138.62c-.12-.47.09-.84.53-.84a1,1,0,0,1,.93.84c.11.47-.09.84-.53.84A1,1,0,0,1,116.32,138.62Zm1.09,0c-.07-.29-.27-.52-.49-.52s-.3.22-.23.52.27.52.49.52S117.48,138.92,117.41,138.62Z"/><path class="cls-14" d="M140.82,138.63c-.11-.47.1-.84.53-.84a1,1,0,0,1,.93.84c.12.47-.09.84-.53.84A1,1,0,0,1,140.82,138.63Zm1.09,0c-.07-.29-.27-.52-.48-.52s-.31.22-.24.52.27.52.49.52S142,138.93,141.91,138.63Z"/><path class="cls-14" d="M143.17,138.17l-.27.07-.14-.3.44-.14h.24l.4,1.64h-.36Z"/><path class="cls-22" d="M138.64,138.64c-.11-.48.09-.84.53-.85a1,1,0,0,1,.93.84c.12.47-.09.84-.53.84A1,1,0,0,1,138.64,138.64Zm1.09,0c-.07-.29-.27-.51-.49-.51s-.3.21-.23.51.27.52.49.52S139.8,138.93,139.73,138.63Z"/><path class="cls-22" d="M144.45,138.63c-.11-.48.1-.84.53-.85a1,1,0,0,1,.93.84c.12.47-.09.84-.53.84A1,1,0,0,1,144.45,138.63Zm1.09,0c-.07-.29-.27-.51-.49-.51s-.3.21-.23.52.27.51.49.51S145.61,138.92,145.54,138.62Z"/><path class="cls-22" d="M146.63,138.62c-.11-.47.1-.84.53-.84a1,1,0,0,1,.93.84c.12.47-.09.84-.53.84A1,1,0,0,1,146.63,138.62Zm1.09,0c-.07-.29-.27-.52-.48-.52s-.31.22-.24.52.27.52.49.52S147.8,138.92,147.72,138.62Z"/><path class="cls-14" d="M154.14,138.63c-.11-.47.09-.84.53-.84a1,1,0,0,1,.93.84c.11.47-.09.84-.53.84A1,1,0,0,1,154.14,138.63Zm1.09,0c-.07-.29-.27-.52-.49-.52s-.3.22-.23.52.27.52.49.52S155.3,138.93,155.23,138.63Z"/><path class="cls-14" d="M156.49,138.17l-.27.07-.15-.3.44-.14h.25l.39,1.64h-.35Z"/><path class="cls-22" d="M152,138.64c-.12-.48.09-.84.53-.85a1,1,0,0,1,.93.84c.11.47-.09.84-.53.84A1,1,0,0,1,152,138.64Zm1.09,0c-.07-.29-.27-.51-.49-.51s-.3.21-.23.51.27.52.49.52S153.12,138.93,153.05,138.63Z"/><path class="cls-22" d="M157.77,138.63c-.12-.48.09-.84.53-.85a1,1,0,0,1,.93.84c.11.47-.09.84-.53.84A1,1,0,0,1,157.77,138.63Zm1.09,0c-.07-.29-.27-.51-.49-.51s-.3.21-.23.52.27.51.49.51S158.93,138.92,158.86,138.62Z"/><path class="cls-22" d="M160,138.62c-.11-.47.09-.84.53-.84a1,1,0,0,1,.93.84c.11.47-.09.84-.53.84A1,1,0,0,1,160,138.62Zm1.09,0c-.07-.29-.27-.52-.49-.52s-.3.22-.23.52.27.52.49.52S161.11,138.92,161,138.62Z"/><path class="cls-22" d="M104.34,135.72c-.11-.47.09-.84.53-.84a1,1,0,0,1,.93.84c.12.47-.09.84-.53.84A1,1,0,0,1,104.34,135.72Zm1.09,0c-.07-.3-.27-.52-.49-.52s-.3.22-.23.52.27.52.49.51S105.5,136,105.43,135.72Z"/><path class="cls-22" d="M106.52,135.72c-.11-.48.1-.85.53-.85a1,1,0,0,1,.93.84c.12.47-.09.84-.53.84A1,1,0,0,1,106.52,135.72Zm1.09,0c-.07-.29-.27-.51-.48-.51s-.31.21-.24.51.27.52.49.52S107.68,136,107.61,135.71Z"/><path class="cls-22" d="M146.4,135.72c-.11-.47.09-.84.53-.84a1,1,0,0,1,.93.84c.11.47-.09.84-.53.84A1,1,0,0,1,146.4,135.72Zm1.09,0c-.07-.3-.27-.52-.49-.52s-.3.22-.23.52.27.52.49.51S147.56,136,147.49,135.72Z"/><path class="cls-22" d="M148.58,135.72c-.11-.48.09-.85.53-.85a1,1,0,0,1,.93.84c.12.47-.09.84-.53.84A1,1,0,0,1,148.58,135.72Zm1.09,0c-.07-.29-.27-.51-.49-.51s-.3.21-.23.51.27.52.49.52S149.74,136,149.67,135.71Z"/></svg>