<svg id="_лой_1" data-name="‘лой_1" xmlns="http://www.w3.org/2000/svg" viewBox="0 0 270 180"><defs><style>.cls-1{fill:#ebf3fa;opacity:0.1;}.cls-2{fill:#dfebfd;}.cls-3,.cls-8{fill:#aec3ff;}.cls-4,.cls-5{fill:#759be0;}.cls-5{opacity:0.7;}.cls-6{fill:#94b0ed;}.cls-7{fill:#d2e0ff;}.cls-8{opacity:0.5;}.cls-9{fill:#ed7d2b;}.cls-10{fill:#f99746;}.cls-11{fill:#e06d20;}.cls-12{fill:#2c3a64;}.cls-13{fill:#ffb27d;}.cls-14{fill:#fff;}.cls-15{fill:#2f539b;}.cls-16{fill:#233862;}.cls-17{fill:#ed985f;}.cls-18{fill:#2e3552;}.cls-19{fill:#163560;}.cls-20{fill:#143d7a;}.cls-21{fill:#ed975d;}.cls-22{fill:#2b478b;}</style></defs><path class="cls-1" d="M11.27,179.69S-7.64,162.1,5.54,120.07c7.78-24.78,34-21,32.68-65.49s22.84-63.9,66.17-43.7c31.27,14.57,78.17-51.39,116.93,31.53,15,32,41.11,27.84,48.08,86.33,1.9,16-.95,32.72-15.06,50.95Z"/><path class="cls-2" d="M125.48,81.6l2.26-1.68a.61.61,0,0,1,.65,0c.26.14.54.26.82.38a10.37,10.37,0,0,0,1.58.51.62.62,0,0,1,.47.51l.45,2.91a.59.59,0,0,0,.64.51l2.68-.17a.6.6,0,0,0,.56-.57l.11-2.71a.61.61,0,0,1,.45-.56,10.78,10.78,0,0,0,3.13-1.42.62.62,0,0,1,.75.06l1.22,1.11a.61.61,0,0,0,.82,0l2-1.77a.63.63,0,0,0,.11-.12.6.6,0,0,0,0-.7l-1.25-1.69-.31-.41a9.59,9.59,0,0,0,.68-1.36,10.83,10.83,0,0,0,.6-1.94.61.61,0,0,1,.5-.48l2.34-.36a.62.62,0,0,0,.53-.65l-.14-2.06,0-.58a.62.62,0,0,0-.6-.59l-2.26-.1a.6.6,0,0,1-.56-.43,11.44,11.44,0,0,0-.9-2.13l-.09-.17s0,0,0-.06a.6.6,0,0,1,.11-.67l1.8-2,.06-.07a.65.65,0,0,0,0-.76l-1.77-2a.62.62,0,0,0-.83-.09L139.59,61a.6.6,0,0,1-.68,0,11.53,11.53,0,0,0-1.49-.75c-.28-.11-.56-.22-.84-.31a.61.61,0,0,1-.43-.5l-.43-2.8a.61.61,0,0,0-.64-.51l-2.66.18a.64.64,0,0,0-.59.6l-.09,2.14a.63.63,0,0,1-.49.59,10.62,10.62,0,0,0-3.15,1.14.61.61,0,0,1-.72-.09l-1.78-1.62a.64.64,0,0,0-.85,0l-2,1.76a.62.62,0,0,0-.09.82l.08.1,1.45,2a.63.63,0,0,1,0,.72h0a11.73,11.73,0,0,0-.88,1.69c-.13.33-.24.65-.35,1a.61.61,0,0,1-.49.43l-2.38.36a.63.63,0,0,0-.53.67l.17,2.64a1.08,1.08,0,0,0,0,.21.64.64,0,0,0,.54.37l1.81.07a.63.63,0,0,1,.52.33.49.49,0,0,1,.06.17,10.88,10.88,0,0,0,1.65,3.94.6.6,0,0,1,0,.67.24.24,0,0,1-.06.08l-1.46,1.61a.61.61,0,0,0,0,.82l0,0,1.72,1.94A.63.63,0,0,0,125.48,81.6ZM137,65.74a7.75,7.75,0,0,1,1,.93,5.65,5.65,0,0,1,1.19,2.86c0,.1,0,.19,0,.28a5.89,5.89,0,0,1-10.44,4.13,6,6,0,0,1-1.16-2.42,4.19,4.19,0,0,1-.08-.56,6.87,6.87,0,0,1,.23-2.26A5.84,5.84,0,0,1,137,65.74Z"/><path class="cls-2" d="M143.51,39.73l2-1a.49.49,0,0,1,.51,0c.19.14.39.26.59.39a10.48,10.48,0,0,0,1.17.57.48.48,0,0,1,.31.45l0,2.31a.48.48,0,0,0,.44.47l2.11.16a.47.47,0,0,0,.49-.38l.39-2.09a.46.46,0,0,1,.41-.39,8.34,8.34,0,0,0,2.58-.76.49.49,0,0,1,.58.13l.82,1a.51.51,0,0,0,.65.1l1.74-1.16a.39.39,0,0,0,.1-.08.47.47,0,0,0,.06-.54l-.78-1.46-.19-.35a9.41,9.41,0,0,0,.67-1,8.65,8.65,0,0,0,.68-1.45.48.48,0,0,1,.44-.31l1.86,0a.49.49,0,0,0,.48-.45l.12-1.61,0-.46a.51.51,0,0,0-.4-.53L159.61,31a.49.49,0,0,1-.39-.4,8.67,8.67,0,0,0-.46-1.75l-.06-.14a.43.43,0,0,0,0-.05.47.47,0,0,1,.16-.51l1.62-1.34s0,0,.05-.05a.5.5,0,0,0,0-.59l-1.15-1.75a.48.48,0,0,0-.63-.16l-2,1.1a.45.45,0,0,1-.53,0,8.6,8.6,0,0,0-1.08-.75c-.2-.12-.41-.23-.62-.33a.49.49,0,0,1-.28-.44l0-2.22a.48.48,0,0,0-.44-.47l-2.08-.15a.49.49,0,0,0-.53.4L150.86,23a.49.49,0,0,1-.45.4,8.41,8.41,0,0,0-2.57.53.48.48,0,0,1-.55-.14l-1.2-1.46a.51.51,0,0,0-.66-.1l-1.74,1.15a.49.49,0,0,0-.16.63l.05.08.91,1.69a.47.47,0,0,1-.06.55h0a8.48,8.48,0,0,0-.87,1.23c-.14.23-.26.47-.38.71a.47.47,0,0,1-.43.28l-1.89,0a.49.49,0,0,0-.49.46l-.15,2.07a.47.47,0,0,0,0,.17.5.5,0,0,0,.38.35l1.4.26a.49.49,0,0,1,.37.31l0,.13a8.55,8.55,0,0,0,.84,3.25.47.47,0,0,1-.06.52l-.06.06-1.31,1.08a.49.49,0,0,0-.1.64l0,0,1.12,1.7A.48.48,0,0,0,143.51,39.73Zm10.69-11a6.12,6.12,0,0,1,.65.83,4.34,4.34,0,0,1,.61,2.36,1.8,1.8,0,0,1,0,.22,4.61,4.61,0,0,1-9.19,0,2.25,2.25,0,0,1,0-.45,5.17,5.17,0,0,1,.43-1.73A4.58,4.58,0,0,1,154.2,28.68Z"/><path class="cls-2" d="M230.58,149.1l2.4-1.3a.6.6,0,0,1,.63,0c.23.17.48.33.73.48a10.21,10.21,0,0,0,1.45.71.59.59,0,0,1,.38.55l0,2.85a.58.58,0,0,0,.55.58l2.6.2a.58.58,0,0,0,.61-.47l.48-2.58a.58.58,0,0,1,.51-.48,10.55,10.55,0,0,0,3.19-.94.6.6,0,0,1,.71.17l1,1.23a.6.6,0,0,0,.79.12l2.16-1.43a.52.52,0,0,0,.11-.1.57.57,0,0,0,.08-.67l-1-1.79-.23-.44a11.25,11.25,0,0,0,.83-1.21,11.05,11.05,0,0,0,.84-1.78.57.57,0,0,1,.54-.39l2.3,0a.59.59,0,0,0,.59-.56l.15-2,0-.57a.61.61,0,0,0-.49-.65l-2.16-.4a.6.6,0,0,1-.48-.49,10,10,0,0,0-.57-2.16l-.06-.18a.14.14,0,0,1,0-.06.6.6,0,0,1,.19-.63l2-1.65.06-.06a.6.6,0,0,0,.06-.73l-1.42-2.16a.61.61,0,0,0-.79-.2l-2.5,1.36a.57.57,0,0,1-.65-.06,11.3,11.3,0,0,0-1.33-.93l-.77-.41a.6.6,0,0,1-.34-.54l0-2.74a.59.59,0,0,0-.54-.58l-2.57-.19a.62.62,0,0,0-.65.5l-.38,2a.58.58,0,0,1-.55.49,10.68,10.68,0,0,0-3.17.67.6.6,0,0,1-.68-.18l-1.49-1.8a.62.62,0,0,0-.81-.12l-2.15,1.41a.6.6,0,0,0-.2.78l.06.1,1.13,2.09a.59.59,0,0,1-.08.68h0a10.31,10.31,0,0,0-1.08,1.51c-.17.29-.32.58-.46.88a.59.59,0,0,1-.53.35l-2.34,0a.63.63,0,0,0-.6.57l-.19,2.56a.49.49,0,0,0,0,.21.62.62,0,0,0,.47.43l1.72.31a.65.65,0,0,1,.46.39.86.86,0,0,1,0,.17,10.6,10.6,0,0,0,1,4,.6.6,0,0,1-.08.64l-.08.07L228.48,146a.61.61,0,0,0-.12.79l0,.05,1.38,2.1A.62.62,0,0,0,230.58,149.1Zm13.19-13.65a6.58,6.58,0,0,1,.81,1,5.44,5.44,0,0,1,.75,2.9,2.64,2.64,0,0,1,0,.28,5.71,5.71,0,0,1-10.57,2.54,5.85,5.85,0,0,1-.79-2.49,5,5,0,0,1,0-.55,6.66,6.66,0,0,1,.53-2.13A5.65,5.65,0,0,1,243.77,135.45Z"/><path class="cls-3" d="M244.77,124.23l1.28-.69a.32.32,0,0,1,.34,0c.12.09.26.17.39.25a4.68,4.68,0,0,0,.78.38.33.33,0,0,1,.2.3l0,1.52a.3.3,0,0,0,.29.31l1.39.11a.32.32,0,0,0,.33-.25l.25-1.38a.33.33,0,0,1,.28-.26,5.44,5.44,0,0,0,1.7-.5.32.32,0,0,1,.38.09l.55.66a.32.32,0,0,0,.42.06l1.16-.76.06-.06a.29.29,0,0,0,0-.35l-.52-1-.13-.24a4.18,4.18,0,0,0,.45-.65,6.31,6.31,0,0,0,.45-1,.31.31,0,0,1,.29-.21h1.23a.32.32,0,0,0,.32-.3l.08-1.06,0-.31a.32.32,0,0,0-.27-.34l-1.15-.22a.32.32,0,0,1-.26-.26,5.65,5.65,0,0,0-.3-1.16.36.36,0,0,0,0-.09s0,0,0,0a.33.33,0,0,1,.11-.34l1.07-.89,0,0a.32.32,0,0,0,0-.39l-.76-1.15a.32.32,0,0,0-.42-.11l-1.34.73a.3.3,0,0,1-.35,0,7.41,7.41,0,0,0-.71-.49c-.13-.08-.27-.15-.41-.22a.31.31,0,0,1-.18-.29l0-1.47a.31.31,0,0,0-.29-.3l-1.38-.11a.32.32,0,0,0-.34.27l-.21,1.09a.32.32,0,0,1-.29.27,5.72,5.72,0,0,0-1.7.35.32.32,0,0,1-.36-.09l-.8-1a.34.34,0,0,0-.44-.06l-1.14.75a.32.32,0,0,0-.11.42l0,.06.6,1.11a.32.32,0,0,1,0,.37h0a5.23,5.23,0,0,0-.57.8c-.09.16-.18.32-.25.48a.31.31,0,0,1-.29.18l-1.24,0a.33.33,0,0,0-.33.3l-.1,1.37a.37.37,0,0,0,0,.11.34.34,0,0,0,.25.23l.92.17a.32.32,0,0,1,.25.21s0,0,0,.08a5.53,5.53,0,0,0,.56,2.15.32.32,0,0,1,0,.34.08.08,0,0,1,0,0l-.86.72a.31.31,0,0,0-.07.42l0,0,.74,1.12A.32.32,0,0,0,244.77,124.23Zm7-7.29a3.34,3.34,0,0,1,.44.54,2.93,2.93,0,0,1,.4,1.56s0,.1,0,.15a3.05,3.05,0,0,1-5.66,1.35,3.11,3.11,0,0,1-.42-1.32v-.3a3.67,3.67,0,0,1,.29-1.14A3,3,0,0,1,251.82,116.94Z"/><path class="cls-2" d="M31.17,124.5l1.41-.77a.36.36,0,0,1,.37,0,4.5,4.5,0,0,0,.43.27,4.79,4.79,0,0,0,.85.42.35.35,0,0,1,.22.32l0,1.68a.35.35,0,0,0,.32.34l1.52.11a.33.33,0,0,0,.36-.27l.28-1.52a.35.35,0,0,1,.3-.28,6.1,6.1,0,0,0,1.87-.55.37.37,0,0,1,.42.1l.6.72a.34.34,0,0,0,.46.07l1.27-.84.07,0a.36.36,0,0,0,0-.4l-.57-1-.14-.26a5,5,0,0,0,.49-.71,6.59,6.59,0,0,0,.5-1,.32.32,0,0,1,.31-.23h1.35a.36.36,0,0,0,.35-.33l.09-1.17,0-.33a.35.35,0,0,0-.29-.38l-1.26-.24a.33.33,0,0,1-.28-.28,5.94,5.94,0,0,0-.34-1.27.49.49,0,0,0,0-.11s0,0,0,0a.35.35,0,0,1,.12-.37l1.17-1,0,0a.35.35,0,0,0,0-.42l-.83-1.27a.36.36,0,0,0-.47-.11l-1.46.79a.35.35,0,0,1-.39,0,7.66,7.66,0,0,0-.78-.54l-.45-.24a.36.36,0,0,1-.2-.32l0-1.61a.34.34,0,0,0-.32-.33l-1.5-.12a.35.35,0,0,0-.38.3l-.23,1.2a.34.34,0,0,1-.32.28,6.49,6.49,0,0,0-1.86.39.34.34,0,0,1-.4-.1L33,111.86a.35.35,0,0,0-.47-.07l-1.26.83a.36.36,0,0,0-.12.46l0,.06.66,1.22a.35.35,0,0,1-.05.4h0a6.45,6.45,0,0,0-.63.89q-.15.25-.27.51a.35.35,0,0,1-.31.21H29.25a.37.37,0,0,0-.36.33l-.11,1.51a.49.49,0,0,0,0,.12.39.39,0,0,0,.28.25l1,.19a.36.36,0,0,1,.27.22s0,.07,0,.1a6,6,0,0,0,.61,2.35.35.35,0,0,1-.05.38s0,0,0,0l-.95.78a.36.36,0,0,0-.07.47l0,0,.81,1.23A.37.37,0,0,0,31.17,124.5Zm7.74-8a4,4,0,0,1,.47.6,3.21,3.21,0,0,1,.44,1.71.92.92,0,0,1,0,.16,3.35,3.35,0,0,1-6.2,1.49,3.39,3.39,0,0,1-.46-1.46,1.71,1.71,0,0,1,0-.32,3.76,3.76,0,0,1,.31-1.25A3.32,3.32,0,0,1,38.91,116.49Z"/><path class="cls-2" d="M159.51,79.94l3.62-2.59a1,1,0,0,1,1-.07c.42.23.85.43,1.29.62a15.52,15.52,0,0,0,2.48.86,1,1,0,0,1,.73.81l.63,4.61a1,1,0,0,0,1,.83l4.24-.21a1,1,0,0,0,.9-.89l.25-4.27a.94.94,0,0,1,.72-.87,17.05,17.05,0,0,0,5-2.16,1,1,0,0,1,1.19.12l1.89,1.78a1,1,0,0,0,1.31,0L189,75.8a.73.73,0,0,0,.17-.18,1,1,0,0,0,0-1.11l-1.93-2.7-.47-.66a17.11,17.11,0,0,0,1.1-2.13,16.73,16.73,0,0,0,1-3,1,1,0,0,1,.8-.74l3.71-.5a1,1,0,0,0,.84-1L194,60.46l0-.93a1,1,0,0,0-.94-.94l-3.57-.22a.94.94,0,0,1-.87-.69,17.15,17.15,0,0,0-1.36-3.39c0-.09-.09-.18-.14-.27a.41.41,0,0,1-.05-.09,1,1,0,0,1,.19-1.06l2.9-3.08a.31.31,0,0,0,.09-.11,1,1,0,0,0-.06-1.19l-2.73-3.2a1,1,0,0,0-1.31-.16l-3.77,2.7a1,1,0,0,1-1.08,0,16.59,16.59,0,0,0-2.33-1.22q-.66-.28-1.32-.51a1,1,0,0,1-.67-.81l-.61-4.43a1,1,0,0,0-1-.82l-4.2.21a1,1,0,0,0-.95.94L170,44.6a1,1,0,0,1-.8.91,17.08,17.08,0,0,0-5,1.72,1,1,0,0,1-1.13-.15l-2.78-2.62a1,1,0,0,0-1.34,0l-3.18,2.72a1,1,0,0,0-.16,1.3l.11.16L158,51.75a1,1,0,0,1,0,1.12h0a17,17,0,0,0-1.44,2.66c-.21.5-.4,1-.57,1.52a1,1,0,0,1-.79.67l-3.77.51a1,1,0,0,0-.86,1l.21,4.18a1.14,1.14,0,0,0,.08.33,1,1,0,0,0,.84.6l2.85.16a1,1,0,0,1,.82.54.79.79,0,0,1,.08.26,17.19,17.19,0,0,0,2.51,6.27,1,1,0,0,1,0,1,.69.69,0,0,1-.11.13l-2.34,2.49a1,1,0,0,0,0,1.31l.07.07,2.66,3.12A1,1,0,0,0,159.51,79.94ZM178.08,55.2a11.83,11.83,0,0,1,1.52,1.49,9,9,0,0,1,1.8,4.55c0,.15,0,.3,0,.45a9.27,9.27,0,0,1-18.35,2.39,6,6,0,0,1-.11-.89,10.46,10.46,0,0,1,.42-3.56A9.21,9.21,0,0,1,178.08,55.2Z"/><path class="cls-2" d="M47.28,93.26C48.41,87.52,58,88.62,58,88.62s7.15,9.41,9.05,9.51-4.54-9.24-4.54-9.24c3.61-.6,13.2,3.21,13.2,3.21s.21,11.54,2.08,11.18-.72-10.22-.72-10.22c3.6.81,7.17,4.69,7.17,4.69,4.58,6.4-3.88,12-3.88,12a18.75,18.75,0,0,0,2.94,8.4h0a14.19,14.19,0,0,1,1.28,2.21l-1,.07a7,7,0,0,0-.32-.73h0c-.08-.14-.19-.34-.32-.59h0c-.33-.56-.56-1-.7-1.27h0c-1-1.74-2.44-4-3.32-4.43a1.83,1.83,0,0,0,.18-.46l-.18.46c-1.4,3.63-9.57,4.8-14.21,4.18s-2.74-2-.42-4.32,7.52-2.08,9-3-.82-1.59-3.86-1.14-4.35,3.6-9.24,4.42-9.31-8.2-9.31-8.2c3.48.82,9.45-1.48,9.61-2.67s-8.88-.44-10.31-.7S46.15,99,47.28,93.26Z"/><path class="cls-4" d="M124.85,115.1l-5.09,60.57s-.53,3.67,2.2,3.68c4.49,0,22.35,0,22.35,0s-3.38-.77-3.34-2.48c.05-2,5.95-62.34,5.95-62.34Z"/><path class="cls-3" d="M145.75,178.25c-.88,0-17.94.06-22.31,0-1.9,0-2.24-1.69-2.25-2.78a5.82,5.82,0,0,1,0-.9l.14-1.57.33-4,.3-3.55.38-4.55.33-3.85,3.62-43,22.06-.57s-2.48,25.24-4.24,43.61c-.2,2.05-.38,4-.56,5.84,0,.59-.11,1.16-.16,1.72l-.44,4.74c-.07.74-.13,1.43-.19,2.07-.22,2.47-.36,4.06-.36,4.36a3.89,3.89,0,0,0,0,.49C142.86,178.19,145.42,178.25,145.75,178.25Z"/><polygon class="cls-3" points="71.26 82.14 83.67 131.98 85.37 138.81 91.14 162.02 198.51 162.02 177.21 82.14 71.26 82.14"/><polygon class="cls-4" points="71.26 82.14 69.54 82.72 88.86 163.76 91.14 162.02 71.26 82.14"/><polygon class="cls-4" points="88.86 163.76 195.56 163.76 198.51 162.02 91.14 162.02 88.86 163.76"/><rect class="cls-3" x="126.33" y="178.27" width="23.1" height="1.1" transform="translate(275.76 357.65) rotate(180)"/><polygon class="cls-5" points="143.56 163.76 143.44 164.6 121.71 168.99 122.01 165.44 122.15 163.76 143.56 163.76"/><path class="cls-6" d="M145.75,178.25c-.88,0-17.94.06-22.31,0-1.9,0-2.24-1.69-2.25-2.78l21.62-4.06c-.22,2.47-.36,4.06-.36,4.36a3.89,3.89,0,0,0,0,.49C142.86,178.19,145.42,178.25,145.75,178.25Z"/><polygon class="cls-6" points="138.31 145.85 91.14 162.02 85.37 138.81 138.31 145.85"/><polygon class="cls-7" points="71.26 82.14 177.21 82.14 194.27 146.34 87.25 146.34 71.26 82.14"/><polygon class="cls-8" points="75.53 84.42 90.75 142.91 189.14 142.91 173.75 85.1 75.53 84.42"/><rect class="cls-9" x="111.14" y="119.42" width="37.22" height="23.48"/><rect class="cls-10" x="129.75" y="119.42" width="37.21" height="23.48"/><polygon class="cls-11" points="129.75 122.89 121.91 130.74 111.17 130.74 111.17 119.42 129.75 119.42 129.75 122.89"/><polygon class="cls-10" points="111.14 119.42 102.78 127.5 121.4 127.5 129.75 119.42 111.14 119.42"/><polygon class="cls-9" points="166.97 120.25 129.75 119.42 129.75 122.4 129.75 122.4 129.75 122.88 136.67 130.47 166.97 130.47 166.97 122.92 166.78 122.69 166.97 122.69 166.97 120.25"/><polygon class="cls-10" points="129.75 119.42 137.12 127.5 173.84 127.5 166.97 119.42 129.75 119.42"/><path class="cls-12" d="M64.9,116.45A2.59,2.59,0,0,0,62,113.63a3.67,3.67,0,0,1,1.45.78,3.73,3.73,0,0,0-4.2.63c-2.18,1.81-.82,6.36-1.49,7.22s-3.25,1-2.94,3.83,8.22,6.29,7.71,8.6c0,0,3.1-4.56.89-6.63a4.07,4.07,0,0,1,1.19,2.22s.29-2.36-1.21-3.11a5.58,5.58,0,0,1-2.31-3.55C61.22,123.18,64.9,116.45,64.9,116.45Z"/><path class="cls-13" d="M61.8,130s2.36,9.74,4.67,11.68c1.38,1.17,5.51,3.86,5.51,3.86l-1.71.62s-5.73-1.93-7-3.44-4.8-9.06-4.8-9.06Z"/><path class="cls-10" d="M75.35,149.09l-.55-1.37a3.89,3.89,0,0,0-3.61-2.43H61v34.12H103.2V151.76H79.31A4.26,4.26,0,0,1,75.35,149.09Z"/><path class="cls-14" d="M67.36,166v-2.46L76,159.8v2.51l-6,2.48,6,2.48v2.54Z"/><path class="cls-14" d="M85,156.86h2.3l-7.9,16.5h-2.3Z"/><path class="cls-14" d="M96.83,163.58V166l-8.62,3.77V167.3l6-2.48-6-2.47V159.8Z"/><path class="cls-15" d="M39.68,147.1l.06.11c.52.9,1.7,3.09,3,5.49.62,1.14,1.26,2.33,1.87,3.44,1.06,1.93,2,3.64,2.57,4.55s1,1.57,1.16,1.83h0a.48.48,0,0,1,.06.26,13.94,13.94,0,0,0,0,2.42,18.48,18.48,0,0,0,6.05,12l1.56.24s-2.21-8.21-2.87-12.86a9.5,9.5,0,0,1-.12-1.83,19.32,19.32,0,0,0-.5-5,111.87,111.87,0,0,0-3.2-11.62c-.08-.23-2.28-8.2-2.28-8.2-1.85,1.62-8.59,2.28-8.59,2.28S37.35,143,39.68,147.1Z"/><path class="cls-16" d="M59.34,179.41H52.8a3.63,3.63,0,0,1,.19-1.75c.33-.73.79-.75.06-1.89a3.93,3.93,0,0,0,2.69.48A8.07,8.07,0,0,0,56.88,178C57.3,178.28,59.21,178.17,59.34,179.41Z"/><path class="cls-16" d="M39.68,147.1l.06.11c.52.9,3.3,6,4.61,8.44a34.77,34.77,0,0,1-.46-12.41Z"/><path class="cls-12" d="M64,116.05A26.39,26.39,0,0,0,60.09,118c-1.77,2-1.27,4.53-.25,4.55.64,0,.52,1.1.52,1.1l7.24-3.06S66.73,115.48,64,116.05Z"/><path class="cls-10" d="M61.58,128.53a9.24,9.24,0,0,1,1,4,6.89,6.89,0,0,1-4.77,2.63S60.73,128.53,61.58,128.53Z"/><path class="cls-15" d="M44.77,140.66l0-1.22c-2.44.31-8.4-2.91-8.4-2.91s-2.55,1.69-2.9,6.53c-.17,2.36-1.25,12.35-1.36,15.34,0,1.08-.06,1.85-.07,2.16h0a.37.37,0,0,1-.1.25,14.11,14.11,0,0,0-1.32,2c-3.72,6.91-1.77,16.3-1.77,16.3l.86-.21s3.14-9.74,5.2-14a8.12,8.12,0,0,1,.93-1.59,19.59,19.59,0,0,0,2.39-4.45C39.77,155.31,44.77,140.66,44.77,140.66Z"/><path class="cls-16" d="M34.07,179.41H27.54a3.57,3.57,0,0,1,.18-1.75c.33-.73.84-1.06.72-1.94a2.35,2.35,0,0,0,2,.78A6.82,6.82,0,0,0,31.61,178C32,178.28,33.94,178.17,34.07,179.41Z"/><path class="cls-10" d="M57.33,136.55c-.88.14.14.84-1.07,1a22.08,22.08,0,0,0-4.42.69c-.34.14-.56.3-.63.52-.41,1.21-3,3.29-3,3.29-11.38-.52-12.11-5.59-12.11-5.59,7.38-7.17,13.67-11.08,18.86-11.57a9.15,9.15,0,0,1,3.77.4c1.81.81,2.81,3.27,2.81,3.27S60.66,136,57.33,136.55Z"/><path class="cls-9" d="M56.26,137.52a22.08,22.08,0,0,0-4.42.69,18.07,18.07,0,0,1,2.3-9.94S55.89,135.38,56.26,137.52Z"/><path class="cls-13" d="M57.75,127.31s-4.32-.24-5.09,2.47,1.44,13.55,1.91,14.66c.87,2,5.09,7.85,5.09,7.85l1.55-.48s-2.81-8.87-3.44-9.75C56.78,140.68,59,128.49,57.75,127.31Z"/><path class="cls-13" d="M61.21,151.81a2.49,2.49,0,0,0,.37,1.05c.29.35,1.14,1.21,1.15,1.71,0,0,0,.23-.22.19s-.81-.67-1.14-.62a6.38,6.38,0,0,0,.35,1.29,3.73,3.73,0,0,1-.07,1.73c-.1.25-1.36-1.31-1.88-2s0-3.53,0-3.53Z"/><path class="cls-10" d="M51.81,133.41c0,.06,4.09.75,6.64-.54,0,0,2.13-6.68-.92-6.36s-4.85,1.28-4.92,2.74A28.69,28.69,0,0,1,51.81,133.41Z"/><path class="cls-13" d="M58.67,125.73c.33,1,1.41,3.91,2.91,2.8a3.62,3.62,0,0,1,.64-1.49c.47-.81,1-1.65,1-1.65l-2.45-2.14-.15-.13a6.11,6.11,0,0,1-1.81,2.07A.49.49,0,0,0,58.67,125.73Z"/><path class="cls-17" d="M63.26,125.39s-.57.84-1,1.65c-1.52-.93-1.53-2.82-1.41-3.79Z"/><path class="cls-13" d="M63.32,126.47s-3.69-2.06-2.37-4.34,1.72-4.08,4.13-2.86,2.37,2.35,2.11,3.21S64.32,126.94,63.32,126.47Z"/><path class="cls-12" d="M67.82,121.15c-.17-1-.69-1.1-1-1a3,3,0,0,0-3.59-1.37,5.06,5.06,0,0,1-2.91,1.75s.42.79,2.19,1.29a3,3,0,0,0,1.74-.14,9.81,9.81,0,0,1-2.5.94c2.32.21,4.53-1.91,4.76-2.14a3.3,3.3,0,0,1,.19,1.52c-.16.69-.76,1.93-.39,2.09C66.27,124.05,68.07,122.67,67.82,121.15Z"/><path class="cls-13" d="M72.66,145.53s-1,.78-.25,1.28,2.16.64,2.16.31C74.59,146,74,145.22,72.66,145.53Z"/><rect class="cls-18" x="-0.07" y="179.37" width="265.28" height="0.63" rx="0.31"/><path class="cls-10" d="M87.57,103.13c-.12-.5.1-.88.55-.89a1.09,1.09,0,0,1,1,.89c.12.49-.09.88-.55.88A1.08,1.08,0,0,1,87.57,103.13Zm1.14,0c-.07-.31-.28-.55-.51-.55s-.32.23-.24.55.28.54.51.54S88.79,103.44,88.71,103.13Z"/><path class="cls-6" d="M80.94,90.31l-.28.07-.15-.31.46-.14h.26l.41,1.71h-.37Z"/><path class="cls-6" d="M82.29,90.79c-.12-.49.1-.88.55-.88a1.08,1.08,0,0,1,1,.88c.12.49-.09.88-.55.88A1.08,1.08,0,0,1,82.29,90.79Zm1.14,0c-.07-.31-.28-.55-.51-.54s-.32.22-.24.54.28.54.51.54S83.51,91.1,83.43,90.79Z"/><path class="cls-6" d="M112.48,90.25l-.28.07-.15-.3.46-.15h.25l.42,1.72h-.37Z"/><path class="cls-6" d="M113.83,90.73c-.12-.49.09-.88.55-.88a1.08,1.08,0,0,1,1,.88c.12.49-.1.88-.56.88A1.07,1.07,0,0,1,113.83,90.73Zm1.14,0c-.08-.31-.28-.54-.51-.54s-.32.23-.24.54.28.55.51.54S115.05,91.05,115,90.73Z"/><path class="cls-6" d="M116.12,90.73c-.12-.5.09-.88.55-.88a1.07,1.07,0,0,1,1,.88c.12.49-.09.88-.55.88A1.07,1.07,0,0,1,116.12,90.73Zm1.14,0c-.07-.31-.28-.55-.51-.55s-.32.23-.24.55.28.54.51.54S117.34,91,117.26,90.73Z"/><path class="cls-6" d="M127.84,90.73c-.12-.49.09-.88.55-.88a1.08,1.08,0,0,1,1,.88c.12.49-.09.88-.55.88A1.07,1.07,0,0,1,127.84,90.73Zm1.14,0c-.07-.31-.28-.54-.51-.54s-.32.23-.24.54.28.55.51.54S129.06,91.05,129,90.73Z"/><path class="cls-6" d="M130.13,90.73c-.12-.5.1-.88.55-.88a1.07,1.07,0,0,1,1,.88c.12.49-.09.88-.55.88A1.08,1.08,0,0,1,130.13,90.73Zm1.14,0c-.07-.31-.28-.55-.51-.55s-.32.23-.24.55.28.54.51.54S131.35,91,131.27,90.73Z"/><path class="cls-6" d="M132.42,90.72c-.12-.49.1-.88.56-.88a1.07,1.07,0,0,1,1,.88c.12.5-.09.89-.55.89A1.09,1.09,0,0,1,132.42,90.72Zm1.14,0c-.07-.31-.28-.54-.51-.54s-.32.23-.24.54.28.55.51.55S133.64,91,133.56,90.72Z"/><path class="cls-6" d="M148.35,90.69c-.12-.5.1-.89.56-.89a1.07,1.07,0,0,1,1,.88c.12.5-.09.89-.55.89A1.08,1.08,0,0,1,148.35,90.69Zm1.14,0c-.07-.31-.28-.54-.51-.54s-.32.23-.24.55.28.54.51.54S149.57,91,149.49,90.68Z"/><path class="cls-6" d="M150.54,90.68c-.11-.49.1-.88.56-.88a1.08,1.08,0,0,1,1,.88c.12.49-.1.88-.56.88A1.09,1.09,0,0,1,150.54,90.68Zm1.15,0c-.08-.31-.29-.54-.51-.54s-.32.22-.25.54.29.54.52.54S151.76,91,151.69,90.68Z"/><path class="cls-6" d="M152.93,90.68c-.12-.5.1-.88.56-.89a1.09,1.09,0,0,1,1,.89c.12.49-.09.88-.55.88A1.08,1.08,0,0,1,152.93,90.68Zm1.14,0c-.07-.31-.28-.55-.51-.55s-.32.23-.24.55.28.54.51.54S154.15,91,154.07,90.68Z"/><path class="cls-6" d="M156.83,90.67c-.12-.49.09-.88.55-.88a1.08,1.08,0,0,1,1,.88c.12.49-.1.88-.56.88A1.07,1.07,0,0,1,156.83,90.67Zm1.14,0c-.08-.31-.29-.54-.51-.54s-.32.22-.25.54.29.54.52.54S158,91,158,90.67Z"/><path class="cls-6" d="M159.29,90.18l-.28.08-.15-.31.46-.15h.26l.41,1.72h-.37Z"/><path class="cls-6" d="M160.64,90.67c-.12-.5.09-.89.55-.89a1.08,1.08,0,0,1,1,.88c.12.5-.09.89-.56.89A1.08,1.08,0,0,1,160.64,90.67Zm1.14,0c-.07-.31-.28-.54-.51-.54s-.32.23-.24.54.28.55.51.55S161.86,91,161.78,90.66Z"/><path class="cls-6" d="M164.46,90.66c-.12-.5.09-.89.55-.89a1.08,1.08,0,0,1,1,.88c.12.5-.1.89-.56.89A1.08,1.08,0,0,1,164.46,90.66Zm1.14,0c-.08-.31-.29-.54-.51-.54s-.32.23-.24.54.28.55.51.55S165.68,91,165.6,90.65Z"/><path class="cls-6" d="M98.37,94.48c-.12-.5.1-.88.56-.89a1.09,1.09,0,0,1,1,.89c.12.49-.09.88-.55.88A1.08,1.08,0,0,1,98.37,94.48Zm1.15,0c-.08-.31-.29-.55-.52-.55s-.32.23-.24.55.28.54.51.54S99.59,94.79,99.52,94.48Z"/><path class="cls-6" d="M100.66,94.47c-.12-.49.1-.88.56-.88a1.09,1.09,0,0,1,1,.88c.12.5-.1.88-.56.89A1.09,1.09,0,0,1,100.66,94.47Zm1.15,0c-.08-.31-.29-.54-.51-.54s-.32.23-.25.54.28.55.51.55S101.88,94.79,101.81,94.47Z"/><path class="cls-6" d="M157.72,94.39c-.11-.5.1-.89.56-.89a1.08,1.08,0,0,1,1,.88c.12.5-.1.89-.56.89A1.09,1.09,0,0,1,157.72,94.39Zm1.15,0c-.08-.31-.29-.54-.51-.54s-.32.23-.25.54.29.55.52.55S158.94,94.7,158.87,94.38Z"/><path class="cls-6" d="M160.19,93.9l-.28.07-.15-.31.46-.14h.25l.42,1.71h-.37Z"/><path class="cls-6" d="M161.54,94.38c-.12-.5.09-.88.55-.88a1.07,1.07,0,0,1,1,.88c.12.49-.1.88-.56.88A1.07,1.07,0,0,1,161.54,94.38Zm1.14,0c-.07-.31-.28-.55-.51-.55s-.32.23-.24.55.28.54.51.54S162.76,94.69,162.68,94.38Z"/><path class="cls-6" d="M169.94,94.36c-.12-.49.1-.88.55-.88a1.08,1.08,0,0,1,1,.88c.12.49-.09.88-.55.88A1.08,1.08,0,0,1,169.94,94.36Zm1.14,0c-.07-.31-.28-.54-.51-.54s-.32.22-.24.54.28.54.51.54S171.16,94.67,171.08,94.36Z"/><path class="cls-6" d="M172.41,93.87l-.29.08-.15-.31.46-.15h.26l.41,1.72h-.37Z"/><path class="cls-6" d="M96.44,114.53c-.12-.5.1-.88.56-.89a1.09,1.09,0,0,1,1,.89c.12.49-.1.88-.56.88A1.09,1.09,0,0,1,96.44,114.53Zm1.15,0c-.08-.31-.29-.55-.51-.55s-.32.23-.25.55.29.54.51.54S97.66,114.84,97.59,114.53Z"/><path class="cls-6" d="M98.74,114.52c-.12-.49.09-.88.55-.88a1.08,1.08,0,0,1,1,.88c.12.5-.1.88-.56.89A1.08,1.08,0,0,1,98.74,114.52Zm1.14,0c-.08-.31-.29-.54-.51-.54s-.32.23-.24.54.28.55.51.55S100,114.84,99.88,114.52Z"/><path class="cls-6" d="M101.2,114l-.28.07-.15-.31.46-.15h.26l.41,1.72h-.37Z"/><path class="cls-6" d="M104.84,114.51c-.12-.49.1-.88.55-.88a1.08,1.08,0,0,1,1,.88c.12.5-.09.88-.55.89A1.09,1.09,0,0,1,104.84,114.51Zm1.14,0c-.07-.31-.28-.54-.51-.54s-.32.23-.24.54.28.55.51.55S106.06,114.83,106,114.51Z"/><path class="cls-6" d="M107.13,114.51c-.12-.49.1-.88.56-.88a1.07,1.07,0,0,1,1,.88c.12.49-.09.88-.55.88A1.08,1.08,0,0,1,107.13,114.51Zm1.14,0c-.07-.31-.28-.54-.51-.54s-.32.22-.24.54.28.54.51.54S108.35,114.82,108.27,114.51Z"/><path class="cls-6" d="M109.42,114.51c-.12-.5.1-.89.56-.89a1.07,1.07,0,0,1,1,.88c.12.5-.09.89-.55.89A1.08,1.08,0,0,1,109.42,114.51Zm1.15,0c-.08-.3-.29-.54-.52-.54s-.32.23-.24.55.28.54.51.54S110.64,114.82,110.57,114.5Z"/><path class="cls-6" d="M138,114.53c-.12-.5.1-.88.56-.89a1.09,1.09,0,0,1,1,.89c.12.49-.09.88-.55.88A1.08,1.08,0,0,1,138,114.53Zm1.14,0c-.07-.31-.28-.55-.51-.55s-.32.23-.24.55.28.54.51.54S139.25,114.84,139.17,114.53Z"/><path class="cls-6" d="M140.32,114.52c-.12-.49.1-.88.56-.88a1.07,1.07,0,0,1,1,.88c.12.5-.09.88-.55.89A1.09,1.09,0,0,1,140.32,114.52Zm1.14,0c-.07-.31-.28-.54-.51-.54s-.32.23-.24.54.28.55.51.55S141.54,114.84,141.46,114.52Z"/><path class="cls-6" d="M142.79,114l-.28.07-.16-.31.46-.15h.26l.42,1.72h-.38Z"/><path class="cls-6" d="M153.39,114.53c-.12-.5.1-.88.56-.89a1.11,1.11,0,0,1,1,.89c.12.49-.1.88-.56.88A1.08,1.08,0,0,1,153.39,114.53Zm1.15,0c-.08-.31-.29-.55-.51-.55s-.32.23-.25.55.28.54.51.54S154.61,114.84,154.54,114.53Z"/><path class="cls-6" d="M155.68,114.52c-.12-.49.1-.88.56-.88a1.08,1.08,0,0,1,1,.88c.12.5-.1.88-.56.89A1.1,1.1,0,0,1,155.68,114.52Zm1.15,0c-.08-.31-.29-.54-.51-.54s-.32.23-.25.54.29.55.52.55S156.9,114.84,156.83,114.52Z"/><path class="cls-6" d="M158.15,114l-.28.07-.15-.31.46-.15h.25l.42,1.72h-.37Z"/><path class="cls-6" d="M146.43,114.51c-.12-.49.09-.88.55-.88a1.08,1.08,0,0,1,1,.88c.12.5-.1.88-.56.89A1.08,1.08,0,0,1,146.43,114.51Zm1.14,0c-.08-.31-.29-.54-.51-.54s-.32.23-.25.54.29.55.52.55S147.64,114.83,147.57,114.51Z"/><path class="cls-6" d="M148.72,114.51c-.12-.49.09-.88.55-.88a1.08,1.08,0,0,1,1,.88c.12.49-.1.88-.56.88A1.07,1.07,0,0,1,148.72,114.51Zm1.14,0c-.08-.31-.28-.54-.51-.54s-.32.22-.24.54.28.54.51.54S149.94,114.82,149.86,114.51Z"/><path class="cls-6" d="M151,114.51c-.12-.5.1-.89.55-.89a1.08,1.08,0,0,1,1,.88c.12.5-.09.89-.55.89A1.07,1.07,0,0,1,151,114.51Zm1.14,0c-.07-.3-.28-.54-.51-.54s-.32.23-.24.55.28.54.51.54S152.23,114.82,152.15,114.5Z"/><path class="cls-6" d="M117.26,114.47c-.12-.5.1-.88.55-.89a1.09,1.09,0,0,1,1,.89c.12.49-.09.88-.55.88A1.08,1.08,0,0,1,117.26,114.47Zm1.14,0c-.07-.31-.28-.55-.51-.55s-.32.23-.24.55.28.54.51.54S118.48,114.78,118.4,114.47Z"/><path class="cls-6" d="M119.73,114l-.29.07-.15-.3.46-.15H120l.42,1.72h-.38Z"/><path class="cls-6" d="M121.07,114.46c-.12-.49.1-.88.56-.88a1.07,1.07,0,0,1,1,.88c.12.49-.09.88-.55.88A1.08,1.08,0,0,1,121.07,114.46Zm1.14,0c-.07-.31-.28-.54-.51-.54s-.32.22-.24.54.28.54.51.54S122.29,114.77,122.21,114.46Z"/><path class="cls-6" d="M166.4,114.41c-.12-.49.09-.88.55-.88a1.08,1.08,0,0,1,1,.88c.12.5-.1.88-.56.89A1.08,1.08,0,0,1,166.4,114.41Zm1.14,0c-.08-.31-.29-.54-.51-.54s-.32.23-.25.54.29.55.52.55S167.61,114.73,167.54,114.41Z"/><path class="cls-6" d="M168.86,113.92l-.28.08-.15-.31.46-.15h.26l.41,1.72h-.37Z"/><path class="cls-6" d="M170.21,114.41c-.12-.5.09-.89.55-.89a1.09,1.09,0,0,1,1,.89c.12.49-.09.88-.56.88A1.07,1.07,0,0,1,170.21,114.41Zm1.14,0c-.07-.31-.28-.55-.51-.55s-.32.23-.24.55.28.54.51.54S171.43,114.72,171.35,114.41Z"/><path class="cls-6" d="M82.89,98.33l-.28.08-.16-.31.46-.15h.26l.42,1.72h-.38Z"/><path class="cls-6" d="M84.23,98.82c-.12-.5.1-.88.56-.89a1.11,1.11,0,0,1,1,.89c.12.49-.1.88-.56.88A1.08,1.08,0,0,1,84.23,98.82Zm1.15,0c-.08-.31-.29-.55-.51-.55s-.32.23-.25.55.28.54.51.54S85.45,99.13,85.38,98.82Z"/><path class="cls-6" d="M97.21,98.8c-.12-.5.1-.89.56-.89a1.07,1.07,0,0,1,1,.88c.12.5-.09.89-.55.89A1.08,1.08,0,0,1,97.21,98.8Zm1.14,0c-.07-.31-.28-.54-.51-.54s-.32.23-.24.55.28.54.51.54S98.43,99.11,98.35,98.79Z"/><path class="cls-6" d="M99.5,98.79c-.12-.49.1-.88.56-.88a1.09,1.09,0,0,1,1,.88c.12.49-.1.88-.56.88A1.08,1.08,0,0,1,99.5,98.79Zm1.15,0c-.08-.31-.29-.54-.51-.54s-.32.22-.25.54.28.54.51.54S100.72,99.1,100.65,98.79Z"/><path class="cls-6" d="M101.79,98.79c-.12-.5.1-.88.56-.89a1.09,1.09,0,0,1,1,.89c.12.49-.1.88-.56.88A1.09,1.09,0,0,1,101.79,98.79Zm1.15,0c-.08-.31-.29-.55-.51-.55s-.32.23-.25.55.29.54.51.54S103,99.1,102.94,98.79Z"/><path class="cls-6" d="M104.26,98.3l-.28.07-.15-.3.46-.15h.25l.42,1.72h-.37Z"/><path class="cls-6" d="M105.79,98.3l-.28.07-.15-.31.46-.14h.26l.41,1.71h-.37Z"/><path class="cls-6" d="M107.14,98.78c-.12-.5.1-.88.55-.88a1.07,1.07,0,0,1,1,.88c.12.49-.09.88-.55.88A1.08,1.08,0,0,1,107.14,98.78Zm1.14,0c-.07-.31-.28-.55-.51-.55s-.32.23-.24.55.28.54.51.54S108.36,99.09,108.28,98.78Z"/><path class="cls-10" d="M166.4,98.68c-.12-.49.1-.88.55-.88a1.08,1.08,0,0,1,1,.88c.12.49-.09.88-.55.88A1.08,1.08,0,0,1,166.4,98.68Zm1.14,0c-.07-.31-.28-.54-.51-.54s-.32.23-.24.54.28.55.51.55S167.62,99,167.54,98.68Z"/><path class="cls-10" d="M168.69,98.68c-.12-.5.1-.88.56-.88a1.06,1.06,0,0,1,1,.88c.12.49-.09.88-.55.88A1.08,1.08,0,0,1,168.69,98.68Zm1.14,0c-.07-.31-.28-.55-.51-.55s-.32.23-.24.55.28.54.51.54S169.91,99,169.83,98.68Z"/><path class="cls-6" d="M171,98.68c-.12-.5.1-.89.56-.89a1.09,1.09,0,0,1,1,.88c.12.5-.1.89-.56.89A1.09,1.09,0,0,1,171,98.68Zm1.15,0c-.08-.31-.29-.54-.51-.54s-.32.23-.25.54.28.55.51.55S172.2,99,172.13,98.67Z"/><path class="cls-6" d="M173.45,98.19l-.28.07L173,98l.46-.14h.26l.42,1.72h-.38Z"/><path class="cls-6" d="M83.93,102.65l-.28.07-.15-.3.46-.15h.26l.41,1.72h-.37Z"/><path class="cls-6" d="M85.28,103.13c-.12-.49.09-.88.55-.88a1.08,1.08,0,0,1,1,.88c.12.49-.09.88-.55.88A1.07,1.07,0,0,1,85.28,103.13Zm1.14,0c-.07-.31-.28-.54-.51-.54s-.32.22-.24.54.28.54.51.54S86.5,103.44,86.42,103.13Z"/><path class="cls-6" d="M96,103.11c-.12-.49.1-.88.56-.88a1.08,1.08,0,0,1,1,.88c.12.5-.1.88-.56.88A1.07,1.07,0,0,1,96,103.11Zm1.15,0c-.08-.31-.29-.54-.51-.54s-.32.23-.25.54.29.55.51.55S97.18,103.43,97.11,103.11Z"/><path class="cls-6" d="M98.26,103.11c-.12-.49.09-.88.55-.88a1.08,1.08,0,0,1,1,.88c.12.49-.1.88-.56.88A1.07,1.07,0,0,1,98.26,103.11Zm1.14,0c-.08-.31-.29-.55-.51-.54s-.32.22-.24.54.28.54.51.54S99.48,103.42,99.4,103.11Z"/><path class="cls-10" d="M89.57,111.46c-.12-.49.09-.88.55-.88a1.08,1.08,0,0,1,1,.88c.12.49-.1.88-.56.88A1.07,1.07,0,0,1,89.57,111.46Zm1.14,0c-.08-.31-.29-.54-.51-.54s-.32.22-.25.54.29.54.52.54S90.78,111.77,90.71,111.46Z"/><path class="cls-10" d="M92,111l-.28.08-.15-.31.46-.15h.25l.42,1.72h-.37Z"/><path class="cls-6" d="M84.88,106.67l-.28.07-.15-.31.46-.14h.26l.41,1.72h-.37Z"/><path class="cls-6" d="M86.23,107.15c-.12-.49.1-.88.55-.88a1.08,1.08,0,0,1,1,.88c.12.49-.09.88-.55.88A1.08,1.08,0,0,1,86.23,107.15Zm1.14,0c-.07-.31-.28-.54-.51-.54s-.32.22-.24.54.28.54.51.54S87.45,107.46,87.37,107.15Z"/><path class="cls-6" d="M88.52,107.15c-.12-.5.1-.89.56-.89a1.09,1.09,0,0,1,1,.88c.12.5-.09.89-.55.89A1.08,1.08,0,0,1,88.52,107.15Zm1.14,0c-.07-.31-.28-.55-.51-.55s-.32.23-.24.55.28.54.51.54S89.74,107.46,89.66,107.15Z"/><path class="cls-6" d="M91,106.66l-.29.07-.15-.31.46-.14h.26l.42,1.72h-.38Z"/><path class="cls-6" d="M92.33,107.14c-.12-.49.1-.88.56-.88a1.07,1.07,0,0,1,1,.88c.12.49-.09.88-.55.88A1.08,1.08,0,0,1,92.33,107.14Zm1.15,0c-.08-.31-.29-.54-.52-.54s-.32.22-.24.54.28.54.51.54S93.55,107.45,93.48,107.14Z"/><path class="cls-6" d="M94.62,107.14c-.12-.5.1-.89.56-.89a1.09,1.09,0,0,1,1,.88c.12.5-.1.89-.56.89A1.08,1.08,0,0,1,94.62,107.14Zm1.15,0c-.08-.31-.29-.55-.51-.55s-.32.23-.25.55.29.54.51.54S95.84,107.45,95.77,107.14Z"/><path class="cls-6" d="M96.92,107.13c-.12-.49.09-.88.55-.88a1.08,1.08,0,0,1,1,.88c.12.5-.1.88-.56.88A1.07,1.07,0,0,1,96.92,107.13Zm1.14,0c-.08-.31-.29-.54-.51-.54s-.32.23-.25.54.29.55.52.55S98.13,107.45,98.06,107.13Z"/><path class="cls-6" d="M99.21,107.13c-.12-.5.09-.88.55-.88a1.08,1.08,0,0,1,1,.88c.12.49-.09.88-.56.88A1.07,1.07,0,0,1,99.21,107.13Zm1.14,0c-.07-.31-.28-.55-.51-.55s-.32.23-.24.55.28.54.51.54S100.43,107.44,100.35,107.13Z"/><path class="cls-6" d="M101.5,107.13c-.12-.5.1-.89.55-.89a1.08,1.08,0,0,1,1,.88c.12.5-.09.89-.55.89A1.08,1.08,0,0,1,101.5,107.13Zm1.14,0c-.07-.31-.28-.54-.51-.54s-.32.23-.24.54.28.55.51.55S102.72,107.44,102.64,107.12Z"/><path class="cls-6" d="M103.79,107.12c-.12-.49.1-.88.56-.88a1.07,1.07,0,0,1,1,.88c.12.49-.09.88-.55.88A1.08,1.08,0,0,1,103.79,107.12Zm1.14,0c-.07-.31-.28-.54-.51-.54s-.32.22-.24.54.28.54.51.54S105,107.43,104.93,107.12Z"/><path class="cls-6" d="M106.26,106.63l-.29.08-.15-.31.46-.15h.26L107,108h-.38Z"/><path class="cls-6" d="M107.79,106.63l-.28.07-.16-.3.46-.15h.26l.42,1.72h-.38Z"/><path class="cls-6" d="M109.13,107.11c-.12-.49.1-.88.56-.88a1.08,1.08,0,0,1,1,.88c.12.49-.1.88-.56.88A1.09,1.09,0,0,1,109.13,107.11Zm1.15,0c-.08-.31-.29-.54-.51-.54s-.32.23-.25.54.29.55.51.54S110.35,107.43,110.28,107.11Z"/><path class="cls-6" d="M85.93,111l-.28.08-.16-.31.46-.15h.26l.42,1.72h-.38Z"/><path class="cls-6" d="M87.27,111.47c-.12-.5.1-.89.56-.89a1.09,1.09,0,0,1,1,.88c.12.5-.1.89-.56.89A1.09,1.09,0,0,1,87.27,111.47Zm1.15,0c-.08-.31-.29-.54-.51-.54s-.32.23-.25.54.28.55.51.55S88.49,111.78,88.42,111.46Z"/><path class="cls-6" d="M93.38,111.45c-.12-.49.09-.88.55-.88a1.08,1.08,0,0,1,1,.88c.12.5-.09.89-.56.89A1.08,1.08,0,0,1,93.38,111.45Zm1.14,0c-.07-.31-.28-.54-.51-.54s-.32.23-.24.54.28.55.51.55S94.6,111.77,94.52,111.45Z"/><path class="cls-6" d="M95.67,111.45c-.12-.49.1-.88.55-.88a1.08,1.08,0,0,1,1,.88c.12.49-.09.88-.55.88A1.08,1.08,0,0,1,95.67,111.45Zm1.14,0c-.07-.31-.28-.54-.51-.54s-.32.22-.24.54.28.54.51.54S96.89,111.76,96.81,111.45Z"/><path class="cls-6" d="M91.59,121c-.12-.5.1-.89.56-.89a1.07,1.07,0,0,1,1,.88c.12.5-.09.89-.55.89A1.08,1.08,0,0,1,91.59,121Zm1.14,0c-.07-.3-.28-.54-.51-.54s-.32.23-.24.55.28.54.51.54S92.81,121.34,92.73,121Z"/><path class="cls-6" d="M94.06,120.54l-.28.07-.16-.31.46-.14h.26l.42,1.71h-.38Z"/><path class="cls-6" d="M88,120.55l-.29.07-.15-.31.46-.14h.26l.41,1.72h-.37Z"/><path class="cls-6" d="M89.3,121c-.12-.49.1-.88.55-.88a1.08,1.08,0,0,1,1,.88c.12.49-.09.88-.55.88A1.08,1.08,0,0,1,89.3,121Zm1.14,0c-.07-.31-.28-.54-.51-.54s-.32.22-.24.54.28.54.51.54S90.52,121.34,90.44,121Z"/><path class="cls-10" d="M95.4,121c-.12-.49.1-.88.56-.88a1.09,1.09,0,0,1,1,.88c.12.49-.1.88-.56.88A1.08,1.08,0,0,1,95.4,121Zm1.15,0c-.08-.31-.29-.54-.51-.54s-.32.22-.25.54.28.54.51.54S96.62,121.33,96.55,121Z"/><path class="cls-10" d="M97.69,121c-.11-.5.1-.89.56-.89a1.08,1.08,0,0,1,1,.88c.12.5-.1.89-.56.89A1.09,1.09,0,0,1,97.69,121Zm1.15,0c-.08-.3-.29-.54-.51-.54s-.32.23-.25.55.29.54.52.54S98.91,121.33,98.84,121Z"/><path class="cls-6" d="M88.76,124.1c-.12-.49.1-.88.56-.88a1.07,1.07,0,0,1,1,.88c.12.5-.09.88-.55.88A1.07,1.07,0,0,1,88.76,124.1Zm1.14,0c-.07-.31-.28-.54-.51-.54s-.32.23-.24.54.28.55.51.55S90,124.42,89.9,124.1Z"/><path class="cls-6" d="M91.23,123.61l-.29.08-.15-.31.46-.15h.26l.42,1.72h-.38Z"/><path class="cls-6" d="M92.57,124.1c-.12-.5.1-.89.56-.89a1.09,1.09,0,0,1,1,.88c.12.5-.09.89-.55.89A1.08,1.08,0,0,1,92.57,124.1Zm1.15,0c-.08-.31-.29-.55-.52-.55s-.32.23-.24.55.28.54.51.54S93.79,124.41,93.72,124.1Z"/><path class="cls-6" d="M94.86,124.09c-.12-.49.1-.88.56-.88a1.09,1.09,0,0,1,1,.88c.12.5-.1.88-.56.88A1.07,1.07,0,0,1,94.86,124.09Zm1.15,0c-.08-.31-.29-.54-.51-.54s-.32.23-.25.54.28.55.51.55S96.08,124.41,96,124.09Z"/><path class="cls-6" d="M98,111.45c-.12-.5.1-.89.56-.89a1.09,1.09,0,0,1,1,.88c.12.5-.09.89-.55.89A1.08,1.08,0,0,1,98,111.45Zm1.14,0c-.07-.31-.28-.55-.51-.55s-.32.23-.24.55.28.54.51.54S99.18,111.76,99.1,111.45Z"/><path class="cls-6" d="M100.25,111.44c-.12-.49.1-.88.56-.88a1.07,1.07,0,0,1,1,.88c.12.5-.09.88-.55.88A1.07,1.07,0,0,1,100.25,111.44Zm1.14,0c-.07-.31-.28-.54-.51-.54s-.32.23-.24.54.28.55.51.55S101.47,111.76,101.39,111.44Z"/><path class="cls-10" d="M94.5,132.16c-.12-.5.1-.89.56-.89a1.07,1.07,0,0,1,1,.88c.12.5-.09.89-.55.89A1.08,1.08,0,0,1,94.5,132.16Zm1.15,0c-.08-.31-.29-.55-.52-.55s-.32.23-.24.55.28.54.51.54S95.72,132.47,95.65,132.16Z"/><path class="cls-10" d="M97,131.67l-.28.07-.16-.31.46-.14h.26l.42,1.72h-.38Z"/><path class="cls-6" d="M89.82,127.36l-.28.08-.15-.31.45-.15h.26l.42,1.72h-.37Z"/><path class="cls-6" d="M91.17,127.85c-.12-.5.09-.89.55-.89a1.08,1.08,0,0,1,1,.88c.12.5-.1.89-.56.89A1.07,1.07,0,0,1,91.17,127.85Zm1.14,0c-.08-.3-.29-.54-.51-.54s-.32.23-.25.55.29.54.52.54S92.39,128.16,92.31,127.84Z"/><path class="cls-6" d="M93.46,127.84c-.12-.49.09-.88.55-.88a1.08,1.08,0,0,1,1,.88c.12.5-.09.88-.56.88A1.07,1.07,0,0,1,93.46,127.84Zm1.14,0c-.07-.31-.28-.54-.51-.54s-.32.23-.24.54.28.55.51.55S94.68,128.16,94.6,127.84Z"/><path class="cls-6" d="M95.92,127.35l-.28.08-.15-.31L96,127h.26l.41,1.72h-.37Z"/><path class="cls-6" d="M90.87,131.68l-.29.07-.15-.31.46-.14h.26l.41,1.72h-.37Z"/><path class="cls-6" d="M92.21,132.16c-.12-.49.1-.88.56-.88a1.07,1.07,0,0,1,1,.88c.12.49-.09.88-.55.88A1.08,1.08,0,0,1,92.21,132.16Zm1.14,0c-.07-.31-.28-.54-.51-.54s-.32.22-.24.54.28.54.51.54S93.43,132.47,93.35,132.16Z"/><path class="cls-6" d="M98.31,132.15c-.12-.49.1-.88.56-.88a1.09,1.09,0,0,1,1,.88c.12.49-.1.88-.56.88A1.08,1.08,0,0,1,98.31,132.15Zm1.15,0c-.08-.31-.29-.54-.51-.54s-.32.22-.25.54.28.54.51.54S99.53,132.46,99.46,132.15Z"/><path class="cls-6" d="M100.61,132.15c-.12-.5.09-.89.55-.89a1.08,1.08,0,0,1,1,.88c.12.5-.1.89-.56.89A1.07,1.07,0,0,1,100.61,132.15Zm1.14,0c-.08-.3-.29-.54-.51-.54s-.32.23-.25.55.29.54.52.54S101.82,132.46,101.75,132.14Z"/><path class="cls-10" d="M95.39,135.2c-.12-.49.09-.88.55-.88a1.08,1.08,0,0,1,1,.88c.12.5-.1.88-.56.88A1.07,1.07,0,0,1,95.39,135.2Zm1.14,0c-.08-.31-.29-.54-.51-.54s-.32.23-.25.54.29.55.52.55S96.6,135.52,96.53,135.2Z"/><path class="cls-10" d="M97.85,134.71l-.28.08-.15-.31.46-.15h.26l.41,1.72h-.37Z"/><path class="cls-6" d="M93.09,135.21c-.12-.5.1-.89.56-.89a1.09,1.09,0,0,1,1,.88c.12.5-.1.89-.56.89A1.08,1.08,0,0,1,93.09,135.21Zm1.15,0c-.08-.3-.29-.54-.51-.54s-.32.23-.25.55.29.54.51.54S94.31,135.52,94.24,135.2Z"/><path class="cls-6" d="M99.2,135.2c-.12-.5.09-.89.55-.89a1.08,1.08,0,0,1,1,.88c.12.5-.09.89-.56.89A1.07,1.07,0,0,1,99.2,135.2Zm1.14,0c-.07-.3-.28-.54-.51-.54s-.32.23-.24.55.28.54.51.54S100.42,135.51,100.34,135.19Z"/><path class="cls-6" d="M101.49,135.19c-.12-.49.1-.88.55-.88a1.08,1.08,0,0,1,1,.88c.12.49-.09.88-.55.88A1.08,1.08,0,0,1,101.49,135.19Zm1.14,0c-.07-.31-.28-.54-.51-.54s-.32.23-.24.54.28.55.51.54S102.71,135.51,102.63,135.19Z"/><path class="cls-6" d="M102.9,132.14c-.12-.49.09-.88.55-.88a1.08,1.08,0,0,1,1,.88c.12.5-.1.88-.56.88A1.07,1.07,0,0,1,102.9,132.14Zm1.14,0c-.07-.31-.28-.54-.51-.54s-.32.23-.24.54.28.55.51.55S104.12,132.46,104,132.14Z"/><path class="cls-6" d="M105.19,132.14c-.12-.5.1-.88.55-.88a1.07,1.07,0,0,1,1,.88c.12.49-.09.88-.55.88A1.07,1.07,0,0,1,105.19,132.14Zm1.14,0c-.07-.31-.28-.55-.51-.55s-.32.23-.24.55.28.54.51.54S106.41,132.45,106.33,132.14Z"/><path class="cls-6" d="M166.1,102.51l-.28.08-.16-.31.46-.15h.26l.42,1.72h-.38Z"/><path class="cls-6" d="M167.44,103c-.12-.5.1-.89.56-.89a1.08,1.08,0,0,1,1,.88c.12.5-.1.89-.56.89A1.09,1.09,0,0,1,167.44,103Zm1.15,0c-.08-.3-.29-.54-.51-.54s-.32.23-.25.55.29.54.51.54S168.66,103.31,168.59,103Z"/><path class="cls-6" d="M169.74,103c-.12-.49.09-.88.55-.88a1.08,1.08,0,0,1,1,.88c.12.5-.1.88-.56.88A1.07,1.07,0,0,1,169.74,103Zm1.14,0c-.08-.31-.29-.54-.51-.54s-.32.23-.24.54.28.55.51.55S171,103.31,170.88,103Z"/><path class="cls-6" d="M172,103c-.12-.5.09-.88.55-.88a1.07,1.07,0,0,1,1,.88c.12.49-.09.88-.56.88A1.07,1.07,0,0,1,172,103Zm1.14,0c-.07-.31-.28-.55-.51-.55s-.32.23-.24.55.28.54.51.54S173.25,103.3,173.17,103Z"/><path class="cls-6" d="M174.49,102.5l-.28.07-.15-.3.46-.15h.26l.41,1.72h-.37Z"/><path class="cls-6" d="M163.63,107.12c-.12-.5.1-.89.56-.89a1.11,1.11,0,0,1,1,.89c.11.49-.1.88-.56.88A1.08,1.08,0,0,1,163.63,107.12Zm1.15,0c-.08-.31-.29-.55-.52-.55s-.31.23-.24.55.28.54.51.54S164.85,107.43,164.78,107.12Z"/><path class="cls-6" d="M166.1,106.63l-.28.07-.16-.3.46-.15h.26l.42,1.72h-.38Z"/><path class="cls-10" d="M167.44,107.11c-.12-.49.1-.88.56-.88a1.08,1.08,0,0,1,1,.88c.12.49-.1.88-.56.88A1.09,1.09,0,0,1,167.44,107.11Zm1.15,0c-.08-.31-.29-.54-.51-.54s-.32.22-.25.54.29.54.51.54S168.66,107.42,168.59,107.11Z"/><path class="cls-10" d="M169.74,107.11c-.12-.5.09-.89.55-.89a1.09,1.09,0,0,1,1,.88c.12.5-.1.89-.56.89A1.07,1.07,0,0,1,169.74,107.11Zm1.14,0c-.08-.31-.29-.55-.51-.55s-.32.23-.24.55.28.54.51.54S171,107.42,170.88,107.11Z"/><path class="cls-10" d="M172,107.1c-.12-.49.09-.88.55-.88a1.08,1.08,0,0,1,1,.88c.12.5-.09.88-.56.88A1.05,1.05,0,0,1,172,107.1Zm1.14,0c-.07-.31-.28-.54-.51-.54s-.32.23-.24.54.28.55.51.55S173.25,107.42,173.17,107.1Z"/><path class="cls-10" d="M174.49,106.61l-.28.08-.15-.31.46-.15h.26l.41,1.72h-.37Z"/><path class="cls-6" d="M174,130.39l-.28.07-.16-.31.46-.14h.26l.42,1.71h-.38Z"/><path class="cls-6" d="M175.37,130.87c-.12-.49.1-.88.56-.88a1.09,1.09,0,0,1,1,.88c.12.49-.1.88-.56.88A1.08,1.08,0,0,1,175.37,130.87Zm1.15,0c-.08-.31-.29-.54-.51-.54s-.32.22-.25.54.28.54.51.54S176.59,131.18,176.52,130.87Z"/><path class="cls-6" d="M177.67,130.87c-.12-.5.09-.89.55-.89a1.08,1.08,0,0,1,1,.88c.12.5-.1.89-.56.89A1.07,1.07,0,0,1,177.67,130.87Zm1.14,0c-.08-.3-.29-.54-.51-.54s-.32.23-.25.55.29.54.52.54S178.88,131.18,178.81,130.86Z"/><path class="cls-6" d="M171.78,133.18l-.29.08-.15-.31.46-.15h.26l.42,1.72h-.38Z"/><path class="cls-6" d="M173.12,133.67c-.12-.5.1-.89.56-.89a1.09,1.09,0,0,1,1,.88c.12.5-.09.89-.55.89A1.08,1.08,0,0,1,173.12,133.67Zm1.15,0c-.08-.31-.29-.55-.52-.55s-.32.23-.24.55.28.54.51.54S174.34,134,174.27,133.67Z"/><path class="cls-6" d="M175.41,133.66c-.12-.49.1-.88.56-.88a1.09,1.09,0,0,1,1,.88c.12.5-.1.88-.56.88A1.07,1.07,0,0,1,175.41,133.66Zm1.15,0c-.08-.31-.29-.54-.51-.54s-.32.23-.25.54.28.55.51.55S176.63,134,176.56,133.66Z"/><path class="cls-6" d="M180,130.86c-.12-.49.09-.88.55-.88a1.08,1.08,0,0,1,1,.88c.12.49-.1.88-.56.88A1.07,1.07,0,0,1,180,130.86Zm1.14,0c-.08-.31-.28-.54-.51-.54s-.32.23-.24.54.28.55.51.54S181.18,131.18,181.1,130.86Z"/><path class="cls-6" d="M182.42,130.37l-.28.08-.15-.31.46-.15h.26l.41,1.72h-.37Z"/><path class="cls-19" d="M213.32,111a4.7,4.7,0,0,1,4.09,1.9c1.28,1.74.39,3.8,3.59,5.38s2.74,3.59,2.1,6.1-3.32,5.53-6.52,5.39-8.66-6.73-8.46-8.94,1.15-2.47.39-3.93C207.33,114.64,209.52,111.38,213.32,111Z"/><path class="cls-13" d="M214.57,121.49s0,0,0,0c-.35-.13-.38-.64-.05-2.79h-.17l-2.86.14s-.06.88-.18,1.7c0,.17-.05.33-.08.48C209.1,123.12,213.72,124.08,214.57,121.49Z"/><path class="cls-20" d="M208.74,179.37h6.16a3.38,3.38,0,0,0-.17-1.65c-.31-.68-.79-1.11-.83-1.63a1.87,1.87,0,0,1-1.77.54,6.49,6.49,0,0,1-1.07,1.39C210.66,178.31,208.86,178.21,208.74,179.37Z"/><path class="cls-15" d="M216,154.18a8.23,8.23,0,0,0-.87,3.84h0a2.53,2.53,0,0,0,.07.38c2,8.08-.85,18.61-.85,18.61a11.26,11.26,0,0,1-1.3.23c-1,.08-1.12-.21-1.12-.21s-1-8.58-4.08-25a45.12,45.12,0,0,1-.79-5.79c-.05-.63-.1-1.33-.15-2.16-.14-2.21.19-5.93,1.85-6.91.76-.45,1.79-.32,3.17.76.11.09.21.19.33.28C220.72,144.32,217.73,149.85,216,154.18Z"/><path class="cls-16" d="M215.1,158c-.1-.33-3.15-11-3.2-11.82-.12-1.74,3.92,3.07,4.07,8A8.23,8.23,0,0,0,215.1,158Z"/><path class="cls-20" d="M236.71,166.4l-2.57-5.6a3.37,3.37,0,0,0-1.43.84c-.49.57-.85.47-2-.31a6.18,6.18,0,0,1,.74,1.9,11.5,11.5,0,0,0,2.59,1.47C234.55,164.83,235.6,166.77,236.71,166.4Z"/><path class="cls-15" d="M209.81,139.63s5.53,19.2,7.55,20.43,12,3.7,15,4.29a5.74,5.74,0,0,0,0-1.61,8,8,0,0,0-.34-.82s-5.26-5.26-10.39-6c-1.08-.16.43-17-6.86-17.61C208.05,137.72,209.81,139.63,209.81,139.63Z"/><path class="cls-13" d="M201.63,109.41s.12-.61.26-1.08a3.44,3.44,0,0,0-.66-1.74c-.3-.17-1.07.75-.85,1.46.11.36.29,1.54.29,1.54Z"/><path class="cls-13" d="M227.13,110.56a3.27,3.27,0,0,1,.14.34v-.1a4.07,4.07,0,0,1,1.38-1.77c.4-.09,1,1.24.46,2-.26.37-1,1.72-1,1.72l-.86-.52a1.26,1.26,0,0,0-.24-.66,4.33,4.33,0,0,1-.16-1.14S227,110.27,227.13,110.56Z"/><path class="cls-21" d="M211.51,118.8s-.06.88-.18,1.7a3.3,3.3,0,0,0,3-1.84Z"/><path class="cls-19" d="M214.9,118.3a8.93,8.93,0,0,0,1.48-2.42c.28-.83.32-4-2.92-4.07a4.29,4.29,0,0,0-1.89.41c-.76.36-1.9,1.22-1.2,4.14l.15,1Z"/><path class="cls-13" d="M210.76,119.49s4,.66,4.34-1.82,1.14-4.07-1.38-4.59-3.16.34-3.49,1.14S209.73,119.26,210.76,119.49Z"/><path class="cls-19" d="M211.51,112.73s1.06,3.09,2.67,3.77a3.33,3.33,0,0,0,2.4.34,4.79,4.79,0,0,1-1.13-3S212.54,111.47,211.51,112.73Z"/><path class="cls-19" d="M212.15,113a3.05,3.05,0,0,0-1.39,1,5,5,0,0,0-.77,1.94s-.53-2.1.57-3.08S212.15,113,212.15,113Z"/><path class="cls-3" d="M228.24,112.74s-.88,7.13-2.72,8.84c-1.28,1.18-5.8,3.09-6.88,4.85a5.49,5.49,0,0,0-.41,1.69,29.59,29.59,0,0,0,1.23,12.7l.24.7a1.2,1.2,0,0,1-.7,1.55,21.2,21.2,0,0,1-3.34.87l-.8.12a13.2,13.2,0,0,1-7.67-1.07,1.74,1.74,0,0,1-.95-1.64c.08-1.41.78-2.8,1.1-6.19.24-2.57-1.51-6.19-1.42-7.55,0-.54.31-2.94,0-3.31-1.81-2.48-4.84-4.85-5.31-7.12a40.1,40.1,0,0,1-.19-7.81,3,3,0,0,1,.84-.21,1.21,1.21,0,0,1,.87.47s1.36,5.07,1.43,5.41c.36,1.82,3.82,4.45,4.86,5a8.36,8.36,0,0,0,2.79,1s-.85,1.47.41,1.68c1.52.24,2.69-1.5,2.69-1.5a6.76,6.76,0,0,0,2.59,0c1.38-.2,6.28-1.86,7-3.12.52-.91,3.24-6,3.24-6a.71.71,0,0,1,.66.06A.74.74,0,0,1,228.24,112.74Z"/><path class="cls-14" d="M211.91,118.15s-.17.34-.4.35a2.86,2.86,0,0,1-.85-.11,3.11,3.11,0,0,1-.13-.42A3.75,3.75,0,0,1,211.91,118.15Z"/><path class="cls-6" d="M219.46,140.82s-3.42-.59-3.64-3c-.24-2.59,2.41-9.7,2.41-9.7h0A29.59,29.59,0,0,0,219.46,140.82Z"/><path class="cls-10" d="M211.14,81.05l-.36-1.31a3.54,3.54,0,0,0-3-2.59l-9.28-1.1-.69,5.89-3,25.12,38.37,4.54,3-25.13L214.46,83.9A3.89,3.89,0,0,1,211.14,81.05Z"/><path class="cls-14" d="M202.05,95.59l.27-2.23,8.25-2.51-.27,2.28-5.75,1.61,5.21,2.9-.27,2.31Z"/><path class="cls-14" d="M219,89.14l2.09.25-9,14.15-2.09-.25Z"/><path class="cls-14" d="M229.11,96.52l-.26,2.24-8.25,2.51.27-2.29,5.74-1.6-5.21-2.9.28-2.32Z"/><path class="cls-13" d="M226.91,111.36a7.15,7.15,0,0,0-.21-1.17c-.1-.18.15-.24.36.19s.63.29.84.71,0,.53-.24.5A3.39,3.39,0,0,1,226.91,111.36Z"/><path class="cls-13" d="M201.7,109.09s.56-.6.56-.88.39-.94.28-1.07-.31.08-.41.26-.54.17-.64.68A1.69,1.69,0,0,0,201.7,109.09Z"/><polygon class="cls-12" points="112.61 105.97 127.18 112.35 127.18 106.67 119.59 103.55 127.18 100.43 127.18 94.8 112.61 101.19 112.61 105.97"/><polygon class="cls-12" points="140.58 90.87 127.99 117.19 133.31 117.19 145.9 90.87 140.58 90.87"/><polygon class="cls-12" points="146.88 94.8 146.88 100.48 154.47 103.6 146.88 106.73 146.88 112.35 161.45 105.97 161.45 101.19 146.88 94.8"/><rect class="cls-12" x="127.99" y="115.69" width="5.32" height="1.5"/><rect class="cls-12" x="143.41" y="89.37" width="2.49" height="1.5"/><polygon class="cls-22" points="112.61 104.47 127.18 110.85 127.18 105.17 119.59 102.05 127.18 98.93 127.18 93.3 112.61 99.68 112.61 104.47"/><polygon class="cls-22" points="140.58 89.37 127.99 115.69 133.31 115.69 145.9 89.37 140.58 89.37"/><polygon class="cls-22" points="146.88 93.3 146.88 98.98 154.47 102.1 146.88 105.22 146.88 110.85 161.45 104.47 161.45 99.68 146.88 93.3"/><polygon class="cls-6" points="194.33 146.34 193.44 146.34 186.18 118.63 176.84 83 72.58 83 88.37 146.34 87.24 146.35 71.26 82.14 177.57 82.05 177.67 82.41 187 118.22 194.33 146.34"/><polygon class="cls-3" points="194.49 146.96 193.63 147.07 186.18 118.63 187 118.22 194.49 146.96"/><path class="cls-13" d="M87.48,97.93a.68.68,0,0,0-.13.73h0a4.62,4.62,0,0,0,1.46,1.59l.23.19,0,0,0,0c.64.58.4.72,1.54,1.91,1.31,1.36,2.21,1.39,2.47,1.26s-.23-.82-.71-1.63l-.08-.12-.19-.33c-.57-1-.42-1.43-.29-2.88.11-1.18,1.84-6.59,1.84-6.59l-2.51-.43s-.75,4.31-1.58,5c-.45.35-.94.36-1.37.62l-.09.06A3,3,0,0,0,87.48,97.93Z"/><path class="cls-16" d="M87.48,97.93a.68.68,0,0,0-.13.73h0a5.32,5.32,0,0,0,1.46,1.58c.08.08.16.14.23.2l0,0,0,0c.64.58.4.72,1.54,1.91,1.31,1.36,2.21,1.39,2.47,1.26s-.23-.82-.71-1.63a5.63,5.63,0,0,1-2.33-1.72c-.79-1-1.31-2.29-1.85-3l-.09.06A3,3,0,0,0,87.48,97.93Z"/><path class="cls-13" d="M107.66,96.36c.16.78,1.26.65,2.49.35s.94.05,2.69-.14,2.28-.85,2.33-1.11-.82-.31-1.74-.42l-.35,0a7.61,7.61,0,0,1-2.77-1.36A11.27,11.27,0,0,1,108.06,91l-2.4.19s1.26,1.91,1.75,2.74a2.93,2.93,0,0,1,.23,1.64A3.22,3.22,0,0,0,107.66,96.36Z"/><path class="cls-16" d="M110.15,96.71c1.23-.31.94.05,2.69-.14s2.28-.85,2.33-1.11-.82-.31-1.74-.42v0a5,5,0,0,1-2.51.78c-1.19,0-2.45-.31-3.27-.3a3.22,3.22,0,0,0,0,.82C107.82,97.14,108.92,97,110.15,96.71Z"/><path class="cls-12" d="M98.46,81l-2.25,6-2.93,7.89a4.86,4.86,0,0,1-1.56-.15,6.6,6.6,0,0,1-1.5-.73s.81-8.47,2.33-13.33a8.52,8.52,0,0,1,1.31-2.83C96.21,75.12,98.46,81,98.46,81Z"/><path class="cls-15" d="M96.17,71.41c-1.47-.47-5.66.13-9.88,1l-.88-1.46-9.1-.71s-3,6.66-1.36,10.91a1.55,1.55,0,0,0,1.54,1H83.8c4.53,0,9.58-3.11,10.23-3.24,1.07-.21,1.5,1.93,2.57,4.17s10.06,10,10.06,10a7.75,7.75,0,0,0,2-.21,1.93,1.93,0,0,0,.84-.52S99.49,72.48,96.17,71.41Z"/><path class="cls-22" d="M82.39,43.2a9.49,9.49,0,0,0-3.31,0c-3.46.34-4.62,4.2-4.1,7.2.48,2.77-.92,3.53-2.54,5.72-3.27,4.38-1.13,8.07,1.44,9,1.54.57,3.69-.87,3.69-.87A101.75,101.75,0,0,0,87,57.44C91.62,55.65,85.65,44,82.39,43.2Z"/><path class="cls-13" d="M82.91,55.87c.09.32-1.43.91-2.58.7S78,55.09,78.27,55c.42-.2.7-.69.47-3.35l.21,0,3.48.4s0,1.09.09,2.1A6.87,6.87,0,0,0,82.91,55.87Z"/><path class="cls-21" d="M82.43,52s0,1.09.09,2.1c-1.92.11-3.08-1.56-3.57-2.5Z"/><path class="cls-13" d="M83.15,53s-4.53.45-4.77-2.38-1-4.67,1.91-5.07,3.53.63,3.84,1.55S84.32,52.76,83.15,53Z"/><path class="cls-22" d="M82.66,45.05s-.57,3.45-3.15,4.27a4.13,4.13,0,0,1-2.73.21A7.78,7.78,0,0,0,78,46.65a1.4,1.4,0,0,1,.93-1C80.26,45.16,81.88,44,82.66,45.05Z"/><path class="cls-22" d="M81.81,45.79a3,3,0,0,1,1.61,1.29,5.83,5.83,0,0,1,.81,2.79s.79-3.19-.37-4.38A1.2,1.2,0,0,0,81.81,45.79Z"/><path class="cls-10" d="M74.75,65.15c.08.35.15.66.21.95.09.47.15.88.2,1.24.14,1.11.09,1.77.19,2.49a5.61,5.61,0,0,0,.34,1.36c.18.52,5.11,1,7.91.79a3.71,3.71,0,0,0,1.8-.39c1-.86.9,1,1-8.09.07-4.45-3.78-8.42-3.78-8.42s-.31,1.91-4.12-.36a23.32,23.32,0,0,0-3.08,4.89C73.86,62.63,74.3,63.27,74.75,65.15Z"/><path class="cls-22" d="M96.21,87.05l-2.93,7.89a4.86,4.86,0,0,1-1.56-.15,6.6,6.6,0,0,1-1.5-.73s.81-8.47,2.33-13.33Z"/><path class="cls-10" d="M82.66,55.08s3.92.67,4.38,2.36,3.65,11.14,3.65,11.14-2.47.84-3.39-.08S84.09,60,84.09,60Z"/><path class="cls-13" d="M98.66,66.4l.93-.36a2.09,2.09,0,0,1,.86,0c.3.09,1,.08,1.06.21s-.86.5-.86.5h0c.33.75,2,1.17,2,1.45s-.67.5-1.09.6a2.29,2.29,0,0,1-1.93-.44c-.37-.38-1-.92-1-.92Z"/><path class="cls-14" d="M82.1,51.29a.78.78,0,0,0,.69.46c.5,0,.64-.08.73-.18a1.45,1.45,0,0,0,.19-.31A4.09,4.09,0,0,0,82.1,51.29Z"/><path class="cls-10" d="M89.6,65.31l9.49.73a3,3,0,0,1-.41,2s-8.57,1.68-10.81.82-2-4.89-2-4.89Z"/><path class="cls-9" d="M75.16,67.34c.14,1.11.09,1.77.19,2.49,3.56,0,8.32-2.75,8.32-2.75Z"/><path class="cls-9" d="M83.67,64.74s-5.55-.16-6.48-3.32C76.16,58,75,62.85,75,62.85L75.62,66h6.09Z"/><path class="cls-3" d="M93.35,56.18l-.3-.74a2.12,2.12,0,0,0-2-1.32H85.56v18.5h22.89v-15h-13A2.3,2.3,0,0,1,93.35,56.18Z"/><path class="cls-14" d="M89,65.37V64L93.69,62v1.36L90.43,64.7,93.69,66v1.38Z"/><path class="cls-14" d="M98.55,60.4H99.8l-4.28,8.94H94.27Z"/><path class="cls-14" d="M105,64v1.33l-4.68,2V66.06l3.27-1.34-3.27-1.35V62Z"/><path class="cls-13" d="M83.67,65.48l.4-.63a3.56,3.56,0,0,0,.77-.42c.53-.37.46-.93.72-.87v1.22h0c1.13.3,2.46,0,2.49.25.07.78-.53,1.13-1,1.38a1.9,1.9,0,0,1-1.53.25c-.51-.16-1.31-.32-1.31-.32Z"/><path class="cls-10" d="M78.54,54.72s-3.6.24-4.5,1.64-2,8.54-1.55,11,12-.47,12-.47l-.37-2.12s-6.65,0-7-.83C76.58,62.78,78.54,54.72,78.54,54.72Z"/><path class="cls-13" d="M95.93,57.63a1.35,1.35,0,0,0,1.36.87c.51-.1,1.17-1.2.59-1.44A1.65,1.65,0,0,0,95.93,57.63Z"/></svg>